<?xml version="1.0" standalone="no"?>
<!DOCTYPE svg PUBLIC "-//W3C//DTD SVG 1.1//EN" "http://www.w3.org/Graphics/SVG/1.1/DTD/svg11.dtd" >
<svg>
<metadata>
Created by FontForge 20090914 at Tue Aug  6 12:23:39 2019
 By www-data
Brown is a trademark of Shinn Type Foundry. Brown is published by Shinn Type Foundry. Copyright&#194;&#169; 2002 by Nick Shinn.
</metadata>
<defs>
<font id="BrownLight" horiz-adv-x="248" >
  <font-face 
    font-family="BrownLight"
    font-weight="300"
    font-stretch="normal"
    units-per-em="1000"
    panose-1="0 0 3 0 0 0 0 0 0 0"
    ascent="800"
    descent="-200"
    x-height="500"
    cap-height="694.001"
    bbox="-176.999 -198 1060 903"
    underline-thickness="66"
    underline-position="-100"
    unicode-range="U+0020-U+F002"
  />
<missing-glyph horiz-adv-x="500" 
d="M63 0v753h375v-753h-375zM125 63h250v628h-250v-628z" />
    <glyph glyph-name=".notdef" horiz-adv-x="500" 
d="M63 0v753h375v-753h-375zM125 63h250v628h-250v-628z" />
    <glyph glyph-name="space" unicode=" " horiz-adv-x="258" 
 />
    <glyph glyph-name="exclam" unicode="!" horiz-adv-x="331" 
d="M213 695c0 -37.333 -3.00195 -124 -9.00195 -260c-6 -131.333 -10.667 -218.333 -14 -261c-7.33301 1.33301 -14.666 2 -21.999 2c-6.66699 0 -16 -0.666992 -28 -2c-3.33301 42 -7.66602 128.667 -12.999 260c-6 135.333 -9 222.333 -9 261c16 -2.66699 32.667 -4 50 -4
s32.333 1.33301 45 4zM208.998 0c-14 3.33301 -27.667 5.00098 -41 5.00098c-12 0 -27.333 -1.66699 -46 -5c1.33301 13.333 2 28.666 2 45.999c0 18 -0.666992 33.333 -2 46c14 -1.33301 27.667 -2 41 -2c12 0 27.333 0.666992 46 2c-1.33301 -14 -2 -30.667 -2 -50
c0 -17.333 0.666992 -31.333 2 -42z" />
    <glyph glyph-name="quotedbl" unicode="&#x22;" horiz-adv-x="364" 
d="M304 694c-8.66699 -114 -13.667 -206 -15 -276c-8.66699 2 -17.667 3 -27 3c-8 0 -18.333 -1 -31 -3c-2.66699 110 -7.33398 202 -14.001 276c12.667 -1.33301 28.334 -2 47.001 -2c18 0 31.333 0.666992 40 2zM147 694c-8.66699 -92 -13.332 -184 -13.999 -276
c-8.66699 1.33301 -19.334 2 -32.001 2c-12 0 -21 -0.666992 -27 -2c-1.33301 98 -6 190 -14 276c10 -1.33301 23.667 -2 41 -2c18.667 0 34 0.666992 46 2z" />
    <glyph glyph-name="numbersign" unicode="#" horiz-adv-x="591" 
d="M560 495c-4 -14.667 -7.33301 -38.333 -10 -71c-50 2.66699 -80 4 -90 4c-12 0 -19 -6 -21 -18c-14.667 -76.667 -22 -121.334 -22 -134.001c0 -2.66699 2.33301 -4 7 -4c9.33301 0 42.666 1.66699 99.999 5c-6 -17.333 -9 -40.666 -9 -69.999c-34 2.66699 -64 4 -90 4
c-8.66699 0 -14 -1 -16 -3s-4 -8.33301 -6 -19c-6.66699 -47.333 -16 -110.333 -28 -189c-11.333 2.66699 -23 4 -35 4c-9.33301 0 -22.666 -1.33301 -39.999 -4c25.333 144 38 214 38 210c0 2 -2.33301 3 -7 3h-115c-9.33301 0 -15.333 -1 -18 -3s-4.66699 -8.33301 -6 -19
l-27 -191c-17.333 2.66699 -29 4 -35 4c-12.667 0 -26 -1.33301 -40 -4c24.667 130.667 37 200.334 37 209.001c0 2.66699 -1.66699 4 -5 4c3.33301 0 -32.334 -1.66699 -107.001 -5c6 20.667 9.66699 43.667 11 69c40.667 -2.66699 71.334 -4 92.001 -4
c8.66699 0 14.334 1 17.001 3s4.66699 7.33301 6 16c14 72 21 115.667 21 131c0 4 -2 6 -6 6s-39 -1.66699 -105 -5c4.66699 16.667 8.66699 40 12 70c2 0 15.333 -0.666992 40 -2c21.333 -0.666992 38 -1 50 -1c14 0 22 6 24 18c9.33301 52 17.666 113.667 24.999 185
c14.667 -2 28.334 -3 41.001 -3c12 0 23.667 1 35 3c-24 -122.667 -36 -189.334 -36 -200.001c0 -2.66699 2 -4 6 -4h118c8.66699 0 14.167 1 16.5 3s4.16602 7.33301 5.49902 16c5.33301 34 14.333 95.667 27 185c15.333 -1.33301 28.333 -2 39 -2
c11.333 0 22.333 0.666992 33 2c-24 -129.333 -36 -196.333 -36 -201c0 -2 1.33301 -3 4 -3c4.66699 0 39.667 1.66699 105 5zM374 425.001c0 2.66699 -1.99902 4.00098 -5.99902 4.00098h-116c-14.667 0 -23.334 -6.66699 -26.001 -20
c-13.333 -73.333 -20 -117.333 -20 -132c0 -3.33301 2 -5 6 -5h117c9.33301 0 15.333 1.33301 18 4s5 9 7 19c13.333 71.333 20 114.666 20 129.999z" />
    <glyph glyph-name="dollar" unicode="$" horiz-adv-x="545" 
d="M489 206c0 -110 -55.6699 -174.668 -167.003 -194.001l-19 -3c-4 -2 -6 -7 -6 -15c0 -12.667 0.333008 -34 1 -64c-10 2.66699 -20 4 -30 4s-20 -1.33301 -30 -4c0 4.66699 0.333008 15.667 1 33c0.666992 14 1 25 1 33c0 10 -5.33301 15.667 -16 17
c-82 10 -135 49.333 -159 118c-8.66699 24 -13.334 49 -14.001 75c9.33301 -2.66699 21.333 -4 36 -4c13.333 0 25.333 1 36 3c0 -1.33301 0.333008 -4.33301 1 -9c4.66699 -34 14 -60 28 -78s35.667 -31.333 65 -40c6.66699 -2 11.334 -3 14.001 -3c6.66699 0 10 7 10 21
l1 219c0 12 -1.16699 19.333 -3.5 22s-9.16602 6 -20.499 10c-101.333 36 -152 95.333 -152 178c0 44 13.667 80.667 41 110s64.666 48 111.999 56c10 1.33301 15.333 2.33301 16 3c3.33301 2 5 6.66699 5 14c0 -3.33301 -0.666992 14.334 -2 53.001c6.66699 -2 16 -3 28 -3
s22.333 1 31 3c-0.666992 -26 -1 -44.667 -1 -56c0 -7.33301 5.33301 -11.666 16 -12.999c100.667 -10 153.667 -64.667 159 -164c-11.333 2.66699 -22.666 4 -33.999 4c-13.333 0 -25.666 -1.66699 -36.999 -5c-4.66699 30.667 -11 52 -19 64c-12 18 -34.333 31 -67 39
l-13 3c-3.33301 0 -5 -5 -5 -15c0 -16.667 -0.333008 -48.334 -1 -95.001c-0.666992 -40 -1 -71.667 -1 -95c0 -13.333 1.66699 -21.333 5 -24c1.33301 -2 8.33301 -5 21 -9c56.667 -18.667 98.334 -41.667 125.001 -69c29.333 -30.667 44 -70.667 44 -120zM243.997 419.999
c0 3.33301 -0.334961 8.00098 -1.00195 14.001s-1 10.667 -1 14c0 5.33301 0.333008 13 1 23v24c0 14.667 -0.666992 55.334 -2 122.001c0 10.667 -3 16 -9 16c-1.33301 0 -4.66602 -0.666992 -9.99902 -2c-57.333 -14.667 -86 -47.334 -86 -98.001
c0 -44.667 26.333 -79.334 79 -104.001c18.667 -8.66699 27.334 -13 26.001 -13c2 0 3 1.33301 3 4zM419.995 190c0 34.667 -8.66699 61.668 -26 81.001c-14.667 16 -40.667 31.333 -78 46c-1.33301 0.666992 -4.83301 2.83398 -10.5 6.50098s-9.5 5.5 -11.5 5.5
s-3 -2 -3 -6c0 -2.66699 0.5 -7.83398 1.5 -15.501s1.5 -13.167 1.5 -16.5l1 -195c0 -15.333 3 -23 9 -23c2.66699 0 7 0.666992 13 2c68.667 15.333 103 53.666 103 114.999z" />
    <glyph glyph-name="percent" unicode="%" horiz-adv-x="758" 
d="M723 175c0 -55.333 -13.001 -100 -39.001 -134s-61.333 -51 -106 -51c-44 0 -79 16.667 -105 50s-39 77.333 -39 132c0 57.333 12.833 103 38.5 137s60.834 51 105.501 51c45.333 0 80.833 -16.667 106.5 -50s38.5 -78.333 38.5 -135zM632.999 694l-415.999 -694
c-9.33301 3.33301 -20.333 5 -33 5s-26.334 -1.66699 -41.001 -5c75.333 118.667 214 350 416 694c12 -2.66699 24.667 -4 38 -4c12.667 0 24.667 1.33301 36 4zM334 517c0 -55.333 -13.001 -99.832 -39.001 -133.499s-61.333 -50.5 -106 -50.5c-44 0 -79 16.833 -105 50.5
s-39 77.5 -39 131.5c0 57.333 12.833 103 38.5 137s60.834 51 105.501 51c45.333 0 80.833 -16.833 106.5 -50.5s38.5 -78.834 38.5 -135.501zM656.999 171.001c0 50 -5.83301 85.333 -17.5 106s-32.167 31 -61.5 31c-52.667 0 -79 -44.333 -79 -133
c0 -88 26.667 -132 80 -132c52 0 78 42.667 78 128zM267.999 513.001c0 48.667 -6.16699 83.833 -18.5 105.5s-32.5 32.5 -60.5 32.5c-52.667 0 -79 -44.333 -79 -133c0 -88 26.667 -132 80 -132c52 0 78 42.333 78 127z" />
    <glyph glyph-name="ampersand" unicode="&#x26;" horiz-adv-x="727" 
d="M640 -3c-18 -5.33301 -36 -8 -54 -8c-46.667 0 -86.334 19 -119.001 57c-10.667 12 -16.334 18 -17.001 18c-1.33301 0 -8.66602 -6 -21.999 -18c-26 -22.667 -49.667 -37.834 -71 -45.501s-49.666 -11.5 -84.999 -11.5c-144.667 0 -217 67 -217 201
c0 97.333 46.667 166 140 206c14.667 6 22 10 22 12s-2.33301 5.83301 -7 11.5l-7 8.5c-31.333 52 -47 96 -47 132c0 42.667 14.667 77.834 44 105.501s69.666 41.5 120.999 41.5c110 0 165 -48.667 165 -146c0 -72 -48.667 -127.333 -146 -166c-16 -6 -24 -10.667 -24 -14
c0 0.666992 6 -8 18 -26c24 -36.667 57.333 -82 100 -136c4 -4.66699 8.66699 -12.667 14 -24c4.66699 -8 8 -12 10 -12c2.66699 0 9 9.33301 19 28c24 44 42.667 102.667 56 176c8 -2 21.667 -3 41 -3c13.333 0 26.333 1.33301 39 4
c-15.333 -85.333 -45.666 -163 -90.999 -233c-8.66699 -13.333 -13 -21.333 -13 -24c0 -4 4.33301 -11.333 13 -22c25.333 -30.667 52.333 -46 81 -46c11.333 0 23 2.66699 35 8c-2 -7.33301 -3 -17 -3 -29c0 -17.333 1.66699 -32.333 5 -45zM412 558
c0 58 -30.666 87 -91.999 87c-59.333 0 -89 -26 -89 -78c0 -24.667 13 -61 39 -109c7.33301 -14 14.666 -21 21.999 -21c5.33301 0 12.333 2 21 6c35.333 16 60 31.667 74 47c16.667 17.333 25 40 25 68zM415.001 122c0 2.66699 -2.99902 7 -8.99902 13
c-3.33301 4 -7 8 -11 12c-46.667 61.333 -70.667 92.666 -72 93.999c-21.333 28.667 -40.333 57 -57 85c-10.667 18 -18 27 -22 27s-11 -2.66699 -21 -8c-32.667 -17.333 -55.667 -36.666 -69 -57.999s-20 -49 -20 -83c0 -98 45 -147 135 -147c28.667 0 49.667 2 63 6
c19.333 6 39.666 18.667 60.999 38c14.667 13.333 22 20.333 22 21z" />
    <glyph glyph-name="quotesingle" unicode="'" horiz-adv-x="207" 
d="M147 694c-7.33301 -89.333 -11.998 -181.333 -13.998 -276c-6 1.33301 -15 2 -27 2c-12.667 0 -23.334 -0.666992 -32.001 -2c-2.66699 97.333 -7.33398 189.333 -14.001 276c12.667 -2 27.667 -3 45 -3c16 0 30 1 42 3z" />
    <glyph glyph-name="parenleft" unicode="(" horiz-adv-x="354" 
d="M303 -152c-5.33301 0.666992 -14.668 0.999023 -28.001 0.999023s-22.666 -0.333008 -27.999 -1c-103.333 136.667 -155 283.334 -155 440.001c0 160 51 303 153 429c5.33301 -0.666992 15.333 -1 30 -1h2c12 0 20.667 0.333008 26 1
c-86 -122.667 -129 -264.667 -129 -426c0 -157.333 43 -305 129 -443z" />
    <glyph glyph-name="parenright" unicode=")" horiz-adv-x="354" 
d="M262 289c0 -160 -51 -307.001 -153 -441.001c-12.667 1.33301 -23 2 -31 2c-8.66699 0 -17.334 -0.666992 -26.001 -2c86 136.667 129 284.334 129 443.001s-44 300.667 -132 426c6.66699 -1.33301 16.334 -2 29.001 -2s23 0.666992 31 2c102 -127.333 153 -270 153 -428
z" />
    <glyph glyph-name="asterisk" unicode="*" horiz-adv-x="426" 
d="M402 545c-38.667 -9.33301 -76.6689 -19.666 -114.002 -30.999c-6.66699 -1.33301 -13.334 -2.33301 -20.001 -3c-10 -2.66699 -15 -6 -15 -10c0 -2.66699 2.83301 -6.5 8.5 -11.5s9.16699 -8.5 10.5 -10.5l79 -103c-19.333 -7.33301 -36.333 -19 -51 -35l-67 104
c-2.66699 5.33301 -5.66699 11 -9 17s-6.66602 9 -9.99902 9c-2.66699 0 -5.33398 -2.66699 -8.00098 -8c-4 -8.66699 -6.33301 -13.334 -7 -14.001l-73 -109c-12 14 -29.667 27.333 -53 40c26 29.333 53.667 63.333 83 102c0.666992 1.33301 3.66699 4.33301 9 9
s8 8.33398 8 11.001c0 4 -3.16699 6.5 -9.5 7.5s-12.166 1.83301 -17.499 2.5c-45.333 13.333 -86 24 -122 32c11.333 20 18.333 40.333 21 61c27.333 -12 65.333 -25.667 114 -41c2 -0.666992 6.33301 -2.66699 13 -6s11.334 -5 14.001 -5c5.33301 0 8 3 8 9
c0 2.66699 -0.666992 6.5 -2 11.5s-2 8.83301 -2 11.5c-1.33301 36 -4.33301 76.667 -9 122c12.667 -2 24.334 -3 35.001 -3c11.333 0 21.666 1 30.999 3c-1.33301 -22 -3 -62.667 -5 -122c0 -2.66699 -0.833008 -6.83398 -2.5 -12.501s-2.5 -9.5 -2.5 -11.5
c0 -5.33301 3 -8 9 -8c2.66699 0 7.16699 1.5 13.5 4.5s10.5 4.83301 12.5 5.5c34.667 10.667 71.334 24.334 110.001 41.001c1.33301 -18.667 8 -38.334 20 -59.001z" />
    <glyph glyph-name="plus" unicode="+" horiz-adv-x="570" 
d="M506 218l-161 1.00195c-3.33301 0 -7 0.333008 -11 1h-11c-6 0 -9 -2.66699 -9 -8c0 -2.66699 0.333008 -6.33398 1 -11.001s1 -8 1 -10l3 -179c-9.33301 2 -19.666 3 -30.999 3c-12 0 -24.333 -1 -37 -3l3 178c0 1.33301 0.333008 4.66602 1 9.99902s1 9.33301 1 12
c0 5.33301 -2.66699 8 -8 8h-10c-5.33301 -0.666992 -9 -1 -11 -1l-163 -2c2 10 3 22.333 3 37c0 11.333 -1 22.666 -3 33.999l164 -4c1.33301 0 4.66602 -0.333008 9.99902 -1h11c4.66699 0 7 3.33301 7 10c0 2.66699 -0.333008 6.33398 -1 11.001s-1 7.66699 -1 9l-3 178
c13.333 -2 25.333 -3 36 -3c12 0 22.667 1 32 3l-3 -177c0 -0.666992 -0.333008 -3.66699 -1 -9s-1 -9.33301 -1 -12c0 -6.66699 2.66699 -10 8 -10h11c5.33301 0.666992 8.33301 1 9 1l164 4c-2 -8 -3 -19.333 -3 -34c0 -11.333 1 -23.333 3 -36z" />
    <glyph glyph-name="comma" unicode="," horiz-adv-x="241" 
d="M169 97c-8.66699 -83.333 -24.999 -166 -48.999 -248c-6 0.666992 -12.333 1 -19 1c-6 0 -18.333 -0.666992 -37 -2c15.333 78 23 161 23 249c15.333 -1.33301 29.666 -2 42.999 -2c12.667 0 25.667 0.666992 39 2z" />
    <glyph glyph-name="hyphen" unicode="-" horiz-adv-x="273" 
d="M233 233c-30 2 -61.666 3 -94.999 3c-39.333 0 -70 -1 -92 -3c2.66699 10 4 21.333 4 34s-1.33301 23.667 -4 33c31.333 -2.66699 61.666 -4 90.999 -4c40 0 72 1.33301 96 4c-2.66699 -10 -4 -21 -4 -33c0 -10 1.33301 -21.333 4 -34z" />
    <glyph glyph-name="hyphen" unicode="&#x2010;" horiz-adv-x="273" 
d="M233 233c-30 2 -61.666 3 -94.999 3c-39.333 0 -70 -1 -92 -3c2.66699 10 4 21.333 4 34s-1.33301 23.667 -4 33c31.333 -2.66699 61.666 -4 90.999 -4c40 0 72 1.33301 96 4c-2.66699 -10 -4 -21 -4 -33c0 -10 1.33301 -21.333 4 -34z" />
    <glyph glyph-name="period" unicode="." horiz-adv-x="241" 
d="M166 0c-14 3.33301 -27.668 5.00098 -41.001 5.00098c-12 0 -27.333 -1.66699 -46 -5c1.33301 13.333 2 29.666 2 48.999s-0.666992 35.333 -2 48c14 -1.33301 27.333 -2 40 -2s28.334 0.666992 47.001 2c-1.33301 -14 -2 -31.333 -2 -52
c0 -19.333 0.666992 -34.333 2 -45z" />
    <glyph glyph-name="slash" unicode="/" horiz-adv-x="429" 
d="M385 709l-307 -829.999c-12.667 2.66699 -24.667 4 -36 4c-10.667 0 -21.334 -1.33301 -32.001 -4c94.667 243.333 196.334 519.666 305.001 828.999c9.33301 -2 20 -3 32 -3c14 0 26.667 1.33301 38 4z" />
    <glyph glyph-name="zero" unicode="0" horiz-adv-x="537" 
d="M501 329c0 -227.333 -73.667 -341 -221 -341c-76 0 -132.5 28.5 -169.5 85.5s-55.5 145.833 -55.5 266.5c0 240.667 74.667 361 224 361c84 0 144 -37.667 180 -113c28 -58.667 42 -145 42 -259zM423 339c0 104.667 -11.667 180.668 -35 228.001
c-22 44.667 -58.333 67 -109 67c-53.333 0 -91 -25.333 -113 -76c-20.667 -46.667 -31 -119.667 -31 -219c0 -108 12.333 -183.667 37 -227c22 -38.667 57.667 -58 107 -58c54 0 91.5 22.667 112.5 68s31.5 117.666 31.5 216.999z" />
    <glyph glyph-name="one" unicode="1" horiz-adv-x="329" 
d="M248 0c-14 2.66699 -28.001 3.99902 -42.001 3.99902c-12.667 0 -25.667 -1.33301 -39 -4c2 104.667 3 214 3 328v176c0 5.33301 0.5 12.833 1.5 22.5s1.5 16.167 1.5 19.5c0 7.33301 -1.66699 11 -5 11c-2.66699 0 -7.33398 -3.33301 -14.001 -10
c-8.66699 -7.33301 -15 -12 -19 -14c-43.333 -20 -78.666 -33.333 -105.999 -40c2.66699 10 4 22.333 4 37c0 14 -1.33301 25.667 -4 35c44 12 77.333 25.667 100 41c29.333 20 53 49.333 71 88c8.66699 -2 16.334 -3 23.001 -3s15 1 25 3c-1.33301 -124 -2 -246 -2 -366
c0 -127.333 0.666992 -236.666 2 -327.999z" />
    <glyph glyph-name="two" unicode="2" horiz-adv-x="537" 
d="M472 0c-54 2.66699 -120.001 3.99902 -198.001 3.99902c-74.667 0 -148.334 -1.33301 -221.001 -4v9c0 44.667 -2.33301 73 -7 85c46.667 35.333 109.667 86.333 189 153c56.667 54.667 94 94.667 112 120c31.333 43.333 47 87.333 47 132c0 90.667 -45 136 -135 136
c-88 0 -132 -47 -132 -141v-25c-10 2 -22.333 3 -37 3s-28.334 -1 -41.001 -3v13c0 69.333 21.333 124 64 164c39.333 37.333 89 56 149 56c64.667 0 115.834 -18.5 153.501 -55.5s56.5 -86.5 56.5 -148.5c0 -59.333 -21.667 -116.333 -65 -171
c-45.333 -57.333 -129.666 -132.666 -252.999 -225.999l-26.5 -16.5c-9 -5.66699 -13.5 -10.5 -13.5 -14.5c0 -3.33301 3 -5 9 -5c4 0 10.333 0.666992 19 2s15 2 19 2c92.667 0.666992 196.334 3 311.001 7c-2 -12 -3 -25 -3 -39s1 -26.333 3 -37z" />
    <glyph glyph-name="three" unicode="3" horiz-adv-x="537" 
d="M487 187c0 -57.333 -19.9961 -104.331 -59.9961 -140.998c-42 -38 -98.667 -57 -170 -57c-66 0 -118 18.5 -156 55.5s-57 87.833 -57 152.5c12.667 -2.66699 25.667 -4 39 -4c12.667 0 26 1.33301 40 4c2.66699 -94.667 47.667 -142 135 -142c46 0 81.667 11.5 107 34.5
s38 55.5 38 97.5c0 92 -47.333 138 -142 138c-9.33301 0 -21.833 -0.5 -37.5 -1.5s-28.167 -1.5 -37.5 -1.5h-12c2 11.333 3 22.333 3 33s-1 22 -3 34h9c9.33301 0 23.166 -0.666992 41.499 -2s32.166 -2 41.499 -2c84 0 126 43 126 129c0 80.667 -44 121 -132 121
c-78.667 0 -121.334 -42 -128.001 -126c-12.667 2.66699 -25.334 4 -38.001 4s-25.667 -1.33301 -39 -4c2 57.333 22.667 103.833 62 139.5s88 53.5 146 53.5c64.667 0 116 -18.333 154 -55c35.333 -34 53 -78 53 -132c0 -64.667 -29 -111.667 -87 -141
c-0.666992 -0.666992 -9 -2.66699 -25 -6c-10.667 -2.66699 -16 -6.33398 -16 -11.001c0 -5.33301 6 -9 18 -11l25 -4c68 -30.667 102 -82.334 102 -155.001z" />
    <glyph glyph-name="four" unicode="4" horiz-adv-x="537" 
d="M501 153c-25.333 1.33301 -51.667 1.99902 -79 1.99902c-11.333 0 -18.333 -1.5 -21 -4.5s-4 -10.167 -4 -21.5c0 -32 1 -75 3 -129c-10 2 -22.333 3 -37 3s-28.667 -1 -42 -3c1.33301 56.667 2 99.334 2 128.001c0 13.333 -1.33301 21.333 -4 24s-10.667 4 -24 4
c-111.333 0 -198 -1 -260 -3c1.33301 10 2 26.333 2 49v14c-0.666992 6.66699 -1 11.667 -1 15l253 462c18 -1.33301 33 -2 45 -2c14.667 0 36 1 64 3c-1.33301 -84 -2 -232.333 -2 -445c0 -12.667 1.16699 -20.167 3.5 -22.5s8.83301 -3.5 19.5 -3.5
c6.66699 0 20 0.333008 40 1s34 1 42 1c-2.66699 -12.667 -4 -24.667 -4 -36c0 -12.667 1.33301 -24.667 4 -36zM324.999 353.999c0 22 -0.333008 52.667 -1 92s-1 68 -1 86c0 22 0.333008 41.333 1 58s1 23 1 19c0 12.667 -1.33301 19 -4 19c-2 0 -7.33301 -9 -16 -27
c-5.33301 -13.333 -14 -32.333 -26 -57l-158 -297c-1.33301 -2 -3.83301 -5.33301 -7.5 -10s-5.5 -7.66699 -5.5 -9c0 -3.33301 1.66699 -5 5 -5c2 0 5.5 0.333008 10.5 1s8.5 1 10.5 1h14c6.66699 -0.666992 11.667 -1 15 -1l135 -1c12 0 19.333 1.33301 22 4
s4 9.66699 4 21z" />
    <glyph glyph-name="five" unicode="5" horiz-adv-x="526" 
d="M478 241c0 -75.333 -17.665 -135.002 -52.998 -179.002c-39.333 -48 -96.666 -72 -171.999 -72c-66 0 -116.167 18.167 -150.5 54.5s-51.833 87.5 -52.5 153.5c11.333 -2 25 -3 41 -3c15.333 0 27.666 1 36.999 3c0 -94 42 -141 126 -141c54 0 92.667 16.667 116 50
c20.667 28.667 31 72.334 31 131.001c0 109.333 -47 164 -141 164c-32 0 -57 -3.66699 -75 -11c-22 -9.33301 -41.333 -26.666 -58 -51.999c-16 7.33301 -36 11 -60 11c10 70.667 15 172.667 15 306v38c26.667 -2 70 -3 130 -3c28 0 104.667 1 230 3
c-3.33301 -13.333 -5 -26.333 -5 -39c0 -14.667 0.666992 -26 2 -34c-128 2 -216.333 3 -265 3c-12 0 -19.333 -1.33301 -22 -4s-4.33398 -10.667 -5.00098 -24c-0.666992 -42 -3.33398 -93.667 -8.00098 -155c-4 -17.333 -6 -23.333 -6 -18c0 -4.66699 2.33301 -7 7 -7
c2.66699 0 6.33398 2.33301 11.001 7c29.333 30.667 70.666 46 123.999 46c63.333 0 113 -20 149 -60s54 -96 54 -168z" />
    <glyph glyph-name="six" unicode="6" horiz-adv-x="537" 
d="M492 219c0 -72 -18.833 -128.334 -56.5 -169.001s-89.5 -61 -155.5 -61c-150 0 -225 109.667 -225 329c0 256 78 384 234 384c60 0 106.333 -15.5 139 -46.5s49.334 -75.833 50.001 -134.5c-12.667 2 -26 3 -40 3c-14.667 0 -28.334 -1 -41.001 -3
c-1.33301 39.333 -10 68.166 -26 86.499s-43.333 27.5 -82 27.5c-47.333 0 -82.5 -12.333 -105.5 -37s-38.167 -68.334 -45.5 -131.001c-2 -15.333 -4.33301 -35.666 -7 -60.999c-0.666992 -9.33301 -2.33398 -24.666 -5.00098 -45.999c-2.66699 -13.333 -4 -21.333 -4 -24
c0 -3.33301 1.33301 -5 4 -5c0.666992 0 3.33398 3.66699 8.00098 11c13.333 22 21.333 34.667 24 38c9.33301 14 19.333 25 30 33c27.333 20.667 64 31 110 31c60 0 107.333 -20.667 142 -62s52 -95.666 52 -162.999zM414 212.999c0 108.667 -42.668 163 -128.001 163
c-30.667 0 -58.667 -8 -84 -24s-44.333 -37.333 -57 -64c-6 -12.667 -9 -23 -9 -31c0 -10.667 0.666992 -23 2 -37c10.667 -108.667 58.334 -163 143.001 -163c88.667 0 133 52 133 156z" />
    <glyph glyph-name="seven" unicode="7" horiz-adv-x="500" 
d="M472 661c0 -10.667 -0.334961 -21.999 -1.00195 -33.999c-149.333 -190.667 -224 -399.667 -224 -627c-16 2.66699 -29.333 4 -40 4c-14.667 0 -28.667 -1.33301 -42 -4c0 217.333 70 416.666 210 597.999c1.33301 2 6 6.33301 14 13c6 6 9 10 9 12c0 2.66699 -3 4 -9 4
c-3.33301 0 -9.16602 -0.5 -17.499 -1.5s-14.166 -1.5 -17.499 -1.5h-90c-94 0 -169.333 -2 -226 -6c2 8 3 23.333 3 46c0 11.333 -0.333008 21.333 -1 30c117.333 -1.33301 215 -2 293 -2c66.667 0 112.667 0.666992 138 2c0.666992 -11.333 1 -22.333 1 -33z" />
    <glyph glyph-name="eight" unicode="8" horiz-adv-x="537" 
d="M492 181c0 -61.333 -19.332 -108.667 -57.999 -142s-93 -50 -163 -50s-124.5 16.667 -163.5 50s-58.5 80.666 -58.5 141.999c0 74.667 33.333 128.667 100 162c3.33301 1.33301 13.333 4 30 8c12.667 2.66699 19 6 19 10c0 3.33301 -6 7 -18 11
c-16.667 6 -26.334 9.66699 -29.001 11c-52.667 31.333 -79 77.666 -79 138.999c0 55.333 17.833 99.166 53.5 131.499s84.167 48.5 145.5 48.5c60.667 0 108.834 -16.167 144.501 -48.5s53.5 -76.166 53.5 -131.499c0 -61.333 -26.333 -107.666 -79 -138.999
c-2.66699 -1.33301 -12.334 -5 -29.001 -11c-12 -4 -18 -7.66699 -18 -11s6.33301 -6.66602 19 -9.99902c16.667 -4 26.667 -6.66699 30 -8c66.667 -33.333 100 -87.333 100 -162zM391.001 520.999c0 76 -40 114 -120 114c-80.667 0 -121 -38 -121 -114
c0 -43.333 9.5 -74.833 28.5 -94.5s49.5 -29.5 91.5 -29.5c80.667 0 121 41.333 121 124zM418.001 182.999c0 48 -13 84.5 -39 109.5s-62 37.5 -108 37.5s-82.167 -12.5 -108.5 -37.5s-39.5 -61.5 -39.5 -109.5c0 -84 49 -126 147 -126c98.667 0 148 42 148 126z" />
    <glyph glyph-name="nine" unicode="9" horiz-adv-x="537" 
d="M482 373c0 -256 -77.999 -383.999 -233.999 -383.999c-60 0 -106.5 15.5 -139.5 46.5s-49.833 75.833 -50.5 134.5c14 -2.66699 28.333 -4 43 -4c14 0 27 1.33301 39 4c1.33301 -40 9.66602 -68.333 24.999 -85c16 -19.333 43.667 -29 83 -29
c47.333 0 82.333 12.333 105 37s37.667 68.334 45 131.001l8 61c0.666992 9.33301 2.33398 24.666 5.00098 45.999c2.66699 13.333 4 21.333 4 24c0 3.33301 -1.33301 5 -4 5c-0.666992 0 -3.33398 -3.66699 -8.00098 -11c-13.333 -22 -21.333 -34.667 -24 -38
c-9.33301 -14 -19.333 -25 -30 -33c-27.333 -20.667 -64 -31 -110 -31c-60 0 -107.333 20.667 -142 62s-52 95.666 -52 162.999c0 72 18.667 128.333 56 169s89 61 155 61c150.667 0 226 -109.667 226 -329zM400.001 434.001c0 10.667 -0.666016 23.001 -1.99902 37.001
c-10.667 108.667 -58.334 163 -143.001 163c-88 0 -132 -52 -132 -156c0 -108.667 42.667 -163 128 -163c30.667 0 58.667 8 84 24s44.333 37.333 57 64c5.33301 11.333 8 21.666 8 30.999z" />
    <glyph glyph-name="colon" unicode=":" horiz-adv-x="241" 
d="M166 370c-14 3.33301 -27.668 5.00098 -41.001 5.00098c-12 0 -27.333 -1.66699 -46 -5c1.33301 13.333 2 29.666 2 48.999s-0.666992 35.333 -2 48c14 -1.33301 27.333 -2 40 -2s28.334 0.666992 47.001 2c-1.33301 -14 -2 -31.333 -2 -52
c0 -19.333 0.666992 -34.333 2 -45zM165.999 0.000976562c-12 2.66699 -25.668 4.00098 -41.001 4.00098c-16 0 -31.333 -1.33301 -46 -4c1.33301 13.333 2 29.666 2 48.999s-0.666992 35.333 -2 48c14 -1.33301 27.333 -2 40 -2s28.334 0.666992 47.001 2
c-1.33301 -14 -2 -31.333 -2 -52c0 -19.333 0.666992 -34.333 2 -45z" />
    <glyph glyph-name="semicolon" unicode=";" horiz-adv-x="241" 
d="M166 370c-14 3.33301 -27.668 5.00098 -41.001 5.00098c-12 0 -27.333 -1.66699 -46 -5c1.33301 13.333 2 29.666 2 48.999s-0.666992 35.333 -2 48c14 -1.33301 27.333 -2 40 -2s28.334 0.666992 47.001 2c-1.33301 -14 -2 -31.333 -2 -52
c0 -19.333 0.666992 -34.333 2 -45zM168.999 92.001c-8.66699 -83.333 -24.999 -166 -48.999 -248c-6 0.666992 -12.333 1 -19 1c-6 0 -18.333 -0.666992 -37 -2c15.333 78 23 161 23 249c15.333 -1.33301 29.666 -2 42.999 -2c12.667 0 25.667 0.666992 39 2z" />
    <glyph glyph-name="less" unicode="&#x3c;" horiz-adv-x="570" 
d="M509 3c-130.667 70 -280 144 -448 222c2 15.333 3 25.666 3 30.999c0 4 -1 14.333 -3 31c132.667 60.667 282 134 448 220c-2.66699 -15.333 -4 -28.666 -4 -39.999c0 -10.667 1.33301 -21.667 4 -33c-78 -34.667 -181.667 -84 -311 -148
c-0.666992 0 -14 -4.33301 -40 -13c-15.333 -5.33301 -23 -11.333 -23 -18c0 -6 7.66699 -11.667 23 -17c26 -10 39.333 -15 40 -15c120 -60 223.667 -109 311 -147c-2.66699 -9.33301 -4 -20 -4 -32c0 -11.333 1.33301 -25 4 -41z" />
    <glyph glyph-name="equal" unicode="=" horiz-adv-x="570" 
d="M506 319c-87.333 2 -161 3 -221 3c-86.667 0 -160.334 -1 -221.001 -3c2 9.33301 3 20 3 32c0 13.333 -1 25 -3 35c86.667 -2 160.334 -3 221.001 -3c85.333 0 159 1 221 3c-1.33301 -7.33301 -2 -18.333 -2 -33c0 -14 0.666992 -25.333 2 -34zM506 129
c-65.333 2 -139.001 3 -221.001 3c-101.333 0 -175 -1 -221 -3c2 8.66699 3 19.667 3 33c0 12 -1 23.333 -3 34c62.667 -2 136.334 -3 221.001 -3c61.333 0 135 1 221 3c-2 -12.667 -3 -25 -3 -37c0 -11.333 1 -21.333 3 -30z" />
    <glyph glyph-name="greater" unicode="&#x3e;" horiz-adv-x="570" 
d="M509 223c-132.667 -60.667 -282 -134 -448 -220c2.66699 15.333 4 28.666 4 39.999c0 10.667 -1.33301 21.667 -4 33c78 34.667 181.667 84 311 148c0.666992 0 14 4.33301 40 13c15.333 5.33301 23 11.333 23 18c0 6 -7.66699 11.667 -23 17c-26 10 -39.333 15 -40 15
c-120 60 -223.667 109 -311 147c2.66699 9.33301 4 20 4 32c0 11.333 -1.33301 25 -4 41c130.667 -70 280 -144 448 -222c-2 -15.333 -3 -25.666 -3 -30.999c0 -4 1 -14.333 3 -31z" />
    <glyph glyph-name="question" unicode="?" horiz-adv-x="493" 
d="M449 508c0 -46 -10.168 -83.501 -30.501 -112.501s-53.833 -56.5 -100.5 -82.5c-26.667 -15.333 -44.667 -30 -54 -44c-10 -16.667 -15 -40.667 -15 -72v-17c-12 2.66699 -24.333 4 -37 4c-10 0 -22.667 -1.33301 -38 -4v16c0 62 16.667 107.667 50 137l94 58
c33.333 24 50 61 50 111c0 45.333 -9.5 78.833 -28.5 100.5s-50.833 32.5 -95.5 32.5c-47.333 0 -79.666 -10.167 -96.999 -30.5s-26 -53.833 -26 -100.5c-9.33301 2 -21.333 3 -36 3c-11.333 0 -24.333 -1.33301 -39 -4v13c0 60.667 17.667 106.834 53 138.501
s84.333 47.5 147 47.5c64 0 113.833 -16.667 149.5 -50s53.5 -81.333 53.5 -144zM255.999 -0.000976562c-14.667 2.66699 -28.999 4 -42.999 4c-14.667 0 -29.334 -1.33301 -44.001 -4c2 10.667 3 25.667 3 45s-1 35 -3 47c12.667 -1.33301 28 -2 46 -2
s31.667 0.666992 41 2c-2 -15.333 -3 -31 -3 -47c0 -16.667 1 -31.667 3 -45z" />
    <glyph glyph-name="at" unicode="@" horiz-adv-x="754" 
d="M696 377c0 -68.667 -14.832 -124.999 -44.499 -168.999s-67.834 -66 -114.501 -66c-35.333 0 -61 12.333 -77 37c-1.33301 2 -3.33301 8.33301 -6 19c-2 8.66699 -4.66699 13 -8 13c-2.66699 0 -6 -3.66699 -10 -11c-4.66699 -10 -7.66699 -15.667 -9 -17
c-21.333 -26 -48.666 -39 -81.999 -39c-34.667 0 -62.167 13.667 -82.5 41s-30.5 64 -30.5 110c0 65.333 16.167 121 48.5 167s71.166 69 116.499 69c32 0 54.667 -12.667 68 -38c3.33301 -6.66699 6.33301 -10 9 -10s4 10.667 4 32v12c8.66699 -1.33301 19 -2 31 -2
c11.333 0 20.666 0.666992 27.999 2l-34 -260c0 -1.33301 -0.5 -5.33301 -1.5 -12s-1.5 -10.334 -1.5 -11.001c0 -33.333 14.333 -50 43 -50c30 0 54.167 16.833 72.5 50.5s27.5 77.5 27.5 131.5c0 82.667 -22.833 150.167 -68.5 202.5s-104.5 78.5 -176.5 78.5
c-76.667 0 -140.5 -30.167 -191.5 -90.5s-76.5 -135.5 -76.5 -225.5c0 -89.333 26.333 -163.5 79 -222.5s119 -88.5 199 -88.5c35.333 0 66 4 92 12s56.667 22.667 92 44c2.66699 -14 9 -27.667 19 -41c-39.333 -26 -73.166 -43.5 -101.499 -52.5s-64.5 -13.5 -108.5 -13.5
c-97.333 0 -177.333 33.5 -240 100.5s-94 153.167 -94 258.5c0 106.667 31.167 195 93.5 265s141.5 105 237.5 105c88.667 0 160.5 -30.5 215.5 -91.5s82.5 -140.833 82.5 -239.5zM460.001 418.001c0 41.333 -19.001 62 -57.001 62c-28.667 0 -52.667 -17.167 -72 -51.5
s-29 -76.5 -29 -126.5c0 -28.667 5.33301 -52.167 16 -70.5s24.334 -27.5 41.001 -27.5c32 0 56.667 23.333 74 70c5.33301 13.333 12 45.333 20 96c4.66699 28 7 44 7 48z" />
    <glyph glyph-name="A" unicode="A" horiz-adv-x="593" 
d="M577 0c-20 2 -35.6689 3 -47.002 3c-9.33301 0 -23.666 -1 -42.999 -3c-10 30 -25.333 79 -46 147c-2.66699 9.33301 -5.16699 15 -7.5 17s-8.83301 3 -19.5 3c-50.667 1.33301 -98 2 -142 2c-24.667 0 -54 -0.333008 -88 -1c-15.333 0 -24.666 -1 -27.999 -3
s-6.66602 -8.33301 -9.99902 -19l-44 -146c-16.667 2 -30.334 3 -41.001 3c-12.667 0 -27.667 -1 -45 -3l226 694c13.333 -2 30.333 -3 51 -3c18 0 35.667 1 53 3c12 -43.333 47 -150.333 105 -321zM415.998 241c0 1.33301 -1.5 4.33301 -4.5 9
s-4.83301 8.33398 -5.5 11.001l-96 301l-13 52c-2 6.66699 -3.66699 10 -5 10c-2.66699 0 -4.66699 -3.33301 -6 -10c-3.33301 -19.333 -7.33301 -36.333 -12 -51l-93 -300c-0.666992 -2.66699 -2.5 -6.83398 -5.5 -12.501s-4.5 -9.16699 -4.5 -10.5c0 -3.33301 3 -5 9 -5
c12.667 0 32 0.333008 58 1s45.333 1 58 1c32 0 63.333 -0.333008 94 -1c1.33301 0 4 -0.333008 8 -1h9c6 0 9 2 9 6z" />
    <glyph glyph-name="B" unicode="B" horiz-adv-x="587" 
d="M532 186c0 -68 -24.998 -118.667 -74.998 -152c-34 -22.667 -76.333 -34 -127 -34c-16.667 0 -43 0.5 -79 1.5s-62.333 1.5 -79 1.5c-30.667 0 -60 -1 -88 -3c2 130 3 249.333 3 358c0 134.667 -1 246.667 -3 336c27.333 -2 54 -3 80 -3c17.333 0 42.166 0.5 74.499 1.5
s57.166 1.5 74.499 1.5c50.667 0 91.667 -9.66699 123 -29c46.667 -28.667 70 -76.667 70 -144c0 -49.333 -13.667 -87 -41 -113c-16 -14.667 -36.333 -26.334 -61 -35.001c-0.666992 0 -8.66699 -1.33301 -24 -4c-10 -1.33301 -15 -3.66602 -15 -6.99902
s5.33301 -5.33301 16 -6l25 -3c34 -8 60.667 -22 80 -42c30.667 -31.333 46 -73 46 -125zM422.002 512c0 75.333 -43.668 113.002 -131.001 113.002c-7.33301 0 -42.666 -1 -105.999 -3c-10.667 0 -17 -1.33301 -19 -4s-3 -10.334 -3 -23.001
c-1.33301 -61.333 -2 -113 -2 -155v-25c0 -11.333 1 -18.166 3 -20.499s8 -3.5 18 -3.5c9.33301 0 42 0.666992 98 2c48.667 1.33301 84.5 11.166 107.5 29.499s34.5 48.166 34.5 89.499zM446.001 190.002c0 51.333 -16.3311 87.668 -48.998 109.001
c-25.333 16.667 -63.333 25.667 -114 27s-85.334 2 -104.001 2c-8.66699 0 -13.834 -1.16699 -15.501 -3.5s-2.5 -9.16602 -2.5 -20.499v-22c0 -101.333 0.333008 -159.333 1 -174c0.666992 -18.667 3 -29.834 7 -33.501s16.333 -5.83398 37 -6.50098
c28 -0.666992 59.667 -1 95 -1c96.667 0 145 41 145 123z" />
    <glyph glyph-name="C" unicode="C" horiz-adv-x="586" 
d="M540 224c0 -70 -19.667 -126.001 -59 -168.001c-40.667 -44 -96.334 -66 -167.001 -66c-170 0 -255 113 -255 339c0 246.667 86.333 370 259 370c146.667 0 220.334 -77.667 221.001 -233c-11.333 1.33301 -23 2 -35 2c-16 0 -30.667 -1 -44 -3
c-2 108.667 -50 163 -144 163c-60.667 0 -105 -21.333 -133 -64c-30 -46.667 -45 -122.667 -45 -228c0 -185.333 58 -278 174 -278c96.667 0 146 60.333 148 181c18.667 -2.66699 34.667 -4 48 -4c8 0 18.333 0.666992 31 2c0 -1.33301 0.333008 -3.66602 1 -6.99902v-6z
" />
    <glyph glyph-name="D" unicode="D" horiz-adv-x="628" 
d="M570 341c0 -109.333 -23.168 -193.499 -69.501 -252.499s-114.166 -88.5 -203.499 -88.5h-17c-14 0 -32.833 0.5 -56.5 1.5s-41.834 1.5 -54.501 1.5c-40.667 0 -69 -1 -85 -3c2 103.333 3 214.666 3 333.999c0 109.333 -1 229.333 -3 360c30.667 -2 58.334 -3 83.001 -3
c14.667 0 33.5 0.5 56.5 1.5s38.833 1.5 47.5 1.5h13c190.667 0 286 -117.667 286 -353zM488.999 342.001c0 85.333 -14.001 150.667 -42.001 196c-36.667 58.667 -99 88 -187 88c-4.66699 0 -28.667 -0.333008 -72 -1c-11.333 0 -18.333 -1.33301 -21 -4s-4 -10.667 -4 -24
c-2 -88 -3 -173.667 -3 -257c0 -72.667 0.666992 -143 2 -211c0.666992 -28 3.33398 -44.667 8.00098 -50s19.667 -8.66602 45 -9.99902c12.667 -0.666992 26 -1 40 -1c88 0 150 23 186 69c32 41.333 48 109.666 48 204.999z" />
    <glyph glyph-name="E" unicode="E" horiz-adv-x="539" 
d="M466 0c-47.333 2.66699 -107.668 4.00098 -181.001 4.00098c-75.333 0 -142.333 -1.33301 -201 -4c2 101.333 3 216.666 3 345.999c0 99.333 -1 215.333 -3 348c56.667 -2.66699 121.667 -4 195 -4c72.667 0 132 1.33301 178 4c-1.33301 -16 -2 -28.667 -2 -38
c0 -12.667 0.666992 -26 2 -40c-69.333 2 -155.333 3 -258 3c-16.667 0 -26.667 -1.16699 -30 -3.5s-5 -9.5 -5 -21.5c-0.666992 -39.333 -1 -94 -1 -164v-22c0 -10 1.5 -16.167 4.5 -18.5s10.5 -3.5 22.5 -3.5h21c38.667 0 116.667 1.33301 234 4c-2 -14 -3 -27.667 -3 -41
s1 -25.666 3 -36.999c-68 2 -146 3 -234 3h-21c-11.333 0 -18.666 -1.33301 -21.999 -4s-5 -9 -5 -19v-20c0 -70.667 0.333008 -128.334 1 -173.001c0 -11.333 1.5 -18.166 4.5 -20.499s11.167 -3.5 24.5 -3.5c124.667 0 215.667 1.33301 273 4
c-2 -14.667 -3 -29.334 -3 -44.001c0 -12 1 -23.667 3 -35z" />
    <glyph glyph-name="F" unicode="F" horiz-adv-x="491" 
d="M457 616c-80.667 2 -160.668 2.99707 -240.001 2.99707h-27c-12 0 -19.333 -1.33301 -22 -4s-4 -9.66699 -4 -21c-0.666992 -39.333 -1 -90.666 -1 -153.999v-32c0 -10.667 1.33301 -17 4 -19s10.334 -3 23.001 -3c52.667 0 137.667 1.33301 255 4
c-2 -14 -3 -27.667 -3 -41s1 -25.666 3 -36.999c-68 2 -153 3 -255 3c-12 0 -19.5 -1.16699 -22.5 -3.5s-4.5 -8.83301 -4.5 -19.5c0 -106 0.666992 -203.333 2 -292c-13.333 2 -26.333 3 -39 3c-14 0 -28 -1 -42 -3c2 101.333 3 210 3 326c0 112.667 -1 235.334 -3 368.001
c56.667 -2.66699 121 -4 193 -4c74 0 134 1.33301 180 4c-1.33301 -16 -2 -28.667 -2 -38c0 -12.667 0.666992 -26 2 -40z" />
    <glyph glyph-name="G" unicode="G" horiz-adv-x="607" 
d="M554 109c-33.333 -45.333 -69.333 -77.333 -108 -96c-36 -17.333 -82.333 -26 -139 -26c-79.333 0 -140.333 28.667 -183 86c-44.667 59.333 -67 146 -67 260c0 109.333 19.333 195.333 58 258c45.333 73.333 115.666 110 210.999 110c51.333 0 95.5 -12.333 132.5 -37
s62.833 -59.334 77.5 -104.001c9.33301 -27.333 14 -56.666 14 -87.999c-9.33301 1.33301 -22.333 2 -39 2c-17.333 0 -31.333 -0.666992 -42 -2c-7.33301 106 -56.666 159 -147.999 159c-123.333 0 -185 -99.667 -185 -299c0 -185.333 59.333 -278 178 -278
c64 0 111 17.333 141 52c12 14 19.333 25.333 22 34s4 28 4 58v50c-2.66699 17.333 -12.334 26 -29.001 26c-45.333 0 -88.666 -1.33301 -129.999 -4c2 16 3 28.667 3 38c0 2.66699 -1 14.667 -3 36c36.667 -2 77 -3 121 -3c44.667 0 81.667 1 111 3
c-1.33301 -29.333 -2 -61 -2 -95c0 2.66699 0.666992 -44 2 -140z" />
    <glyph glyph-name="H" unicode="H" horiz-adv-x="645" 
d="M559 0c-10 2 -23.335 2.99805 -40.002 2.99805c-12 0 -25.667 -1 -41 -3c1.33301 156 2 251.333 2 286v13c0 10 -1.16699 16.333 -3.5 19s-9.5 4 -21.5 4c-26 0.666992 -70.333 1 -133 1c-60 0 -104.333 -0.333008 -133 -1c-11.333 0 -18.166 -1 -20.499 -3
s-3.5 -8 -3.5 -18v-15c0 -129.333 0.666992 -224.666 2 -285.999c-9.33301 2 -22.666 3 -39.999 3c-13.333 0 -27 -1 -41 -3c2 110 3 226 3 348c0 100.667 -1 216 -3 346c12 -2 25.333 -3 40 -3c9.33301 0 23 1 41 3c-1.33301 -50 -2 -137 -2 -261v-16
c0 -10.667 1.16699 -17.5 3.5 -20.5s8.5 -4.5 18.5 -4.5c54.667 -1.33301 99.667 -2 135 -2c46 0 91.333 0.666992 136 2c10.667 0 17 1.5 19 4.5s3 10.167 3 21.5v16c0 110.667 -0.666992 197.334 -2 260.001c10.667 -2 23.667 -3 39 -3c14 0 28 1 42 3
c-2 -200.667 -3 -316 -3 -346c0 -77.333 1 -193.333 3 -348z" />
    <glyph glyph-name="I" unicode="I" 
d="M164 0c-10.667 2 -24 2.99902 -40 2.99902s-29.667 -1 -41 -3c2 92.667 3 203.334 3 332.001c0 106.667 -1 227.334 -3 362.001c14.667 -2 28.334 -3 41.001 -3c9.33301 0 22.666 1 39.999 3c-2 -174.667 -3 -295.334 -3 -362.001c0 -90 1 -200.667 3 -332z" />
    <glyph glyph-name="J" unicode="J" horiz-adv-x="515" 
d="M433 213c0 -71.333 -14.499 -126.502 -43.499 -165.502s-81.5 -58.5 -157.5 -58.5c-65.333 0 -114.333 22.333 -147 67c-27.333 38 -41 89.333 -41 154c0 12 0.333008 22.667 1 32c16 -2.66699 29.333 -4 40 -4c12 0 25.333 1.33301 40 4
c-0.666992 -11.333 -1 -22.333 -1 -33c0 -102 36 -153 108 -153c51.333 0 85.333 16.667 102 50c11.333 20.667 17.666 60 18.999 118c0.666992 24 1 88 1 192c0 -2 -1 90.667 -3 278c14 -2.66699 28.333 -4 43 -4c12 0 24.667 1.33301 38 4
c-1.33301 -70 -2 -153.667 -2 -251c0 -25.333 0.5 -63.666 1.5 -114.999s1.5 -89.666 1.5 -114.999z" />
    <glyph glyph-name="K" unicode="K" horiz-adv-x="565" 
d="M540 0c-13.333 2 -31.9971 2.99805 -55.9971 2.99805c-20.667 0 -35.334 -1 -44.001 -3l-202 246c-10 11.333 -29.333 36.333 -58 75c-8.66699 11.333 -12.667 17 -12 17c-3.33301 0 -5 -4 -5 -12c0 -11.333 0.5 -29.166 1.5 -53.499s1.5 -39.833 1.5 -46.5v-226
c-10 2 -22.333 3 -37 3s-29 -1 -43 -3c2 102.667 3 214 3 334c0 105.333 -1 225.333 -3 360c10.667 -2 24 -3 40 -3c12.667 0 26 1 40 3l-1 -245c0 -4 -0.333008 -14.167 -1 -30.5s-1 -27.833 -1 -34.5c0 -9.33301 1.33301 -14 4 -14l12 15c14 18 36.667 45.667 68 83
l188 226c15.333 -2 30.666 -3 45.999 -3c14.667 0 28.667 1 42 3l-232 -271c-14.667 -17.333 -26.334 -30.333 -35.001 -39c-16 -15.333 -24 -22.666 -24 -21.999c0 -2.66699 2.66699 -6 8 -10c8 -6 12.333 -9.33301 13 -10c18.667 -19.333 34.667 -37.333 48 -54z" />
    <glyph glyph-name="L" unicode="L" horiz-adv-x="452" 
d="M422 0c-35.333 2 -91.333 2.99902 -168 2.99902c-70 0 -126.667 -1 -170 -3c2 191.333 3 310.333 3 357c0 99.333 -1 211.666 -3 336.999c11.333 -2 24 -3 38 -3s28.333 1 43 3c-2 -106 -3 -219 -3 -339c0 -37.333 0.333008 -82.666 1 -135.999
c1.33301 -74 2 -113.667 2 -119c0 -12 1 -19.167 3 -21.5s7.66699 -3.5 17 -3.5h17c92.667 0 166 1.33301 220 4c-1.33301 -10.667 -2 -23.667 -2 -39s0.666992 -28.666 2 -39.999z" />
    <glyph glyph-name="M" unicode="M" horiz-adv-x="805" 
d="M718 0c-12.667 2 -25.666 3 -38.999 3c-14 0 -27.667 -1 -41 -3l1 381c0 24 1.66699 62.333 5 115c2.66699 50 4 88 4 114c0 7.33301 -1.33301 11 -4 11c-4.66699 0 -11 -15.5 -19 -46.5l-34 -125.5l-132 -379c-3.33301 -9.33301 -10.333 -32.666 -21 -69.999
c-13.333 2 -27.333 3 -42 3s-27.667 -1 -39 -3c-7.33301 27.333 -14.333 50.666 -21 69.999l-133 377c-12.667 37.333 -23.334 79.666 -32.001 126.999c-6 31.333 -11.667 47 -17 47c-3.33301 0 -5 -4 -5 -12c0 -25.333 1.5 -63.666 4.5 -114.999s4.5 -89 4.5 -113l1 -381
c-13.333 2 -26 3 -38 3s-25 -1 -39 -3c1.33301 85.333 2 189 2 311c0 134.667 -0.666992 262.334 -2 383.001c14.667 -2 35.667 -3 63 -3c26.667 0 45.334 1 56.001 3c18.667 -60.667 78.667 -236.667 180 -528c6 -16.667 10.333 -33.334 13 -50.001
c2.66699 -14 5 -21 7 -21s4.16699 6.66699 6.5 20s7.5 31 15.5 53c81.333 228.667 139.666 404 174.999 526c18.667 -2.66699 39.667 -4 63 -4s42 1.33301 56 4l-1 -304c0 -151.333 0.666992 -281.333 2 -390z" />
    <glyph glyph-name="N" unicode="N" horiz-adv-x="663" 
d="M579 694c-1.33301 -76 -1.99707 -184.335 -1.99707 -325.002v-369c-15.333 2 -34.333 3 -57 3s-41.334 -1 -56.001 -3l-260 532l-21 43c-10 26.667 -17 40 -21 40s-6 -5.66699 -6 -17c0 -9.33301 0.833008 -23.666 2.5 -42.999s2.5 -33.666 2.5 -42.999v-185
c0 -138 0.666992 -247 2 -327c-8.66699 2 -20.334 3 -35.001 3c-15.333 0 -30.333 -1 -45 -3c2 102 3 211 3 327c0 124 -1 246.333 -3 367c20 -2.66699 40.667 -4 62 -4s43.333 1.33301 66 4l243 -496c12 -24 21.667 -46.667 29 -68c9.33301 -26 15.666 -39 18.999 -39
c2.66699 0 4 4.66699 4 14c0 10.667 -0.833008 27 -2.5 49s-2.5 38.333 -2.5 49v166c0 120 -0.666992 228.333 -2 325c12.667 -2 25 -3 37 -3s26.333 1 43 3z" />
    <glyph glyph-name="O" unicode="O" horiz-adv-x="645" 
d="M586 337c0 -233.333 -86.999 -350 -260.999 -350c-84.667 0 -149.667 29.333 -195 88c-48 62 -72 152.333 -72 271c0 114 22.667 201.667 68 263s111.666 92 198.999 92c174 0 261 -121.333 261 -364zM508.001 340c0 99.333 -18.333 174.667 -55 226
c-32.667 45.333 -76 68 -130 68c-124 0 -186 -97 -186 -291c0 -96 16.667 -169 50 -219c32 -47.333 77 -71 135 -71c124 0 186 95.667 186 287z" />
    <glyph glyph-name="P" unicode="P" horiz-adv-x="544" 
d="M499 486c0 -71.333 -21.834 -126.834 -65.501 -166.501s-101.5 -59.5 -173.5 -59.5c-10 0 -23.667 0.333008 -41 1h-41c-7.33301 0 -11.833 -0.833008 -13.5 -2.5s-2.5 -6.16699 -2.5 -13.5v-22c0 -53.333 1 -127.666 3 -222.999c-12.667 2 -25.334 3 -38.001 3
c-12 0 -26.333 -1 -43 -3c2 102 3 207.333 3 316c0 120.667 -1 246.667 -3 378c18.667 -1.33301 39.667 -2 63 -2c14.667 0 35.334 0.333008 62.001 1s47.334 1 62.001 1c152 0 228 -69.333 228 -208zM416.999 484.999c0 38.667 -10.668 70.3359 -32.001 95.0029
c-25.333 29.333 -62.666 44 -111.999 44c-12 0 -41 -1 -87 -3c-10.667 -0.666992 -17.167 -1.83398 -19.5 -3.50098s-3.5 -6.5 -3.5 -14.5v-17c-0.666992 -7.33301 -1 -16.333 -1 -27v-202c0 -10.667 1 -17.334 3 -20.001s7 -4.33398 15 -5.00098c16 -0.666992 34 -1 54 -1
c122 0 183 51.333 183 154z" />
    <glyph glyph-name="Q" unicode="Q" horiz-adv-x="645" 
d="M586 337c0 -202.667 -68.667 -317.668 -206 -345.001c-6.66699 -1.33301 -10 -8.66602 -10 -21.999c0 -25.333 9 -42.333 27 -51c12.667 -6 34 -9 64 -9c14 0 31.667 2 53 6c-2.66699 -16 -4 -30.333 -4 -43c0 -13.333 1.33301 -26.333 4 -39
c-22 -5.33301 -44.667 -8 -68 -8c-92 0 -142 40.667 -150 122c-0.666992 4.66699 -1 12 -1 22c-0.666992 8 -1.5 13.167 -2.5 15.5s-4.5 3.83301 -10.5 4.5c-80.667 12 -140 55.667 -178 131c-30.667 59.333 -46 134.333 -46 225c0 104.667 20.667 188 62 250
c46 70 114.333 105 205 105c174 0 261 -121.333 261 -364zM508 339.999c0 82.667 -13.667 150.001 -41 202.001c-32 61.333 -80 92 -144 92c-124 0 -186 -97 -186 -291c0 -82.667 13.333 -149.334 40 -200.001c32 -60 80.333 -90 145 -90s113 29 145 87
c27.333 50 41 116.667 41 200z" />
    <glyph glyph-name="R" unicode="R" horiz-adv-x="566" 
d="M522 0c-10.667 2 -24.001 2.99707 -40.001 2.99707c-16.667 0 -31.667 -1 -45 -3c-12.667 64 -21.667 107 -27 129c-11.333 48 -22.666 83 -33.999 105s-24.333 37.333 -39 46c-20 11.333 -51 17 -93 17h-54c-14 0 -22.167 -1.16699 -24.5 -3.5
s-3.5 -10.166 -3.5 -23.499v-6c0 -80.667 1 -168.667 3 -264c-9.33301 2 -22 3 -38 3s-30.333 -1 -43 -3c2 215.333 3 324 3 326c0 50.667 -0.333008 114 -1 190c-1.33301 104 -2 163.333 -2 178c16.667 -1.33301 49 -2 97 -2c14 0 33.833 0.333008 59.5 1s45.5 1 59.5 1
c71.333 0 125 -20.333 161 -61c30.667 -34 46 -77 46 -129c0 -40.667 -10.333 -76.667 -31 -108s-48.667 -50.333 -84 -57l-20 -2c-10.667 -1.33301 -16 -3.66602 -16 -6.99902c0 -1.33301 7.33301 -4.66602 22 -9.99902c17.333 -6.66699 29.333 -13 36 -19
c19.333 -18 34.333 -40.667 45 -68c8.66699 -22 29.667 -99.667 63 -233zM424.999 503.997c0 80.667 -50.332 120.999 -150.999 120.999c-22.667 0 -50.334 -1 -83.001 -3c-10.667 -0.666992 -18 -2.5 -22 -5.5s-6 -9.5 -6 -19.5c-0.666992 -42 -1 -104.333 -1 -187v-21
c0 -11.333 2 -18.166 6 -20.499s12.333 -3.5 25 -3.5h45c24 0 42.667 0.666992 56 2c44 4 76 15.667 96 35c23.333 21.333 35 55.333 35 102z" />
    <glyph glyph-name="S" unicode="S" horiz-adv-x="557" 
d="M506 185c0 -60.667 -20.502 -109.001 -61.502 -145.001s-96.167 -54 -165.5 -54c-67.333 0 -121.333 17 -162 51c-44 37.333 -66 90.333 -66 159c0 12 0.666992 23.667 2 35c9.33301 -2 22 -3 38 -3c16.667 0 31.334 1 44.001 3c-2 -13.333 -2.66699 -24 -2 -32
c4.66699 -94.667 56 -142 154 -142c91.333 0 137 40.333 137 121c0 47.333 -26.667 83 -80 107c-14.667 6.66699 -44.667 17.667 -90 33c-40 13.333 -71 26.333 -93 39c-62 34.667 -93 88.334 -93 161.001c0 53.333 19.833 98.166 59.5 134.499s90.834 54.5 153.501 54.5
c58.667 0 108.334 -15.333 149.001 -46c44.667 -33.333 67 -79 67 -137c0 -19.333 -0.666992 -34.666 -2 -45.999c-10.667 2 -23.667 3 -39 3s-29.333 -1 -42 -3c0 8 0.333008 18.667 1 32c0 40 -13 70.667 -39 92s-59.333 32 -100 32
c-44.667 0 -78.334 -11.667 -101.001 -35c-18.667 -20 -28 -45.667 -28 -77c0 -42 22 -74.667 66 -98c18 -9.33301 45.667 -20.333 83 -33c42.667 -14 72.667 -25 90 -33c80 -35.333 120 -93 120 -173z" />
    <glyph glyph-name="T" unicode="T" horiz-adv-x="468" 
d="M453 616c-66.667 1.33301 -116.668 2 -150.001 2h-16c-7.33301 0 -11.666 -0.666992 -12.999 -2s-2 -5.66602 -2 -12.999v-41c0 -178.667 1 -366 3 -562c-10 2 -23 3 -39 3s-30 -1 -42 -3l3 603c0 10 -6.66699 15 -20 15h-18c-19.333 0 -67.333 -0.666992 -144 -2
c1.33301 13.333 2 26.333 2 39c0 13.333 -0.666992 26.333 -2 39c112.667 -2 185.667 -3 219 -3c60.667 0 133.667 1 219 3c-1.33301 -12.667 -2 -26.334 -2 -41.001c0 -14 0.666992 -26.333 2 -37z" />
    <glyph glyph-name="U" unicode="U" horiz-adv-x="614" 
d="M531 230c0 -82.667 -17.834 -143.832 -53.501 -183.499s-92.5 -59.5 -170.5 -59.5c-149.333 0 -224 81 -224 243v8c0 27.333 0.333008 67.666 1 120.999s1 94.333 1 123c0 76.667 -0.666992 147.334 -2 212.001c14 -2 27.667 -3 41 -3c12.667 0 26 1 40 3v-95
c-0.666992 -48.667 -1 -87.667 -1 -117c0 -104.667 0.333008 -186 1 -244c1.33301 -120 49 -180 143 -180c51.333 0 87.833 14.167 109.5 42.5s32.834 74.166 33.501 137.499l2 244c0 26 -0.333008 64 -1 114s-1 82.667 -1 98c12.667 -2.66699 25.667 -4 39 -4
c12.667 0 26.667 1.33301 42 4c-0.666992 -45.333 -1 -116 -1 -212c0 -24.667 0.333008 -64 1 -118v-126v-8z" />
    <glyph glyph-name="V" unicode="V" horiz-adv-x="590" 
d="M575 694l-224.999 -694.001c-11.333 2 -27.666 3 -48.999 3c-22 0 -40.667 -1 -56 -3l-230 694c13.333 -2 30.666 -3 51.999 -3c19.333 0 32.333 1 39 3c55.333 -187.333 113.666 -374.333 174.999 -561c2.66699 -13.333 6.66699 -30.666 12 -51.999
c2 -6.66699 4 -10 6 -10c4 0 6.66699 3.33301 8 10c1.33301 12.667 4.33301 29.667 9 51c71.333 220.667 128.666 408 171.999 562c10 -2 23.333 -3 40 -3s32.334 1 47.001 3z" />
    <glyph glyph-name="W" unicode="W" horiz-adv-x="885" 
d="M870 694l-162.002 -694c-12 2 -30.333 3 -55 3c-21.333 0 -40.666 -1 -57.999 -3c-5.33301 25.333 -44 170.333 -116 435c-12 44 -20.667 88 -26 132c-4 30 -7.33301 45 -10 45c-3.33301 0 -6.66602 -15 -9.99902 -45c-4.66699 -36.667 -13.667 -80.334 -27 -131.001
l-119 -436c-12.667 2 -29.667 3 -51 3c-22.667 0 -41.667 -1 -57 -3l-164 694c13.333 -2 26.666 -3 39.999 -3c12 0 27.667 1 47 3c25.333 -122.667 63.333 -297.667 114 -525c2.66699 -19.333 8 -48.333 16 -87c2 -7.33301 4 -11 6 -11c2.66699 0 4.66699 3.66699 6 11
c4 20.667 10 49.667 18 87c36.667 132.667 82.334 307.667 137.001 525c10.667 -2 25.667 -3 45 -3c20 0 36.333 1 49 3c8.66699 -40 54 -214.667 136 -524c4 -19.333 10.667 -48.666 20 -87.999c2 -7.33301 3.66699 -11 5 -11s2.66602 3.66699 3.99902 11
c2.66699 20 7.33398 49.333 14.001 88c31.333 134 70 308.667 116 524c14.667 -2 27.667 -3 39 -3c10.667 0 25 1 43 3z" />
    <glyph glyph-name="X" unicode="X" horiz-adv-x="543" 
d="M523 0c-16 2 -33.668 3.00293 -53.001 3.00293c-18.667 0 -34.334 -1 -47.001 -3l-127 233c-4 6.66699 -10 18.667 -18 36c-5.33301 13.333 -8.66602 20 -9.99902 20s-3 -2 -5 -6c-2 -6.66699 -3.66699 -11.334 -5 -14.001c-3.33301 -6.66699 -9.33301 -17.667 -18 -33
c-26 -49.333 -70 -128 -132 -236c-8 2 -20.333 3 -37 3c-17.333 0 -34.666 -1 -51.999 -3l192 328c5.33301 9.33301 8 16.666 8 21.999c0 6 -1.33301 11.333 -4 16l-187 328c18.667 -2 36 -3 52 -3s29.667 1 41 3c40.667 -68.667 82 -143.334 124 -224.001
c4 -6.66699 9.66699 -18 17 -34l11 -28c-0.666992 0 3 9.33301 11 28c4.66699 10.667 11.334 23.667 20.001 39l120 219c12 -2 25.667 -3 41 -3s31.666 1 48.999 3l-184 -314c-6.66699 -11.333 -10 -19.333 -10 -24s2.66699 -11.667 8 -21z" />
    <glyph glyph-name="Y" unicode="Y" horiz-adv-x="556" 
d="M541 694l-202.001 -364c-10 -19.333 -16.333 -35.333 -19 -48c-2 -10 -3 -28.333 -3 -55c0 -66 0.333008 -141.667 1 -227c-14 2 -27.667 3 -41 3s-26.666 -1 -39.999 -3l2 224c0 28 -1.16699 48 -3.5 60s-8.5 27.333 -18.5 46l-202 364c13.333 -2 29 -3 47 -3
c16.667 0 31 1 43 3l149 -275c6 -11.333 11.667 -27.666 17 -48.999c2.66699 -11.333 5.66699 -17 9 -17c2.66699 0 5.66699 6.16699 9 18.5s10.333 28.166 21 47.499l146 275c10.667 -2 24 -3 40 -3c18 0 33 1 45 3z" />
    <glyph glyph-name="Z" unicode="Z" horiz-adv-x="458" 
d="M438 0c-106.667 2 -194.999 2.99902 -264.999 2.99902c-36 0 -87 -1 -153 -3c1.33301 11.333 2 23.333 2 36c0 12 -0.666992 22.333 -2 31l278 477c6 10.667 17.333 27.667 34 51c9.33301 10.667 14 18.667 14 24c0 4.66699 -6.33301 7 -19 7h-50
c-29.333 0 -73.333 -1 -132 -3c-64.667 -2.66699 -103.667 -4 -117 -4c1.33301 8.66699 2 20.334 2 35.001s-0.666992 28 -2 40c112 -2 194.667 -3 248 -3c61.333 0 113.666 1 156.999 3c0.666992 -10 1 -20 1 -30c0 -9.33301 -0.333008 -19.333 -1 -30l-315 -543
c-2 -4 -5.16699 -8.33301 -9.5 -13s-6.5 -8 -6.5 -10c0 -1.33301 2 -2 6 -2c2.66699 0 8.5 0.666992 17.5 2s15.167 2 18.5 2l294 7l-3 -39c0 -11.333 1 -24 3 -38z" />
    <glyph glyph-name="bracketleft" unicode="[" horiz-adv-x="354" 
d="M279 -152c-32 1.33301 -60 2.00195 -84 2.00195s-52.333 -0.666992 -85 -2l2 431c0 173.333 -0.666992 319.333 -2 438c16.667 -0.666992 45.334 -1 86.001 -1c39.333 0 66.333 0.333008 81 1c-0.666992 -12 -1 -21 -1 -27c0 -6.66699 0.333008 -14.334 1 -23.001l-82 2
c-8.66699 0 -13 -5 -13 -15c-0.666992 -84 -1 -210 -1 -378l1 -362c0 -12 5 -18 15 -18c15.333 0 42.666 0.333008 81.999 1c-1.33301 -8.66699 -2 -16.334 -2 -23.001c0 -5.33301 0.666992 -14 2 -26z" />
    <glyph glyph-name="backslash" unicode="\" horiz-adv-x="429" 
d="M379 -121c-10.667 2.66699 -21.667 4 -33 4s-23.333 -1.33301 -36 -4l-307 831c11.333 -2.66699 24 -4 38 -4c12 0 22.667 1 32 3c104.667 -299.333 206.667 -576 306 -830z" />
    <glyph glyph-name="bracketright" unicode="]" horiz-adv-x="354" 
d="M235 -152c-16.667 0.666992 -45.334 0.998047 -86.001 0.998047c-39.333 0 -66.333 -0.333008 -81 -1c0.666992 12 1 21 1 27c0 6.66699 -0.333008 14.334 -1 23.001l82 -2c8.66699 0 13 5 13 15c0.666992 84 1 211.333 1 382l-1 358c0 12 -5 18 -15 18
c-15.333 0 -42.666 -0.333008 -81.999 -1c1.33301 8.66699 2 16.334 2 23.001c0 5.33301 -0.666992 14 -2 26c32 -1.33301 60 -2 84 -2s52.333 0.666992 85 2l-2 -427c0 -176 0.666992 -323.333 2 -442z" />
    <glyph glyph-name="asciicircum" unicode="^" horiz-adv-x="555" 
d="M525 325c-8 1.33301 -18.666 2 -31.999 2c-14.667 0 -26.334 -0.666992 -35.001 -2c-56.667 102.667 -111.334 194.667 -164.001 276l-7 17c-3.33301 6 -6.66602 9 -9.99902 9s-6.33301 -3.33301 -9 -10l-8 -17l-162 -275c-9.33301 1.33301 -21 2 -35 2
c-13.333 0 -23.333 -0.666992 -30 -2c80 127.333 150 246.333 210 357c9.33301 -1.33301 21.333 -2 36 -2c14 0 25 0.666992 33 2c55.333 -98.667 126.333 -217.667 213 -357z" />
    <glyph glyph-name="underscore" unicode="_" horiz-adv-x="580" 
d="M565 -130h-550v58h550v-58z" />
    <glyph glyph-name="grave" unicode="`" 
d="M212 578c-5.33301 0.666992 -14.667 1 -28 1c-14 0 -24 -0.333008 -30 -1l-118 143c16.667 1.33301 33.667 2 51 2c18 0 33.667 -0.666992 47 -2z" />
    <glyph glyph-name="a" unicode="a" horiz-adv-x="503" 
d="M437 0l-13 0.00195312c-28.667 0 -50 -1.33301 -64 -4c-2 23.333 -3 45.666 -3 66.999c0 9.33301 -1.33301 14 -4 14c-2 0 -5.33301 -5.33301 -10 -16c-22 -49.333 -65.667 -74 -131 -74c-50.667 0 -89.5 12.667 -116.5 38s-40.5 60.666 -40.5 105.999
c0 70.667 30 118.334 90 143.001c26 10.667 82.333 20 169 28c24.667 2 37 13 37 33v11c0 37.333 -7.83301 63.5 -23.5 78.5s-41.5 22.5 -77.5 22.5c-38 0 -64.667 -5.66699 -80 -17s-23 -29.666 -23 -54.999c0 -3.33301 0.333008 -7.5 1 -12.5s1 -7.83301 1 -8.5
c-11.333 2 -24 3 -38 3c-11.333 0 -23.333 -1 -36 -3c0 1.33301 -0.333008 4.66602 -1 9.99902s-1 8.66602 -1 9.99902c0 47.333 17.667 83.333 53 108c32 22 74 33 126 33c81.333 0 134 -26.667 158 -80c10 -22.667 15 -54.667 15 -96v-100
c-0.666992 -44.667 -1 -74 -1 -88c0 -44 4.33301 -94.333 13 -151zM353 248.002v2.00098c0 2.66699 -1 4 -3 4c0.666992 0 -3 -1 -11 -3c-15.333 -3.33301 -36.333 -6.33301 -63 -9c-15.333 -1.33301 -37 -4 -65 -8c-56 -12.667 -84 -47.334 -84 -104.001
c0 -24 8.5 -42.833 25.5 -56.5s37.833 -20.5 62.5 -20.5c70 0 113 30 129 90c4.66699 18 7 36.333 7 55c0 6 0.333008 14.333 1 25s1 19 1 25z" />
    <glyph glyph-name="b" unicode="b" horiz-adv-x="535" 
d="M478 248c0 -172 -63.332 -258.002 -189.999 -258.002c-40.667 0 -72.667 7.33301 -96 22c-8 4.66699 -16.333 12.334 -25 23.001c-2 2 -5.66699 9.33301 -11 22c-4.66699 10.667 -8.66699 16 -12 16c-4 0 -6 -8.33301 -6 -25c0 -3.33301 0.333008 -10 1 -20v-24v-4
c-8 1.33301 -20.667 2 -38 2c-10 0 -20.667 -0.666992 -32 -2c5.33301 42 8.33301 84.667 9 128c1.33301 97.333 2 200.333 2 309c0 106.667 -0.666992 197.334 -2 272.001c14 -2 27 -3 39 -3c10 0 22 1 36 3l-2 -250c-2 -9.33301 -3 -17 -3 -23s1 -9 3 -9
c1.33301 0 7.33301 9.33301 18 28c13.333 24 34 40.667 62 50c17.333 6 36.666 9 57.999 9c126 0 189 -88.667 189 -266zM400.001 246.998c0 68 -9.99902 118.334 -29.999 151.001s-52.667 49 -98 49c-27.333 0 -51.333 -9.5 -72 -28.5s-35 -43.167 -43 -72.5
c-3.33301 -12.667 -5 -42.334 -5 -89.001c0 -60 6.33301 -104.667 19 -134c19.333 -44.667 55.666 -67 108.999 -67c43.333 0 74.333 16 93 48c18 30 27 77.667 27 143z" />
    <glyph glyph-name="c" unicode="c" horiz-adv-x="465" 
d="M426 334c-12.667 2 -24 3 -34 3c-11.333 0 -26.333 -1.33301 -45 -4l-2 16c-8 66 -39.667 99 -95 99c-76.667 0 -115 -69.333 -115 -208c0 -126 37.333 -189 112 -189c31.333 0 55.833 11.5 73.5 34.5s26.834 54.167 27.501 93.5c14 -4.66699 31 -7 51 -7
c10 0 18.667 0.666992 26 2c-12.667 -125.333 -71.334 -188 -176.001 -188c-129.333 0 -194 85 -194 255c0 88 17.5 155.667 52.5 203s85.5 71 151.5 71c98.667 0 153.667 -54 165 -162z" />
    <glyph glyph-name="d" unicode="d" horiz-adv-x="533" 
d="M470 0l-12 0.000976562c-28.667 0 -50 -1.33301 -64 -4c-0.666992 14.667 -1 39.667 -1 75c0 7.33301 -1.66699 11 -5 11c-2.66699 0 -6 -3.83301 -10 -11.5l-12.5 -23c-4.33301 -7.66699 -10.5 -14.834 -18.5 -21.501c-29.333 -24 -66.333 -36 -111 -36
c-121.333 0 -182 84.667 -182 254c0 78 14 140.333 42 187c32.667 55.333 82.334 83 149.001 83c28.667 0 54.167 -5.66699 76.5 -17s38.166 -28 47.499 -50c6 -13.333 10.667 -20 14 -20c2 0 3 2 3 6c0 -2 -1.33301 9.66699 -4 35c-1.33301 12 -2 24.333 -2 37l-1 204
c10.667 -2 23 -3 37 -3c13.333 0 27 1 41 3c-1.33301 -78.667 -2 -170.667 -2 -276c0 -68.667 0.666992 -168 2 -298c0.666992 -36 5 -81 13 -135zM380 255.001v44.999c0 30 -4.33301 54 -13 72c-24 50 -59.667 75 -107 75c-46.667 0 -80 -17.333 -100 -52
c-18.667 -31.333 -28 -81 -28 -149c0 -64.667 9.66699 -112.5 29 -143.5s50.666 -46.5 93.999 -46.5c32.667 0 60.667 11.667 84 35c20.667 20.667 33.334 46.334 38.001 77.001c2 11.333 3 40.333 3 87z" />
    <glyph glyph-name="e" unicode="e" horiz-adv-x="493" 
d="M446 143c-16.667 -104.667 -79.332 -157 -187.999 -157c-136 0 -204 83.333 -204 250c0 86.667 18.5 155 55.5 205s87.5 75 151.5 75c57.333 0 102 -21 134 -63s48 -104.333 48 -187c0 -4 -0.333008 -13.667 -1 -29c-39.333 2.66699 -93 4 -161 4h-132
c-8 0 -13 -1.16699 -15 -3.5s-3 -6.83301 -3 -13.5v-7c0 -52 11.5 -92.5 34.5 -121.5s55.167 -43.5 96.5 -43.5c63.333 0 101 31 113 93c20 -2.66699 36.333 -4 49 -4c7.33301 0 14.666 0.666992 21.999 2zM362.002 327c0 5.33301 -0.332031 10.333 -0.999023 15
c-10 72 -45.667 108 -107 108c-31.333 0 -57.833 -12 -79.5 -36s-35.834 -55.667 -42.501 -95c-0.666992 -4 -1 -7.66699 -1 -11c0 -8.66699 7.33301 -13 22 -13c32.667 -0.666992 54.334 -1 65.001 -1c40 0 80 1.33301 120 4c11.333 0.666992 18.166 2.5 20.499 5.5
s3.5 10.833 3.5 23.5z" />
    <glyph glyph-name="f" unicode="f" horiz-adv-x="298" 
d="M283 663c0 -13.333 -0.999023 -24.666 -2.99902 -33.999c-16.667 6.66699 -32.334 10 -47.001 10c-22 0 -37.333 -9.33301 -46 -28c-5.33301 -12 -8.33301 -32.333 -9 -61c0 -3.33301 -0.333008 -9 -1 -17s-1 -14 -1 -18c0 -7.33301 0.833008 -12 2.5 -14
s6.16699 -3 13.5 -3c42 0 71.667 0.666992 89 2c-0.666992 -6 -1 -17 -1 -33c0 -16.667 0.333008 -28 1 -34c-34.667 1.33301 -65.667 2 -93 2c-8 0 -12 -4 -12 -12c0 -126.667 0.666992 -267.667 2 -423c-15.333 2.66699 -28 4 -38 4c-9.33301 0 -22 -1.33301 -38 -4
c1.33301 117.333 2 258.666 2 423.999c0 7.33301 -4.33301 11 -13 11c-12.667 0 -37 -0.666992 -73 -2c1.33301 8.66699 2 20 2 34c0 14.667 -0.666992 25.667 -2 33c24 -1.33301 47.667 -2 71 -2c9.33301 0 14 5.66699 14 17c0 6 -0.333008 13.5 -1 22.5s-1 14.5 -1 16.5
c0 53.333 11.167 92.833 33.5 118.5s52.833 38.5 91.5 38.5c18 0 36 -3 54 -9c2 -14 3 -27 3 -39z" />
    <glyph glyph-name="g" unicode="g" horiz-adv-x="534" 
d="M465 504c-9.33301 -98.667 -13.999 -185.665 -13.999 -260.998c0 -28.667 0.333008 -72.167 1 -130.5s1 -101.5 1 -129.5c0 -120.667 -66.667 -181 -200 -181c-114 0 -171 42.667 -171 128c11.333 -1.33301 25.666 -2 42.999 -2c16 0 28.333 0.666992 37 2
c0 -44.667 32 -67 96 -67c36 0 65.167 10.5 87.5 31.5s33.5 49.833 33.5 86.5v33c0 15.333 1 28.666 3 39.999s3 17.666 3 18.999c0 6 -1.66699 9 -5 9c-0.666992 0 -10.667 -13.667 -30 -41c-22 -30.667 -55.667 -46 -101 -46c-62 0 -110 21.667 -144 65s-51 107 -51 191
c0 83.333 16.5 147.5 49.5 192.5s80.167 67.5 141.5 67.5c56 0 96.667 -21.333 122 -64c2.66699 -5.33301 5 -10.333 7 -15c3.33301 -6.66699 7.33301 -10 12 -10c5.33301 0 8 27.333 8 82c8 -2.66699 19.333 -4 34 -4s27 1.33301 37 4zM377.001 254.002
c0 45.333 -2.66699 77.002 -8 95.002c-19.333 64.667 -57.333 97 -114 97c-82.667 0 -124 -63 -124 -189c0 -72.667 10.667 -124.334 32 -155.001c20 -28 52 -42 96 -42c56 0 93.333 31.333 112 94c4 13.333 6 46.666 6 99.999z" />
    <glyph glyph-name="h" unicode="h" horiz-adv-x="523" 
d="M445 0c-10.667 2.66699 -24.001 4.00195 -40.001 4.00195c-15.333 0 -28.666 -1.33301 -39.999 -4c0.666992 42 2 107.667 4 197l1 76c0 17.333 -0.333008 33.333 -1 48c-2 41.333 -7.33301 70.666 -16 87.999c-12.667 26 -36 39 -70 39
c-38.667 0 -69.667 -16.333 -93 -49s-35 -76 -35 -130c0 -32.667 0.666992 -122.334 2 -269.001c-9.33301 2.66699 -22.333 4 -39 4c-12 0 -24.667 -1.33301 -38 -4c2 90 3 198.667 3 326c0 126 -1 253.667 -3 383c12.667 -2.66699 25 -4 37 -4
c11.333 0 24.666 1.33301 39.999 4l-1 -209c0 -17.333 -1 -32.333 -3 -45c-2.66699 -18 -4 -31 -4 -39c0 -9.33301 1.33301 -14 4 -14c1.33301 0 5.33301 7.66699 12 23c10 23.333 26 43.333 48 60c26.667 20 57.334 30 92.001 30c66.667 0 109.667 -28.667 129 -86
c7.33301 -22 11 -47.667 11 -77v-77c-0.666992 -34.667 -1 -60.667 -1 -78c0 -77.333 0.333008 -143 1 -197z" />
    <glyph glyph-name="i" unicode="i" 
d="M163 612c-10 2 -22.332 3 -36.999 3c-16 0 -30 -1 -42 -3c2 18 3 35.333 3 52s-1 31.667 -3 45c11.333 -1.33301 25.666 -2 42.999 -2c16 0 28 0.666992 36 2c-1.33301 -10.667 -2 -27 -2 -49c0 -20.667 0.666992 -36.667 2 -48zM163.001 0
c-13.333 2.66699 -26.666 4.00098 -39.999 4.00098c-16.667 0 -29.667 -1.33301 -39 -4c2 70 3 149.667 3 239c0 87.333 -1 174.333 -3 261c9.33301 -2.66699 22.666 -4 39.999 -4c13.333 0 26.333 1.33301 39 4c-1.33301 -56.667 -2 -142.334 -2 -257.001
c0 -113.333 0.666992 -194.333 2 -243z" />
    <glyph glyph-name="j" unicode="j" 
d="M163 612c-10 2 -22.332 2.99902 -36.999 2.99902c-16 0 -30 -1 -42 -3c1.33301 12 2 29.333 2 52c0 20.667 -0.666992 35.667 -2 45c11.333 -1.33301 25.666 -2 42.999 -2c16 0 28 0.666992 36 2c-1.33301 -10.667 -2 -26.667 -2 -48s0.666992 -37.666 2 -48.999z
M163.001 -16.001c0 -56 -10.334 -98 -31.001 -126c-24.667 -33.333 -65.667 -50 -123 -50c-17.333 0 -36.333 2.66699 -57 8c1.33301 10 2 22 2 36s-0.666992 25.667 -2 35c19.333 -4.66699 37 -7 53 -7c36.667 0 60.334 10.667 71.001 32c6 12 9.33301 38.667 10 80
c0.666992 28.667 1 73.667 1 135c0 60.667 -1 185 -3 373c12.667 -2.66699 26 -4 40 -4c12 0 25 1.33301 39 4c-0.666992 -23.333 -1 -60 -1 -110v-98c0 -34 0.333008 -85 1 -153v-147v-8z" />
    <glyph glyph-name="k" unicode="k" horiz-adv-x="491" 
d="M478 0c-24 2.66699 -42.3311 4 -54.998 4c-20 0 -34 -1.33301 -42 -4l-151 213c-7.33301 10.667 -13.333 16 -18 16c-3.33301 0 -7.66602 -2 -12.999 -6c-24.667 -17.333 -37 -36.333 -37 -57v-49l1 -117c-10 2.66699 -21.333 4 -34 4c-16.667 0 -31.667 -1.33301 -45 -4
c1.33301 88 2 212.333 2 373c0 161.333 -0.666992 273.333 -2 336c12.667 -2.66699 27 -4 43 -4c11.333 0 23.333 1.33301 36 4c-0.666992 -101.333 -1.33398 -228.333 -2.00098 -381c0 -8 -0.333008 -20.333 -1 -37c-2 -26.667 -3 -37 -3 -31c0 -6 1 -9 3 -9
c0.666992 0 6.66699 7.33301 18 22c7.33301 10 16.666 21 27.999 33c50 55.333 104.667 120 164 194c8 -3.33301 21 -5 39 -5c11.333 0 28.666 1.66699 51.999 5l-8 -9l-146 -163c-2.66699 -2.66699 -14.667 -14 -36 -34c-4 -4 -6 -7.66699 -6 -11c0 -4.66699 2 -9 6 -13
c6.66699 -6.66699 18 -19.667 34 -39z" />
    <glyph glyph-name="l" unicode="l" 
d="M164 0c-12 2.66699 -24.334 4 -37.001 4c-15.333 0 -29.666 -1.33301 -42.999 -4c1.33301 84.667 2 202 2 352c0 126 -0.666992 245 -2 357c12.667 -2.66699 27 -4 43 -4c12 0 24.333 1.33301 37 4c-1.33301 -114.667 -2 -233.667 -2 -357
c0 -154.667 0.666992 -272 2 -352z" />
    <glyph glyph-name="m" unicode="m" horiz-adv-x="800" 
d="M723 311l-0.000976562 -52c-0.666992 -20.667 -1 -33 -1 -37v-222c-16 2.66699 -28.667 4 -38 4c-6 0 -19.667 -1.33301 -41 -4c3.33301 79.333 5 153.333 5 222v103c0 82.667 -28 124 -84 124c-42.667 0 -75 -16.667 -97 -50c-18.667 -28.667 -28 -65.334 -28 -110.001
v-67l2 -222c-14 2.66699 -26.333 4 -37 4c-14 0 -27.667 -1.33301 -41 -4c1.33301 65.333 2 137.333 2 216c0 49.333 -0.333008 91.666 -1 126.999c-1.33301 70.667 -29 106 -83 106c-41.333 0 -73.333 -18 -96 -54c-18.667 -30.667 -28 -68 -28 -112v-71
c0 -96 0.333008 -166.667 1 -212c-13.333 2.66699 -25.666 4 -36.999 4c-8.66699 0 -22.334 -1.33301 -41.001 -4c0.666992 30 1 69.667 1 119v112c0 59.333 -0.333008 106.666 -1 141.999c-0.666992 46.667 -3.66699 89 -9 127c20 -2.66699 34.333 -4 43 -4
c10.667 0 22.667 1.33301 36 4c1.33301 -9.33301 2 -22.333 2 -39c0 -5.33301 -0.333008 -13.166 -1 -23.499s-1 -18.166 -1 -23.499c0 -6 0.666992 -9 2 -9c2.66699 0 5.66699 5 9 15c12 34.667 30.667 59.667 56 75c22 13.333 49 20 81 20c37.333 0 67 -9 89 -27
c18.667 -15.333 30.667 -38 36 -68c1.33301 -9.33301 3 -14 5 -14c1.33301 0 4 6 8 18c8 25.333 22.667 46.333 44 63c24.667 18.667 56.334 28 95.001 28c92 0 141 -51.667 147 -155c0.666992 -11.333 1 -27.666 1 -48.999z" />
    <glyph glyph-name="n" unicode="n" horiz-adv-x="531" 
d="M453 0c-10.667 2.66699 -23.0029 4 -37.0029 4s-27.667 -1.33301 -41 -4c1.33301 46 2 103.333 2 172c0 44.667 -0.333008 96.334 -1 155.001c-0.666992 38 -5.66699 66 -15 84c-13.333 26 -37.666 39 -72.999 39c-32 0 -59 -10.667 -81 -32
c-34 -32.667 -51 -80.667 -51 -144v-37c0.666992 -20 1 -35 1 -45l1 -192c-18 2.66699 -32 4 -42 4c-10.667 0 -22.667 -1.33301 -36 -4c0.666992 42 1 95.667 1 161v104c0 64.667 -1 115.667 -3 153s-4.33301 64.666 -7 81.999c12.667 -2.66699 25.334 -4 38.001 -4
s26 1.33301 40 4c1.33301 -8 2 -17.333 2 -28c0 -7.33301 -0.5 -18.166 -1.5 -32.499s-1.5 -25.5 -1.5 -33.5c0 -5.33301 0.666992 -8 2 -8c2 0 4.66699 4 8 12l7.5 17c2.33301 5.33301 6.5 12.666 12.5 21.999c30.667 42 73 63 127 63
c48.667 0 85.334 -14.833 110.001 -44.5s37 -70.167 37 -121.5v-123c0 -108 0.333008 -182.333 1 -223z" />
    <glyph glyph-name="o" unicode="o" horiz-adv-x="512" 
d="M462 250c0 -86 -17.833 -151.667 -53.5 -197s-85.834 -68 -150.501 -68s-114.834 22.667 -150.501 68s-53.5 111 -53.5 197s17.833 151.667 53.5 197s85.834 68 150.501 68s114.834 -22.667 150.501 -68s53.5 -111 53.5 -197zM384 250c0 132 -42 198 -126 198
s-126 -66 -126 -198s42 -198 126 -198s126 66 126 198z" />
    <glyph glyph-name="p" unicode="p" horiz-adv-x="537" 
d="M483 258c0 -78 -13.9971 -140.667 -41.9971 -188c-33.333 -56.667 -83.333 -85 -150 -85c-62 0 -103 23.667 -123 71c-6 14 -10.667 21 -14 21c-2 0 -3 -2 -3 -6c0 -8 0.833008 -20 2.5 -36s2.5 -28 2.5 -36l1 -188c-10 2.66699 -22 4 -36 4
c-16.667 0 -31.334 -1.33301 -44.001 -4c1.33301 78.667 2 163.667 2 255c0 68.667 -0.666992 168 -2 298c-0.666992 36 -5 81 -13 135c8.66699 -0.666992 16.667 -1 24 -1c19.333 0 37.666 1.66699 54.999 5c0.666992 -14.667 1 -39.667 1 -75
c0 -7.33301 1.66699 -11 5 -11s6.66602 3.66699 9.99902 11c28.667 58 75.667 87 141 87c122 0 183 -85.667 183 -257zM405.003 256c0 128.667 -41.334 193.001 -124.001 193.001c-28 0 -55.667 -13.667 -83 -41c-23.333 -24 -36.666 -57.333 -39.999 -100
c-1.33301 -18.667 -2 -46.334 -2 -83.001c0 -31.333 0.666992 -53 2 -65c3.33301 -30 16.5 -55.5 39.5 -76.5s49.5 -31.5 79.5 -31.5c46.667 0 80 17.667 100 53c18.667 32.667 28 83 28 151z" />
    <glyph glyph-name="q" unicode="q" horiz-adv-x="537" 
d="M463 500c-0.666992 -7.33301 -1.66504 -48.332 -2.99805 -122.999c-1.33301 -97.333 -2 -200.333 -2 -309c0 -96.667 0.666992 -182.334 2 -257.001c-15.333 3.33301 -30 5 -44 5c-11.333 0 -23.333 -1.66699 -36 -5l3 235c1.33301 10.667 2 18.334 2 23.001
c0 6 -1 9 -3 9c-1.33301 0 -7.33301 -9.33301 -18 -28c-22 -39.333 -62 -59 -120 -59c-126 0 -189 88.667 -189 266c0 172 63.333 258 190 258c40.667 0 72.667 -7.33301 96 -22c8 -4.66699 16.333 -12.334 25 -23.001c2 -2 6.33301 -11 13 -27
c5.33301 -13.333 9.66602 -20 12.999 -20c2.66699 0 5 6 7 18c0.666992 9.33301 1.5 18.333 2.5 27s1.5 15.667 1.5 21v11c8 -1.33301 18.667 -2 32 -2c7.33301 0 16.666 0.666992 27.999 2zM381.002 245.001c0 49.333 -2.33301 83.666 -7 102.999
c-16 67.333 -56.333 101 -121 101c-43.333 0 -74.166 -15.5 -92.499 -46.5s-27.5 -79.167 -27.5 -144.5c0 -68 10 -118.333 30 -151s52.667 -49 98 -49c28.667 0 53.167 8.83301 73.5 26.5s34.166 40.5 41.499 68.5c3.33301 12.667 5 43.334 5 92.001z" />
    <glyph glyph-name="r" unicode="r" horiz-adv-x="328" 
d="M307 472c0 -20 -0.667969 -34.667 -2.00098 -44c-7.33301 2 -14.666 3 -21.999 3c-45.333 0 -78.666 -22.333 -99.999 -67c-16.667 -33.333 -25 -75.333 -25 -126c0 -94 0.333008 -173.333 1 -238c-10.667 2.66699 -24.334 4 -41.001 4c-14 0 -26.333 -1.33301 -37 -4
c1.33301 45.333 2 126.333 2 243c0 6.66699 0.333008 21 1 43v44c0 22.667 -0.666992 48 -2 76c-2 41.333 -5 72.666 -9 93.999c12 -2.66699 24.667 -4 38 -4c15.333 0 27.333 1.33301 36 4c3.33301 -13.333 5 -31 5 -53v-19c-0.666992 -8.66699 -1 -15 -1 -19
c0 -6.66699 1 -10 3 -10c1.33301 0 4.33301 4.66699 9 14c8 16.667 14 28.667 18 36c8 12.667 17 23.334 27 32.001c25.333 22 54 33 86 33l11 -1c1.33301 -7.33301 2 -21 2 -41z" />
    <glyph glyph-name="s" unicode="s" horiz-adv-x="454" 
d="M406 145c0 -46.667 -16.834 -84.834 -50.501 -114.501s-78.5 -44.5 -134.5 -44.5c-118.667 0 -178 53.667 -178 161v9c11.333 -2 23.333 -3 36 -3c12 0 23.667 1 35 3v-7c0 -37.333 10.333 -63.666 31 -78.999c18 -12.667 45.333 -19 82 -19c32 0 57.833 7.33301 77.5 22
s29.5 35 29.5 61c0 35.333 -24.333 60.666 -73 75.999l-134 41c-47.333 23.333 -71 63 -71 119c0 41.333 16 75.833 48 103.5s72.667 41.5 122 41.5c58 0 101.667 -17.667 131 -53c14 -17.333 23.333 -40.333 28 -69c1.33301 -8.66699 2 -20 2 -34
c-10 1.33301 -19.667 2 -29 2c-13.333 0 -26.666 -1 -39.999 -3c0 8.66699 -0.666992 16.334 -2 23.001c-8.66699 44.667 -40 67 -94 67c-62 0 -93 -23.667 -93 -71c0 -36 24 -61.667 72 -77l133 -39c48 -23.333 72 -62 72 -116z" />
    <glyph glyph-name="t" unicode="t" horiz-adv-x="307" 
d="M289 31c0 -10 -0.668945 -20.333 -2.00195 -31c-30 -8.66699 -56.333 -13 -79 -13c-44 0 -75.667 9.66699 -95 29c-21.333 20.667 -32 55 -32 103v9c0 13.333 0.333008 39.666 1 78.999v93v39c0 19.333 0.333008 37.333 1 54c0 4.66699 0.333008 10.5 1 17.5
s1 11.5 1 13.5c0 7.33301 -4 11 -12 11c-1.33301 0 -5.33301 -0.333008 -12 -1s-18 -1 -34 -1c0.666992 6.66699 1 12.667 1 18c0 4.66699 -0.333008 11 -1 19c32.667 18.667 58.334 66 77.001 142c6 1.33301 13.667 2 23 2c10.667 0 21.334 -0.666992 32.001 -2
c-1.33301 -67.333 -2 -103 -2 -107c0 -4.66699 2.33301 -7 7 -7h8c4 0 40 0.666992 108 2c-0.666992 -7.33301 -1 -18.333 -1 -33c0 -15.333 0.333008 -26.666 1 -33.999c-79.333 1.33301 -113.666 2 -102.999 2c-13.333 0 -20 -7.66699 -20 -23
c-0.666992 -47.333 -1 -91.333 -1 -132c0 -64 0.333008 -110.667 1 -140c0.666992 -34 4.66699 -56 12 -66c9.33301 -13.333 29.666 -20 60.999 -20c14.667 0 33.667 3.66699 57 11c1.33301 -12 2 -23.333 2 -34z" />
    <glyph glyph-name="u" unicode="u" horiz-adv-x="533" 
d="M461 2c-12.667 2.66699 -25.333 4.00098 -38 4.00098s-26 -1.33301 -40 -4c-2 12 -3 26 -3 42c0 6 0.666992 14.667 2 26s2 20 2 26c0 5.33301 -1 8 -3 8c-3.33301 -8 -8 -17.5 -14 -28.5s-16.333 -26.167 -31 -45.5c-28 -26.667 -64.333 -40 -109 -40
c-48.667 0 -85.667 15.667 -111 47c-24.667 29.333 -37 70.333 -37 123v119c0 107.333 -0.333008 181.666 -1 222.999c12.667 -2.66699 26 -4 40 -4s27 1.33301 39 4c-1.33301 -46 -2 -120.333 -2 -223v-104c0 -45.333 7.33301 -77.166 22 -95.499s37 -27.5 67 -27.5
c44 0 78 19.333 102 58c20 32 30 71.333 30 118c0 23.333 -0.333008 68.333 -1 135c-0.666992 76.667 -1 123 -1 139c14.667 -2.66699 28 -4 40 -4s24.667 1.33301 38 4c-0.666992 -42 -1 -97 -1 -165c0 -68.667 0.333008 -125.334 1 -170.001
c1.33301 -80 4.33301 -135 9 -165z" />
    <glyph glyph-name="v" unicode="v" horiz-adv-x="461" 
d="M446 500l-168.002 -500c-12 2 -27.667 3 -47 3c-20 0 -35 -1 -45 -3l-171 500c20.667 -2 38.334 -3 53.001 -3s25.667 1 33 3l114 -365l13 -57c1.33301 -6 3.33301 -9 6 -9s4.66699 3 6 9c4 23.333 8.33301 42 13 56c12.667 40 49.334 162 110.001 366
c8 -2.66699 18.667 -4 32 -4c14 0 31 1.33301 51 4z" />
    <glyph glyph-name="w" unicode="w" horiz-adv-x="694" 
d="M679 500l-126.001 -500c-10.667 3.33301 -28.667 5 -54 5c-16 0 -32 -1.66699 -48 -5l-72 268c-11.333 42.667 -19.333 82.334 -24 119.001l-2 27.5c-0.666992 9 -2.66699 13.5 -6 13.5s-6.66602 -13.667 -9.99902 -41c-4 -34.667 -12 -74 -24 -118
c-16 -56 -40.333 -145.667 -73 -269c-11.333 3.33301 -26 5 -44 5c-22 0 -40.667 -1.66699 -56 -5l-125 500c20 -2 35.667 -3 47 -3c12 0 23.333 1 34 3c28 -130.667 53 -241.667 75 -333c2.66699 -20 8 -49.333 16 -88c1.33301 -6.66699 4 -10 8 -10
c3.33301 0 5.66602 3.33301 6.99902 10c4 21.333 10 50.666 18 87.999c18 64.667 42.333 158 73 280l12 53c10 -2.66699 25 -4 45 -4c22.667 0 37.667 1.33301 45 4l12 -53c14.667 -65.333 38 -158.333 70 -279c4 -20 10.333 -49.667 19 -89c2 -6.66699 4.66699 -10 8 -10
c2.66699 0 4.66699 3.33301 6 10c2.66699 20 7.33398 49.667 14.001 89l77 332c6 -2 16.333 -3 31 -3c15.333 0 31 1 47 3z" />
    <glyph glyph-name="x" unicode="x" horiz-adv-x="429" 
d="M414 0c-16 2.66699 -31.665 3.99902 -46.998 3.99902c-14.667 0 -30.667 -1.33301 -48 -4l-81 155c-4.66699 8.66699 -11 22.334 -19 41.001c-5.33301 12 -8.33301 18 -9 18c0.666992 0 -2.33301 -6 -9 -18c-3.33301 -8.66699 -9 -21.334 -17 -38.001l-84 -158
c-8 2.66699 -20.333 4 -37 4c-9.33301 0 -25.333 -1.33301 -48 -4l140 241c5.33301 9.33301 8 16 8 20c0 8.66699 -1.33301 15.334 -4 20.001l-130 219c16.667 -2.66699 31.667 -4 45 -4s28.333 1.33301 45 4c0 -0.666992 23 -44.667 69 -132
c7.33301 -14 13.666 -28 18.999 -42c4 -10 7.33301 -15 10 -15c2 0 5 5 9 15c9.33301 21.333 16.666 37 21.999 47l65 127c10.667 -2.66699 21.667 -4 33 -4s28.333 1.33301 51 4l-126 -213c-6 -10.667 -9 -17.667 -9 -21c0 -6 2.66699 -13.667 8 -23z" />
    <glyph glyph-name="y" unicode="y" horiz-adv-x="452" 
d="M437 500l-161.999 -500c-21.333 -66.667 -39 -111 -53 -133c-27.333 -43.333 -64.333 -65 -111 -65c-22.667 0 -44.334 2.33301 -65.001 7c2 9.33301 3 19 3 29c0 2.66699 -1 17 -3 43c22 -6.66699 41.333 -10 58 -10c24.667 0 45.334 9.33301 62.001 28s25 41.667 25 69
c0 20 -4.33301 43.333 -13 70l-24 66l-139 396c20.667 -2 37 -3 49 -3c17.333 0 29.666 1 36.999 3l113 -363l13 -57c1.33301 -6 3.33301 -9 6 -9s4.66699 3 6 9c5.33301 28 9.33301 46.667 12 56c16 48.667 33.667 109.667 53 183c24 88.667 40.667 149 50 181
c8 -2.66699 20.333 -4 37 -4c10.667 0 26 1.33301 46 4z" />
    <glyph glyph-name="z" unicode="z" horiz-adv-x="410" 
d="M375 0c-90 2 -165.998 3 -227.998 3c-58 0 -95.333 -1 -112 -3c1.33301 8.66699 2 19 2 31s-0.666992 22.667 -2 32l210 328c2.66699 4.66699 9 12.334 19 23.001c8 8.66699 12 14 12 16c0 2.66699 -3.33301 4 -10 4c-2.66699 0 -6.83398 -0.333008 -12.501 -1
s-9.5 -1 -11.5 -1h-48c-12.667 0 -59.334 -1.33301 -140.001 -4c2 10.667 3 23.667 3 39c0 11.333 -1 22.333 -3 33c71.333 -2.66699 137.333 -4 198 -4c54.667 0 92.667 1.33301 114 4c0.666992 -6.66699 1 -16 1 -28c0 -12.667 -0.333008 -22.667 -1 -30l-213 -331
c-6 -9.33301 -13 -18.333 -21 -27c-5.33301 -6 -8 -10.333 -8 -13c0 -2 2 -3 6 -3h19c13.333 0.666992 23 1 29 1c79.333 0.666992 145 1.66699 197 3c-1.33301 -16 -2 -29.333 -2 -40c0 -8.66699 0.666992 -19.334 2 -32.001z" />
    <glyph glyph-name="braceleft" unicode="{" horiz-adv-x="327" 
d="M271 -151l-17.9971 0.00488281c-42.667 0 -73.334 9 -92.001 27c-22 20.667 -33 55.667 -33 105c0 8.66699 1.33301 36.167 4 82.5s4 73.833 4 82.5c0 36 -4 62.667 -12 80c-11.333 26 -32 41 -62 45c1.33301 6 2 12.667 2 20c0 8 -0.666992 15 -2 21
c49.333 6 74 46.667 74 122c0 8 -1.5 33.333 -4.5 76s-4.5 67.667 -4.5 75c0 50 10.167 84.833 30.5 104.5s58.166 29.5 113.499 29.5c-1.33301 -5.33301 -2 -11.333 -2 -18c0 -7.33301 0.666992 -13.333 2 -18c-30.667 -0.666992 -51 -9.33398 -61 -26.001
c-8 -12.667 -12 -35.334 -12 -68.001c0 -8 1.33301 -33.333 4 -76s4 -68 4 -76c0 -60 -16 -102 -48 -126c-2.66699 -2 -11.334 -4.66699 -26.001 -8c-11.333 -2.66699 -17 -6.66699 -17 -12c0 -6 5.66699 -10.333 17 -13c15.333 -4 24 -6.66699 26 -8
c32 -21.333 48 -65 48 -131c0 -8 -1.33301 -34.833 -4 -80.5s-4 -72.5 -4 -80.5c0 -31.333 4 -53.333 12 -66c10 -16.667 30.333 -25.334 61 -26.001c-2 -6.66699 -3 -13.334 -3 -20.001s1 -12.334 3 -17.001z" />
    <glyph glyph-name="bar" unicode="|" horiz-adv-x="235" 
d="M148 -129c-6.66699 1.33301 -16.332 2 -28.999 2s-23.334 -0.666992 -32.001 -2c2 124.667 3 262.667 3 414c0 148.667 -1 295 -3 439c13.333 -1.33301 24 -2 32 -2c10 0 19.667 0.666992 29 2l-2 -439c0 -165.333 0.666992 -303.333 2 -414z" />
    <glyph glyph-name="braceright" unicode="}" horiz-adv-x="327" 
d="M265 256c-49.333 -6 -74 -46.667 -74 -122c0 -8 1.5 -33.333 4.5 -76s4.5 -67.667 4.5 -75c0 -50 -10.333 -84.833 -31 -104.5s-58.667 -29.5 -114 -29.5c2 8 3 14 3 18c0 4.66699 -1 10.667 -3 18c31.333 0.666992 52.333 9.66699 63 27c7.33301 12.667 11 35 11 67
c0 8 -1.33301 33.333 -4 76s-4 68 -4 76c0 60 16 102 48 126c2.66699 2 11.334 4.66699 26.001 8c11.333 2.66699 17 6.66699 17 12c0 6 -5.66699 10.333 -17 13c-15.333 4 -24 6.66699 -26 8c-32 21.333 -48 65 -48 131c0 8 1.33301 34.833 4 80.5s4 72.5 4 80.5
c0 31.333 -4 53.333 -12 66c-10.667 16.667 -31.334 25.334 -62.001 26.001c2.66699 8.66699 4 15 4 19c0 6 -1.33301 12 -4 18h18c42.667 0 73.667 -9 93 -27c22 -20.667 33 -55.667 33 -105c0 -8.66699 -1.5 -36.167 -4.5 -82.5s-4.5 -73.833 -4.5 -82.5
c0 -76.667 25 -118.334 75 -125.001c-2 -8.66699 -3 -15.667 -3 -21c0 -4 1 -10.667 3 -20z" />
    <glyph glyph-name="asciitilde" unicode="~" horiz-adv-x="653" 
d="M585 581c-6 -44.667 -21.3369 -79.668 -46.0039 -105.001s-56.667 -38 -96 -38c-31.333 0 -74.666 15.333 -129.999 46s-93.666 46 -114.999 46c-40 0 -69 -27.667 -87 -83c-4.66699 1.33301 -10 2 -16 2c2 0 -7 -0.666992 -27 -2
c6.66699 44.667 21.834 79.834 45.501 105.501s54.5 38.5 92.5 38.5c30 0 72.833 -16 128.5 -48s94.834 -48 117.501 -48c42 0 71.667 28.667 89 86c8 -2 14.667 -3 20 -3c4 0 12 1 24 3z" />
    <glyph glyph-name="nonbreakingspace" unicode="&#xa0;" horiz-adv-x="903" 
 />
    <glyph glyph-name="exclamdown" unicode="&#xa1;" horiz-adv-x="331" 
d="M208 429c-14 1.33301 -27.332 2 -39.999 2s-28.334 -0.666992 -47.001 -2c1.33301 14 2 30.333 2 49c0 18 -0.666992 32.333 -2 43c14 -3.33301 28 -5 42 -5c11.333 0 26.333 1.66699 45 5c-0.666992 -6.66699 -1 -22 -1 -46c0 -24.667 0.333008 -40 1 -46zM213.001 -176
c-16 2.66699 -32.666 4 -49.999 4s-32.333 -1.33301 -45 -4c0 38 3 125.333 9 262c5.33301 133.333 9.66602 220.666 12.999 261.999c7.33301 -1.33301 15 -2 23 -2c6 0 15 0.666992 27 2c3.33301 -43.333 8 -130.666 14 -261.999c6 -136.667 9 -224 9 -262z" />
    <glyph glyph-name="cent" unicode="&#xa2;" horiz-adv-x="473" 
d="M436 228c-2 -40.667 -12.665 -76.3311 -31.998 -106.998c-21.333 -34 -50.333 -56.333 -87 -67c-10.667 -3.33301 -17.334 -6.33301 -20.001 -9c-4.66699 -4.66699 -7 -13.334 -7 -26.001c0 2.66699 0.666992 -20 2 -68c-8 2.66699 -18.667 4 -32 4
s-25.666 -1.33301 -36.999 -4c1.33301 36 2 59.667 2 71c0 16.667 -7.33301 26.667 -22 30c-98.667 20 -148 96.667 -148 230c0 61.333 10.667 113 32 155c26 50.667 66 81.667 120 93c12.667 2.66699 19 10 19 22c0 12.667 -0.666992 34.667 -2 66
c10.667 -2.66699 22.334 -4 35.001 -4c13.333 0 24.666 1.33301 33.999 4c-1.33301 -30.667 -2 -53.334 -2 -68.001c0 -12.667 5.66699 -20 17 -22c81.333 -15.333 122.666 -69.666 123.999 -162.999c-6 1.33301 -15 2 -27 2c-21.333 0 -38 -1 -50 -3
c0 5.33301 -0.333008 12.666 -1 21.999c-5.33301 57.333 -36 86 -92 86c-86 0 -129 -61.667 -129 -185c0 -118.667 40.333 -178 121 -178c67.333 0 102.666 39.667 105.999 119c14.667 -2.66699 29.667 -4 45 -4c10 0 20.333 1.33301 31 4z" />
    <glyph glyph-name="sterling" unicode="&#xa3;" horiz-adv-x="546" 
d="M520 158c-2.66699 -60 -17.6641 -103.831 -44.9971 -131.498s-71.333 -41.5 -132 -41.5c-28.667 0 -66.667 6.83301 -114 20.5s-82 20.5 -104 20.5c-18.667 0 -30 -9.66699 -34 -29c-14 3.33301 -27.333 5 -40 5c-8 0 -17.333 -0.666992 -28 -2c2 40 17.667 67.333 47 82
l49.5 18.5c16.333 6.33301 31.166 17.166 44.499 32.499c16 19.333 24 41.333 24 66c0 16 -5 47.333 -15 94c-2 9.33301 -3.83301 15 -5.5 17s-6.5 3 -14.5 3c-6.66699 0 -38.334 -0.666992 -95.001 -2c2 10 3 20 3 30c0 12.667 -1 24.667 -3 36
c5.33301 0 20 -0.666992 44 -2c18 -1.33301 32.333 -2 43 -2c5.33301 0 8 2 8 6l-3 10c-12.667 42.667 -19 81.667 -19 117c0 60.667 16.833 108.5 50.5 143.5s82.5 52.5 146.5 52.5c114.667 0 172 -54.667 172 -164c-12 2.66699 -24.333 4 -37 4
c-12 0 -24.333 -1.33301 -37 -4c-1.33301 34 -9 59.167 -23 75.5s-38.333 24.5 -73 24.5c-84 0 -126 -41.667 -126 -125c0 -28.667 5 -67.334 15 -116.001c3.33301 -16 8.66602 -24 15.999 -24c18 0 41 0.666992 69 2c38 1.33301 61.333 2 70 2
c-2 -10.667 -3 -22.334 -3 -35.001c0 -10 1 -20 3 -30c-76.667 2 -119.667 3 -129 3c-3.33301 0 -5 -1.33301 -5 -4c0 1.33301 1 -2 3 -10c7.33301 -30 11 -58.667 11 -86c0 -55.333 -16.667 -94.666 -50 -117.999c-9.33301 -6.66699 -14 -11.667 -14 -15
c0 -4 4.66699 -6 14 -6h9c11.333 0 24.666 -0.666992 39.999 -2c9.33301 -0.666992 26.333 -3.66699 51 -9c20.667 -4 37.667 -6 51 -6c34 0 58.333 8.66699 73 26c12 14 19 38.333 21 73c12 -2.66699 24 -4 36 -4c12.667 0 24.334 1.33301 35.001 4z" />
    <glyph glyph-name="currency" unicode="&#xa4;" horiz-adv-x="537" 
d="M500 162l-52 -48.002l-105 100c-22 -12.667 -47.333 -19 -76 -19c-28 0 -52.667 6 -74 18l-104 -98l-52 48l107 102c-10.667 20.667 -16 43 -16 67c0 26 5.33301 49 16 69l-107 102l52 48l106 -100c20.667 11.333 44.667 17 72 17s52 -6 74 -18l106 97l53 -48l-109 -100
c11.333 -21.333 17 -43.666 17 -66.999s-5.66699 -45.666 -17 -66.999zM349 331.998c0 23.333 -6.66699 42.668 -20 58.001c-15.333 17.333 -36 26 -62 26c-25.333 0 -45.166 -8.33301 -59.499 -25s-21.5 -36.334 -21.5 -59.001c0 -23.333 6.66699 -42.666 20 -57.999
c15.333 -18 35.666 -27 60.999 -27c26 0 46.667 9 62 27c13.333 15.333 20 34.666 20 57.999z" />
    <glyph glyph-name="yen" unicode="&#xa5;" horiz-adv-x="531" 
d="M506 678c-68 -120 -118.333 -212.333 -151 -277c-10.667 -20.667 -16 -30.667 -16 -30c0 -3.33301 2.66699 -5 8 -5c2.66699 0 10 1 22 3l109 2c-2 -11.333 -3 -20 -3 -26c0 -6.66699 1 -15 3 -25c-9.33301 0 -34.666 0.666992 -75.999 2c-32.667 0.666992 -59 1 -79 1
c-5.33301 0 -10.833 -6 -16.5 -18s-8.5 -25 -8.5 -39c0 -15.333 4.33301 -23 13 -23c9.33301 0 65 0.666992 167 2c-2 -8 -3 -15.333 -3 -22c0 -6 1 -15.333 3 -28c-67.333 1.33301 -118.666 2 -153.999 2c-15.333 0 -23 -5.66699 -23 -17c0 -19.333 0.333008 -46 1 -80
c1.33301 -41.333 2 -74.666 2 -99.999c-12.667 3.33301 -25.334 5 -38.001 5c-12 0 -25 -1.66699 -39 -5l4 182c0 10 -6.66699 15 -20 15c-10.667 0 -60.334 -0.666992 -149.001 -2c1.33301 7.33301 2 13.666 2 18.999c0 -1.33301 -0.666992 9 -2 31h73
c36 -0.666992 60.667 -1 74 -1c14 0 21 5.66699 21 17c0 41.333 -8 62 -24 62c-18 0 -42.667 -0.333008 -74 -1c-38.667 -1.33301 -62 -2 -70 -2c1.33301 6.66699 2 14.667 2 24c0 10 -0.666992 19 -2 27l99 -2c1.33301 0 5 -0.5 11 -1.5s10.333 -1.5 13 -1.5
c3.33301 0 5 1.33301 5 4c0 -0.666992 -5 9.33301 -15 30c-44 90 -94 182.667 -150 278c8.66699 -1.33301 21.667 -2 39 -2c18 0 33 0.666992 45 2c33.333 -76.667 79.333 -171.667 138 -285l11 -26c4 -9.33301 7.33301 -14 10 -14c3.33301 0 7 5 11 15l10 25
c46 89.333 92 184.333 138 285c10.667 -1.33301 24.667 -2 42 -2c16 0 28.333 0.666992 37 2z" />
    <glyph glyph-name="brokenbar" unicode="&#xa6;" horiz-adv-x="235" 
d="M148 439c-6.66699 1.33301 -16.332 2 -28.999 2s-23.334 -0.666992 -32.001 -2c0.666992 41.333 1 83.333 1 126c0 38 -0.333008 81 -1 129c13.333 -1.33301 24 -2 32 -2c10 0 19.667 0.666992 29 2l-1 -132c0 -26.667 0.333008 -67.667 1 -123zM148.002 0
c-6.66699 1.33301 -16.332 2 -28.999 2s-23.334 -0.666992 -32.001 -2c0.666992 41.333 1 83.333 1 126c0 38 -0.333008 81 -1 129c13.333 -1.33301 24 -2 32 -2c10 0 19.667 0.666992 29 2l-1 -132c0 -26.667 0.333008 -67.667 1 -123z" />
    <glyph glyph-name="section" unicode="&#xa7;" horiz-adv-x="530" 
d="M478 276c0 -52.667 -21.3311 -94.6689 -63.998 -126.002c-2 -1.33301 -10 -4.66602 -24 -9.99902c-6 -2 -9 -3.66699 -9 -5c0 -2.66699 8.33301 -7.33398 25 -14.001c22 -8.66699 39.333 -25.667 52 -51c11.333 -22.667 17 -47.667 17 -75
c0 -50.667 -17.667 -92 -53 -124c-38.667 -35.333 -93.334 -53 -164.001 -53c-141.333 0 -214.333 61 -219 183c11.333 -4 24.666 -6 39.999 -6c13.333 0 27 2 41 6c2.66699 -42.667 16 -72.667 40 -90c20.667 -15.333 52.667 -23 96 -23c92 0 138 33.333 138 100
c0 41.333 -27.333 73.333 -82 96l-134 41c-77.333 28 -116 75 -116 141c0 30.667 7.5 58.667 22.5 84s35.167 42.333 60.5 51c15.333 5.33301 23 8.33301 23 9s-3.33301 2.33398 -10 5.00098c-8.66699 2.66699 -15.667 5.66699 -21 9c-39.333 28 -59 67.333 -59 118
c0 44.667 15.333 82 46 112c34.667 34 84 51 148 51c125.333 0 192.333 -56.333 201 -169c-12.667 4 -26 6 -40 6c-12 0 -25.333 -1.66699 -40 -5c-2.66699 68 -43 102 -121 102c-77.333 0 -116 -31 -116 -93c0 -38.667 26.667 -68.667 80 -90l129 -38
c75.333 -27.333 113 -74.666 113 -141.999zM400.002 263.998c0 47.333 -36.334 80 -109.001 98c-32 8 -51 12 -57 12c-7.33301 0 -15 -1.66699 -23 -5c-48 -20 -72 -50.333 -72 -91c0 -30.667 13.333 -54 40 -70c40 -24 80.667 -36 122 -36c14.667 0 24.334 1 29.001 3
c46.667 20 70 49.667 70 89z" />
    <glyph glyph-name="dieresis" unicode="&#xa8;" 
d="M258 598c-10.667 2 -24.668 3 -42.001 3s-32 -1 -44 -3c1.33301 10 2 24.333 2 43s-0.666992 34.667 -2 48c12 -2 27 -3 45 -3c16.667 0 30.334 1 41.001 3c-1.33301 -13.333 -2 -29 -2 -47c0 -19.333 0.666992 -34 2 -44zM76.999 599c-10.667 1.33301 -25.667 2 -45 2
s-33.666 -0.666992 -42.999 -2c0.666992 8 1 22.667 1 44c0 22 -0.333008 37.667 -1 47c8 -0.666992 23 -1 45 -1c21.333 0 35.666 0.333008 42.999 1c-1.33301 -10.667 -2 -24.667 -2 -42c0 -18.667 0.666992 -35 2 -49z" />
    <glyph glyph-name="copyright" unicode="&#xa9;" horiz-adv-x="784" 
d="M750 347c0 -97.333 -29.999 -179.999 -89.999 -247.999c-66.667 -74.667 -156.334 -112 -269.001 -112s-202 37.667 -268 113c-59.333 67.333 -89 149.666 -89 246.999s30 180 90 248c66 75.333 155.333 113 268 113s202 -37.667 268 -113c60 -68 90 -150.667 90 -248z
M690.001 347.001c0 82.667 -25 152.667 -75 210c-55.333 63.333 -130 95 -224 95s-168.333 -31.667 -223 -95c-49.333 -57.333 -74 -127.333 -74 -210s24.667 -152.334 74 -209.001c54.667 -63.333 129 -95 223 -95s168.667 31.667 224 95c50 56.667 75 126.334 75 209.001z
M565.001 280.001c-3.33301 -46.667 -21.9971 -83.667 -55.9971 -111c-30.667 -25.333 -67.667 -38 -111 -38c-52 0 -96.333 17.667 -133 53c-40.667 40.667 -61 95.667 -61 165s20 124 60 164c35.333 35.333 78.666 53 129.999 53c42.667 0 79.667 -13 111 -39
c33.333 -28 52.333 -65.667 57 -113c-12.667 3.33301 -23.334 5 -32.001 5c-10.667 0 -21.667 -1.66699 -33 -5c-3.33301 30 -15 53.5 -35 70.5s-43 25.5 -69 25.5c-32.667 0 -60.334 -12.667 -83.001 -38c-26 -29.333 -39 -70 -39 -122s13.333 -93 40 -123
c24 -26.667 53 -40 87 -40c26 0 48.833 8.33301 68.5 25s31.167 39.667 34.5 69c10 -3.33301 20.333 -5 31 -5c12 0 23 1.33301 33 4z" />
    <glyph glyph-name="ordfeminine" unicode="&#xaa;" horiz-adv-x="349" 
d="M285 387l-11.9971 0.000976562c-14.667 0 -27.334 -1 -38.001 -3c-0.666992 7.33301 -1 16.666 -1 27.999v11c0 0.666992 -0.666992 1 -2 1c-0.666992 0 -3 -3.16699 -7 -9.5s-6.66699 -9.83301 -8 -10.5c-16.667 -16 -38.334 -24 -65.001 -24c-62.667 0 -94 28 -94 84
c0 41.333 18 69.333 54 84c15.333 6 48.333 11.333 99 16c12.667 1.33301 19 7 19 17v6c0 36.667 -18.667 55 -56 55c-38 0 -57 -12.667 -57 -38l1 -15c-8 1.33301 -16 2 -24 2c-6.66699 0 -14.334 -0.666992 -23.001 -2c-0.666992 10 -1 14.667 -1 14
c0 28 10.667 49.333 32 64c18 12.667 42.333 19 73 19c48.667 0 80 -15.667 94 -47c6 -13.333 9 -32 9 -56v-57c-0.666992 -25.333 -1 -42 -1 -50c0 -25.333 2.66699 -55 8 -89zM232.003 526.001c0 2.66699 -1.66699 4 -5 4c-4 0 -10.333 -0.833008 -19 -2.5
s-14.667 -2.5 -18 -2.5c-28 -2.66699 -46.667 -6 -56 -10c-19.333 -9.33301 -29 -26.333 -29 -51c0 -28 18 -42 54 -42c47.333 0 71 27 71 81c0 2.66699 0.333008 6.5 1 11.5s1 8.83301 1 11.5z" />
    <glyph glyph-name="guillemotleft" unicode="&#xab;" horiz-adv-x="444" 
d="M394 437c-28.667 -52.667 -51.333 -96.333 -68 -131c-0.666992 -1.33301 -5 -7.66602 -13 -18.999c-6 -8.66699 -9 -15.334 -9 -20.001c0 -4 3.16699 -10.333 9.5 -19s9.83301 -14 10.5 -16c17.333 -41.333 39 -86.333 65 -135c-12.667 1.33301 -25 2 -37 2
c-10.667 0 -24.334 -0.666992 -41.001 -2c-29.333 60.667 -58.666 117 -87.999 169c35.333 62 65.333 119 90 171c16.667 -0.666992 30.667 -1 42 -1c12 0 25 0.333008 39 1zM221.001 433.001c-28.667 -48.667 -52.6641 -93 -71.9971 -133
c-0.666992 -0.666992 -4.33398 -5.5 -11.001 -14.5s-10 -15.5 -10 -19.5s3 -10 9 -18c8 -10 12.333 -16 13 -18c22.667 -46.667 45.667 -90 69 -130c-12 1.33301 -24 2 -36 2c-10.667 0 -25 -0.666992 -43 -2l-93 166c29.333 46 60.666 101.667 93.999 167
c7.33301 -0.666992 20.666 -1 39.999 -1c18.667 0 32 0.333008 40 1z" />
    <glyph glyph-name="logicalnot" unicode="&#xac;" horiz-adv-x="570" 
d="M509 32c-8.66699 1.33301 -19.335 1.99805 -32.002 1.99805c-13.333 0 -24.666 -0.666992 -33.999 -2c2.66699 62.667 4 106.334 4 131.001c0 36 -1 59.833 -3 71.5s-11.333 17.834 -28 18.501c-23.333 1.33301 -57 2 -101 2c-30.667 0 -75 -0.666992 -133 -2
s-98.333 -2 -121 -2c1.33301 12 2 24.667 2 38s-0.666992 23.666 -2 30.999c56 -2 129.667 -3 221 -3c92.667 0 168.334 1 227.001 3c-2.66699 -43.333 -4 -92.666 -4 -147.999c0 -56 1.33301 -102.667 4 -140z" />
    <glyph glyph-name="minus" unicode="&#xad;" horiz-adv-x="570" 
d="M505 220c-97.333 2 -170.667 3.00098 -220 3.00098c-81.333 0 -155 -1 -221 -3c2 12 3 23.333 3 34c0 7.33301 -1 18.333 -3 33c68 -2 141.667 -3 221 -3c50.667 0 124 1 220 3c-2 -12 -3 -23.667 -3 -35c0 -12.667 1 -23.334 3 -32.001z" />
    <glyph glyph-name="minus" unicode="&#x2212;" horiz-adv-x="570" 
d="M505 220c-97.333 2 -170.667 3.00098 -220 3.00098c-81.333 0 -155 -1 -221 -3c2 12 3 23.333 3 34c0 7.33301 -1 18.333 -3 33c68 -2 141.667 -3 221 -3c50.667 0 124 1 220 3c-2 -12 -3 -23.667 -3 -35c0 -12.667 1 -23.334 3 -32.001z" />
    <glyph glyph-name="registered" unicode="&#xae;" horiz-adv-x="784" 
d="M750 347c0 -97.333 -29.999 -179.999 -89.999 -247.999c-66.667 -74.667 -156.334 -112 -269.001 -112s-202 37.667 -268 113c-59.333 67.333 -89 149.666 -89 246.999s30 180 90 248c66 75.333 155.333 113 268 113s202 -37.667 268 -113c60 -68 90 -150.667 90 -248z
M690.001 347.001c0 82.667 -25 152.667 -75 210c-55.333 63.333 -130 95 -224 95s-168.333 -31.667 -223 -95c-49.333 -57.333 -74 -127.333 -74 -210s24.667 -152.334 74 -209.001c54.667 -63.333 129 -95 223 -95s168.667 31.667 224 95c50 56.667 75 126.334 75 209.001z
M546.001 132.001c-14.667 2.66699 -26 4.00098 -34 4.00098c-9.33301 0 -20.666 -1 -33.999 -3c-16.667 84 -30.667 136.333 -42 157c-9.33301 17.333 -28 26 -56 26h-38c-11.333 0 -18.333 -1.16699 -21 -3.5s-4 -6.83301 -4 -13.5c0 -80.667 0.666992 -136.334 2 -167.001
c-12.667 2.66699 -22.667 4 -30 4c-9.33301 0 -20.666 -1 -33.999 -3l1 208c0 62.667 -0.333008 140.334 -1 233.001c17.333 -1.33301 39.666 -2 66.999 -2c8.66699 0 21.667 0.333008 39 1h39c46 0 80.667 -13.333 104 -40c20 -22 30 -49.667 30 -83
c0 -26.667 -7 -49.667 -21 -69c-2.66699 -4 -14.834 -11 -36.501 -21s-32.5 -15.667 -32.5 -17c0 -4 6 -7.66699 18 -11c18.667 -5.33301 32.667 -21.333 42 -48c6.66699 -18.667 20.667 -69.334 42 -152.001zM471.001 450.002c0 44 -28.666 66.001 -85.999 66.001h-55
c-7.33301 0 -11 -4 -11 -12c-0.666992 -27.333 -1 -69 -1 -125c1.33301 -4.66699 4.66602 -7 9.99902 -7h37c34 0 58.333 3.66699 73 11c22 11.333 33 33.666 33 66.999z" />
    <glyph glyph-name="macron" unicode="&#xaf;" 
d="M262 586c-29.333 1.33301 -72.333 2.00098 -129 2.00098c-58.667 0 -107.667 -0.666992 -147 -2c2 8 3 16.667 3 26s-1 18.666 -3 27.999c40 -1.33301 89.667 -2 149 -2c56.667 0 99 0.666992 127 2c-2.66699 -12.667 -4 -22 -4 -28c0 -7.33301 1.33301 -16 4 -26z" />
    <glyph glyph-name="macron" unicode="&#x2c9;" 
d="M262 586c-29.333 1.33301 -72.333 2.00098 -129 2.00098c-58.667 0 -107.667 -0.666992 -147 -2c2 8 3 16.667 3 26s-1 18.666 -3 27.999c40 -1.33301 89.667 -2 149 -2c56.667 0 99 0.666992 127 2c-2.66699 -12.667 -4 -22 -4 -28c0 -7.33301 1.33301 -16 4 -26z" />
    <glyph glyph-name="degree" unicode="&#xb0;" horiz-adv-x="372" 
d="M332 556c0 -43.333 -14.332 -79.8311 -42.999 -109.498s-63.334 -44.5 -104.001 -44.5c-38 0 -71 13.333 -99 40c-30 29.333 -45 66.666 -45 111.999c0 43.333 14.167 79.666 42.5 108.999s62.5 44 102.5 44s74.333 -14.5 103 -43.5s43 -64.833 43 -107.5z
M273.001 555.002c0 26 -8.5 48.333 -25.5 67s-37.5 28 -61.5 28s-44.333 -9.33301 -61 -28s-25 -41 -25 -67c0 -26.667 8.33301 -49.167 25 -67.5s36.667 -27.5 60 -27.5c24 0 44.667 9.33301 62 28s26 41 26 67z" />
    <glyph glyph-name="plusminus" unicode="&#xb1;" horiz-adv-x="570" 
d="M506 248l-180 2.00293c-6 0 -9 -2.33301 -9 -7v-11c0.666992 -6 1 -9.66699 1 -11l4 -179c-16 4 -29 6 -39 6c-10.667 0 -22.334 -2 -35.001 -6l4 176c0 1.33301 0.333008 5 1 11v13c0 5.33301 -2.66699 8 -8 8h-11c-6 -0.666992 -10 -1 -12 -1l-158 -2
c2 10 3 21.333 3 34c0 13.333 -1 25.666 -3 36.999l159 -4c1.33301 0 5 -0.333008 11 -1h12c4.66699 0 7 2.66699 7 8v12c-0.666992 5.33301 -1 8.66602 -1 9.99902l-4 178c14.667 -2 27.667 -3 39 -3c12.667 0 24.334 1 35.001 3l-4 -177
c0 -0.666992 -0.333008 -3.66699 -1 -9s-1 -9.33301 -1 -12c0 -6.66699 3 -10 9 -10h12c6 0.666992 9.33301 1 10 1l159 4c-2 -8 -3 -18.667 -3 -32c0 -12.667 1 -25.334 3 -38.001zM496 -68.9971c-64.667 2 -129.001 3.00098 -193.001 3.00098
c-61.333 0 -138.666 -1 -231.999 -3c0.666992 6 1 16.667 1 32c0 14.667 -0.333008 25.667 -1 33c62 -1.33301 138.667 -2 230 -2c86.667 0 151.667 0.666992 195 2c-1.33301 -7.33301 -2 -17.333 -2 -30s0.666992 -24.334 2 -35.001z" />
    <glyph glyph-name="twosuperior" unicode="&#xb2;" horiz-adv-x="314" 
d="M269 316c-27.333 1.33301 -63.665 2.00195 -108.998 2.00195c-44.667 0 -85.334 -0.666992 -122.001 -2v5c0 25.333 -1 40.666 -3 45.999l103 85c32 30.667 52.667 52.667 62 66c17.333 23.333 26 47.333 26 72c0 50 -24.667 75 -74 75c-48.667 0 -73 -26 -73 -78v-13
c-5.33301 2 -12.333 3 -21 3c-6.66699 0 -14 -1 -22 -3v7c0 38 11.333 67.667 34 89s50.667 32 84 32c35.333 0 63.333 -10.167 84 -30.5s31 -47.5 31 -81.5c0 -32 -12 -63.333 -36 -94c-26 -32.667 -72.333 -74.334 -139 -125.001l-22 -17c0 -2 2 -3 6 -3
c2 0 5.33301 0.5 10 1.5s8 1.5 10 1.5h53c5.33301 0 44.666 1.33301 117.999 4c-1.33301 -5.33301 -2 -13.333 -2 -24c0 -6 0.666992 -12 2 -18z" />
    <glyph glyph-name="threesuperior" unicode="&#xb3;" horiz-adv-x="314" 
d="M276 418c0 -31.333 -11.335 -57.3311 -34.002 -77.998s-53.667 -31 -93 -31c-36 0 -64.5 10.167 -85.5 30.5s-31.5 48.166 -31.5 83.499c8 -2 16 -3 24 -3s14.667 1 20 3c0 -52 24.667 -78 74 -78c53.333 0 80 24.333 80 73c0 50.667 -26 76 -78 76
c-9.33301 0 -25.333 -0.666992 -48 -2c0.666992 4 1 10 1 18c0 8.66699 -0.333008 15 -1 19c21.333 -1.33301 38 -2 50 -2c46 0 69 23.667 69 71c0 44 -24 66 -72 66c-43.333 0 -66.666 -23 -69.999 -69c-7.33301 2 -15 3 -23 3s-14.667 -1 -20 -3
c1.33301 31.333 12.833 56.833 34.5 76.5s48.5 29.5 80.5 29.5c35.333 0 63 -9.66699 83 -29s30 -44 30 -74c0 -35.333 -16 -61 -48 -77c-0.666992 0 -4.5 -0.833008 -11.5 -2.5s-10.5 -3.83398 -10.5 -6.50098s3.33301 -4.66699 10 -6
c4.66699 -1.33301 9.33398 -2.33301 14.001 -3c37.333 -16.667 56 -45 56 -85z" />
    <glyph glyph-name="acute" unicode="&#xb4;" 
d="M216 709c-29.333 -32 -67.3311 -77.667 -113.998 -137c-14 2 -23.667 3 -29 3c-12.667 0 -26.334 -1 -41.001 -3l82 137c9.33301 2.66699 26 4 50 4c25.333 0 42.666 -1.33301 51.999 -4z" />
    <glyph glyph-name="mu" unicode="&#xb5;" horiz-adv-x="533" 
d="M461 2c-16 3.33301 -30.335 5.00098 -43.002 5.00098s-24.334 -1.66699 -35.001 -5c-2 12 -3 26 -3 42c0 4 0.666992 12.5 2 25.5s2 21.833 2 26.5c0 3.33301 -0.666992 6 -2 8c-2 0 -4.5 -3.5 -7.5 -10.5s-5.5 -13.167 -7.5 -18.5c-18 -32 -37.167 -54.167 -57.5 -66.5
s-47.833 -18.5 -82.5 -18.5c-16.667 0 -33.667 4.16699 -51 12.5s-25 12.5 -23 12.5c-2 0 -3 -0.666992 -3 -2c0 2 2.66699 -59.333 8 -184c-9.33301 2 -21.666 3 -36.999 3c-16 0 -30.667 -1 -44 -3c0 62.667 0.333008 130.834 1 204.501s1 117.167 1 130.5v120
c0 104 -0.333008 176.667 -1 218c16.667 -4 31 -6 43 -6c12.667 0 24.667 2 36 6c-2 -68.667 -3 -143 -3 -223c0 -10 0.333008 -44.667 1 -104c0 -26.667 3 -49.667 9 -69c10.667 -36 37.334 -54 80.001 -54c32 0 59 10.667 81 32c34 32.667 51 80.667 51 144
c0 15.333 -0.333008 64.666 -1 147.999l-1 126c10.667 -3.33301 22.334 -5 35.001 -5c12 0 26.333 1.66699 43 5c-0.666992 -42 -1 -97 -1 -165c0 -68.667 0.333008 -125.334 1 -170.001c1.33301 -80 4.33301 -135 9 -165z" />
    <glyph glyph-name="mu" unicode="&#x3bc;" horiz-adv-x="533" 
d="M461 2c-16 3.33301 -30.335 5.00098 -43.002 5.00098s-24.334 -1.66699 -35.001 -5c-2 12 -3 26 -3 42c0 4 0.666992 12.5 2 25.5s2 21.833 2 26.5c0 3.33301 -0.666992 6 -2 8c-2 0 -4.5 -3.5 -7.5 -10.5s-5.5 -13.167 -7.5 -18.5c-18 -32 -37.167 -54.167 -57.5 -66.5
s-47.833 -18.5 -82.5 -18.5c-16.667 0 -33.667 4.16699 -51 12.5s-25 12.5 -23 12.5c-2 0 -3 -0.666992 -3 -2c0 2 2.66699 -59.333 8 -184c-9.33301 2 -21.666 3 -36.999 3c-16 0 -30.667 -1 -44 -3c0 62.667 0.333008 130.834 1 204.501s1 117.167 1 130.5v120
c0 104 -0.333008 176.667 -1 218c16.667 -4 31 -6 43 -6c12.667 0 24.667 2 36 6c-2 -68.667 -3 -143 -3 -223c0 -10 0.333008 -44.667 1 -104c0 -26.667 3 -49.667 9 -69c10.667 -36 37.334 -54 80.001 -54c32 0 59 10.667 81 32c34 32.667 51 80.667 51 144
c0 15.333 -0.333008 64.666 -1 147.999l-1 126c10.667 -3.33301 22.334 -5 35.001 -5c12 0 26.333 1.66699 43 5c-0.666992 -42 -1 -97 -1 -165c0 -68.667 0.333008 -125.334 1 -170.001c1.33301 -80 4.33301 -135 9 -165z" />
    <glyph glyph-name="paragraph" unicode="&#xb6;" horiz-adv-x="530" 
d="M446 -169c-10.667 2 -19.668 3 -27.001 3s-15 -1 -23 -3c0.666992 52.667 1 137 1 253l-1 541c0 16 -5.33301 24.333 -16 25c-14 0.666992 -20.667 1 -20 1c-0.666992 0 -8.66699 -0.333008 -24 -1c-12 -0.666992 -18 -8.33398 -18 -23.001
c-1.33301 -102 -2 -237 -2 -405c0 -184.667 0.666992 -315 2 -391c-10.667 2 -19.667 3 -27 3s-15.333 -1 -24 -3l1 294c0 26 0.333008 51.667 1 77v68c0 17.333 -2.5 28.333 -7.5 33s-14.167 7.33398 -27.5 8.00098c-130 8 -195 72.333 -195 193c0 126 73.667 189 221 189
h61c26.667 -0.666992 46.667 -1 60 -1c28.667 0 50.334 0.333008 65.001 1c-2.66699 -162 -4 -313 -4 -453c0 -146.667 1.33301 -283 4 -409z" />
    <glyph glyph-name="periodcentered" unicode="&#xb7;" horiz-adv-x="169" 
d="M142 285c-14 2 -32 3 -54 3s-42 -1 -60 -3c1.33301 10.667 2 29 2 55c0 27.333 -0.666992 48 -2 62c17.333 -2 37 -3 59 -3s40.333 1 55 3c-2.66699 -20.667 -4 -41 -4 -61c0 -19.333 1.33301 -38 4 -56z" />
    <glyph glyph-name="periodcentered" unicode="&#x2219;" horiz-adv-x="169" 
d="M142 285c-14 2 -32 3 -54 3s-42 -1 -60 -3c1.33301 10.667 2 29 2 55c0 27.333 -0.666992 48 -2 62c17.333 -2 37 -3 59 -3s40.333 1 55 3c-2.66699 -20.667 -4 -41 -4 -61c0 -19.333 1.33301 -38 4 -56z" />
    <glyph glyph-name="cedilla" unicode="&#xb8;" 
d="M218 -102c0 -24 -10.998 -43.5 -32.998 -58.5s-50 -22.5 -84 -22.5c-24 0 -48 5 -72 15c5.33301 10.667 8.66602 23 9.99902 37c21.333 -6 40 -9 56 -9c38 0 57 11.333 57 34c0 19.333 -20 30 -60 32c-14 0.666992 -23 1 -27 1c15.333 24.667 27.666 52 36.999 82h46
l-14 -35c-4.66699 -6 -7 -10 -7 -12c0 -0.666992 1.33301 -1.66699 4 -3c2 0 5.33301 0.666992 10 2c51.333 -3.33301 77 -24.333 77 -63z" />
    <glyph glyph-name="onesuperior" unicode="&#xb9;" horiz-adv-x="314" 
d="M189 312c-6.66699 2.66699 -13.332 3.99707 -19.999 3.99707s-14.667 -1.33301 -24 -4c0 17.333 0.333008 44.333 1 81v82v114c0 2.66699 0.333008 6.83398 1 12.501s1 9.5 1 11.5c0 4 -1 6 -3 6c-1.33301 0 -4 -2 -8 -6s-7.33301 -6.66699 -10 -8
c-19.333 -8.66699 -38.666 -16.334 -57.999 -23.001c1.33301 4.66699 2 12.334 2 23.001c0 7.33301 -0.666992 13.333 -2 18c46 12.667 77.333 36.334 94 71.001c3.33301 -0.666992 7.66602 -1 12.999 -1s9.66602 0.333008 12.999 1l-1 -201
c0 -75.333 0.333008 -135.666 1 -180.999z" />
    <glyph glyph-name="ordmasculine" unicode="&#xba;" horiz-adv-x="355" 
d="M300 531c0 -102 -40 -153 -120 -153c-80.667 0 -121 51 -121 153c0 102.667 40.333 154 121 154c80 0 120 -51.333 120 -154zM251 531c0 74 -23.667 111 -71 111s-71 -37 -71 -111c0 -73.333 23.667 -110 71 -110s71 36.667 71 110z" />
    <glyph glyph-name="guillemotright" unicode="&#xbb;" horiz-adv-x="444" 
d="M397 268c-29.333 -46 -60.668 -101.667 -94.001 -167c-7.33301 0.666992 -20.666 1 -39.999 1c-18.667 0 -32 -0.333008 -40 -1c28.667 48.667 52.667 93 72 133c0.666992 0.666992 4.66699 6 12 16c6 8 9 14 9 18s-3 10 -9 18c-8 10 -12.333 16 -13 18
c-22.667 46.667 -45.667 90 -69 130c12 -1.33301 24 -2 36 -2c10.667 0 25 0.666992 43 2zM220.998 268c-35.333 -62 -65.333 -119.001 -90 -171.001c-16.667 0.666992 -30.667 1 -42 1c-12 0 -25 -0.333008 -39 -1c28.667 52.667 51.334 96.334 68.001 131.001
c0.666992 1.33301 5 7.66602 13 18.999c6 8.66699 9 15.334 9 20.001c0 4 -3.16699 10.333 -9.5 19s-9.83301 14 -10.5 16c-17.333 41.333 -39 86.333 -65 135c12.667 -1.33301 24.667 -2 36 -2s25.333 0.666992 42 2c29.333 -60.667 58.666 -117 87.999 -169z" />
    <glyph glyph-name="onequarter" unicode="&#xbc;" horiz-adv-x="606" 
d="M515 694l-394.998 -702c-4.66699 2 -13.334 3 -26.001 3c-14 0 -23.333 -1 -28 -3l394 702c7.33301 -1.33301 16.666 -2 27.999 -2s20.333 0.666992 27 2zM565.002 84c-12.667 0.666992 -27.333 1.00098 -44 1.00098c-8.66699 0 -13 -4.66699 -13 -14
c0 -29.333 0.333008 -53 1 -71c-10 2 -17.333 3 -22 3c-6.66699 0 -13.667 -1 -21 -3c0.666992 28 1 51.333 1 70c0 10.667 -5.33301 16 -16 16c-54 0 -101.667 -0.666992 -143 -2c1.33301 10 2 19 2 27c0 7.33301 -0.333008 12.666 -1 15.999l139 255
c11.333 -2 22.333 -3 33 -3c9.33301 0 18.333 1 27 3c-0.666992 -42 -1 -123.667 -1 -245c0 -9.33301 4 -14 12 -14h22c12 0.666992 20 1 24 1c-1.33301 -6 -2 -11.333 -2 -16c0 -10.667 0.666992 -18.667 2 -24zM166.003 312.001
c-6.66699 2.66699 -13.332 3.99707 -19.999 3.99707s-14.667 -1.33301 -24 -4c0 17.333 0.333008 44.333 1 81v82v114c0 2.66699 0.333008 6.83398 1 12.501s1 9.5 1 11.5c0 4 -1 6 -3 6c-1.33301 0 -4 -2 -8 -6s-7.33301 -6.66699 -10 -8
c-19.333 -8.66699 -38.666 -16.334 -57.999 -23.001c1.33301 4.66699 2 12.334 2 23.001c0 7.33301 -0.666992 13.333 -2 18c46 12.667 77.333 36.334 94 71.001c3.33301 -0.666992 7.66602 -1 12.999 -1s9.66602 0.333008 12.999 1l-1 -201
c0 -75.333 0.333008 -135.666 1 -180.999zM468.005 194.998l-0.000976562 51.001c-0.666992 21.333 -1 37 -1 47v32c0 1.33301 0.333008 3 1 5v5c0 2 -1 3 -3 3c-3.33301 0 -6 -2.33301 -8 -7c-4.66699 -12 -9.66699 -22.667 -15 -32l-86 -163
c-5.33301 -10 -8 -13.667 -8 -11c0 -2 1.33301 -3 4 -3c0.666992 0 2.33398 0.333008 5.00098 1s4.66699 1 6 1h14c8 -0.666992 15 -1 21 -1h55c6.66699 0 11 1.66699 13 5c0.666992 1.33301 1 4.16602 1 8.49902s0.333008 13.833 1 28.5v30z" />
    <glyph glyph-name="onehalf" unicode="&#xbd;" horiz-adv-x="606" 
d="M578 -2c-27.333 1.33301 -63.665 1.99707 -108.998 1.99707c-44 0 -84.333 -0.666992 -121 -2v5c0 24.667 -1.33301 40.334 -4 47.001c26 19.333 60.667 47.333 104 84c31.333 30 51.666 52 60.999 66c17.333 23.333 26 47.333 26 72c0 50 -24.667 75 -74 75
c-48.667 0 -73 -25.667 -73 -77v-14c-5.33301 2 -12.333 3 -21 3c-6 0 -13 -1 -21 -3v7c0 38 11.667 68 35 90c21.333 20.667 48.666 31 81.999 31c35.333 0 63.333 -10.167 84 -30.5s31 -47.5 31 -81.5c0 -33.333 -11.667 -64.666 -35 -93.999
c-24.667 -31.333 -71 -72.666 -139 -123.999l-23 -17c0 -2 2 -3 6 -3c2 0 5.33301 0.333008 10 1s8 1 10 1c47.333 0 104.333 1.33301 171 4c-1.33301 -5.33301 -2 -13.333 -2 -24c0 -6 0.666992 -12 2 -18zM515.001 693.997l-394.998 -702c-4.66699 2 -13.334 3 -26.001 3
c-14 0 -23.333 -1 -28 -3l394 702c7.33301 -1.33301 16.666 -2 27.999 -2s20.333 0.666992 27 2zM166.003 311.997c-6.66699 2.66699 -13.332 3.99707 -19.999 3.99707s-14.667 -1.33301 -24 -4c0 17.333 0.333008 44.333 1 81v82v114c0 2.66699 0.333008 6.83398 1 12.501
s1 9.5 1 11.5c0 4 -1 6 -3 6c-1.33301 0 -4 -2 -8 -6s-7.33301 -6.66699 -10 -8c-19.333 -8.66699 -38.666 -16.334 -57.999 -23.001c1.33301 4.66699 2 12.334 2 23.001c0 7.33301 -0.666992 13.333 -2 18c46 12.667 77.333 36.334 94 71.001
c3.33301 -0.666992 7.66602 -1 12.999 -1s9.66602 0.333008 12.999 1l-1 -201c0 -75.333 0.333008 -135.666 1 -180.999z" />
    <glyph glyph-name="threequarters" unicode="&#xbe;" horiz-adv-x="606" 
d="M548 694l-394.999 -702c-4.66699 2 -13.667 3 -27 3s-22.333 -1 -27 -3l394 702c7.33301 -1.33301 16.666 -2 27.999 -2s20.333 0.666992 27 2zM276.001 418c0 -31.333 -11.335 -57.3311 -34.002 -77.998s-53.667 -31 -93 -31c-36 0 -64.5 10.167 -85.5 30.5
s-31.5 48.166 -31.5 83.499c8 -2 16 -3 24 -3s14.667 1 20 3c0 -52 24.667 -78 74 -78c53.333 0 80 24.333 80 73c0 50.667 -26 76 -78 76c-9.33301 0 -25.333 -0.666992 -48 -2c0.666992 4 1 10 1 18c0 8.66699 -0.333008 15 -1 19c21.333 -1.33301 38 -2 50 -2
c46 0 69 23.667 69 71c0 44 -24 66 -72 66c-43.333 0 -66.666 -23 -69.999 -69c-7.33301 2 -15 3 -23 3s-14.667 -1 -20 -3c1.33301 31.333 12.833 56.833 34.5 76.5s48.5 29.5 80.5 29.5c35.333 0 63 -9.66699 83 -29s30 -44 30 -74c0 -35.333 -16 -61 -48 -77
c-0.666992 0 -4.5 -0.833008 -11.5 -2.5s-10.5 -3.83398 -10.5 -6.50098s3.33301 -4.66699 10 -6c4.66699 -1.33301 9.33398 -2.33301 14.001 -3c37.333 -16.667 56 -45 56 -85zM564.999 84.002c-12.667 0.666992 -27.333 1.00098 -44 1.00098
c-8.66699 0 -13 -4.66699 -13 -14c0 -29.333 0.333008 -53 1 -71c-10 2 -17.333 3 -22 3c-6.66699 0 -13.667 -1 -21 -3c0.666992 28 1 51.333 1 70c0 10.667 -5.33301 16 -16 16c-54 0 -101.667 -0.666992 -143 -2c1.33301 10 2 19 2 27
c0 7.33301 -0.333008 12.666 -1 15.999l139 255c11.333 -2 22.333 -3 33 -3c9.33301 0 18.333 1 27 3c-0.666992 -42 -1 -123.667 -1 -245c0 -9.33301 4 -14 12 -14h22c12 0.666992 20 1 24 1c-1.33301 -6 -2 -11.333 -2 -16c0 -10.667 0.666992 -18.667 2 -24zM468 195.003
l-0.000976562 51.001c-0.666992 21.333 -1 37 -1 47v32c0 1.33301 0.333008 3 1 5v5c0 2 -1 3 -3 3c-3.33301 0 -6 -2.33301 -8 -7c-4.66699 -12 -9.66699 -22.667 -15 -32l-86 -163c-5.33301 -10 -8 -13.667 -8 -11c0 -2 1.33301 -3 4 -3
c0.666992 0 2.33398 0.333008 5.00098 1s4.66699 1 6 1h16c10 -0.666992 19.667 -1 29 -1h45c6.66699 0 11 1.66699 13 5c0.666992 1.33301 1 4.16602 1 8.49902s0.333008 13.833 1 28.5v30z" />
    <glyph glyph-name="questiondown" unicode="&#xbf;" horiz-adv-x="493" 
d="M325 429c-12.667 1.33301 -27.668 2 -45.001 2c-18.667 0 -32.667 -0.666992 -42 -2c2 15.333 3 31 3 47c0 16.667 -1 31.667 -3 45c18.667 -3.33301 34 -5 46 -5c12.667 0 26.334 1.66699 41.001 5c-2 -16 -3 -32.333 -3 -49s1 -31 3 -43zM448.999 6
c0 -60 -17.6699 -106.165 -53.0029 -138.498s-84.666 -48.5 -147.999 -48.5c-64 0 -113.667 16.667 -149 50s-53 81.333 -53 144c0 46 10.333 84 31 114c19.333 28 52.333 55 99 81c26.667 15.333 44.667 29.666 54 42.999c10 16 15 38.333 15 67v23
c12 -2.66699 24.333 -4 37 -4c10 0 22.667 1.33301 38 4v-16c0 -62 -16.667 -107.667 -50 -137l-93 -58c-33.333 -24 -50 -61 -50 -111c0 -45.333 9.33301 -78.833 28 -100.5s50.334 -32.5 95.001 -32.5c46.667 0 79.334 10.333 98.001 31
c16.667 19.333 25 52.666 25 99.999c9.33301 -2 21.333 -3 36 -3c12 0 25.333 1.33301 40 4v-12z" />
    <glyph glyph-name="Agrave" unicode="&#xc0;" horiz-adv-x="593" 
d="M374 728c-5.33301 0.666992 -15 1 -29 1h-1c-12.667 0 -22 -0.333008 -28 -1l-118 143c16.667 1.33301 33.667 2 51 2c18 0 33.667 -0.666992 47 -2zM577 0c-20 2 -35.6689 3 -47.002 3c-9.33301 0 -23.666 -1 -42.999 -3c-10 30 -25.333 79 -46 147
c-2.66699 9.33301 -5.16699 15 -7.5 17s-8.83301 3 -19.5 3c-50.667 1.33301 -98 2 -142 2c-24.667 0 -54 -0.333008 -88 -1c-15.333 0 -24.666 -1 -27.999 -3s-6.66602 -8.33301 -9.99902 -19l-44 -146c-16.667 2 -30.334 3 -41.001 3c-12.667 0 -27.667 -1 -45 -3l226 694
c13.333 -2 30.333 -3 51 -3c18 0 35.667 1 53 3c12 -43.333 47 -150.333 105 -321zM415.998 241c0 1.33301 -1.5 4.33301 -4.5 9s-4.83301 8.33398 -5.5 11.001l-96 301l-13 52c-2 6.66699 -3.66699 10 -5 10c-2.66699 0 -4.66699 -3.33301 -6 -10
c-3.33301 -19.333 -7.33301 -36.333 -12 -51l-93 -300c-0.666992 -2.66699 -2.5 -6.83398 -5.5 -12.501s-4.5 -9.16699 -4.5 -10.5c0 -3.33301 3 -5 9 -5c12.667 0 32 0.333008 58 1s45.333 1 58 1c32 0 63.333 -0.333008 94 -1c1.33301 0 4 -0.333008 8 -1h9c6 0 9 2 9 6z
" />
    <glyph glyph-name="Aacute" unicode="&#xc1;" horiz-adv-x="593" 
d="M396 859c-29.333 -32 -67.3311 -77.667 -113.998 -137c-14 2 -23.667 3 -29 3c-12.667 0 -26.334 -1 -41.001 -3l82 137c9.33301 2.66699 26 4 50 4c25.333 0 42.666 -1.33301 51.999 -4zM577.002 0c-20 2 -35.6689 3 -47.002 3c-9.33301 0 -23.666 -1 -42.999 -3
c-10 30 -25.333 79 -46 147c-2.66699 9.33301 -5.16699 15 -7.5 17s-8.83301 3 -19.5 3c-50.667 1.33301 -98 2 -142 2c-24.667 0 -54 -0.333008 -88 -1c-15.333 0 -24.666 -1 -27.999 -3s-6.66602 -8.33301 -9.99902 -19l-44 -146c-16.667 2 -30.334 3 -41.001 3
c-12.667 0 -27.667 -1 -45 -3l226 694c13.333 -2 30.333 -3 51 -3c18 0 35.667 1 53 3c12 -43.333 47 -150.333 105 -321zM416 241c0 1.33301 -1.5 4.33301 -4.5 9s-4.83301 8.33398 -5.5 11.001l-96 301l-13 52c-2 6.66699 -3.66699 10 -5 10
c-2.66699 0 -4.66699 -3.33301 -6 -10c-3.33301 -19.333 -7.33301 -36.333 -12 -51l-93 -300c-0.666992 -2.66699 -2.5 -6.83398 -5.5 -12.501s-4.5 -9.16699 -4.5 -10.5c0 -3.33301 3 -5 9 -5c12.667 0 32 0.333008 58 1s45.333 1 58 1c32 0 63.333 -0.333008 94 -1
c1.33301 0 4 -0.333008 8 -1h9c6 0 9 2 9 6z" />
    <glyph glyph-name="Acircumflex" unicode="&#xc2;" horiz-adv-x="593" 
d="M420 726c-14.667 2 -28.3301 3 -40.9971 3c-5.33301 0 -15 -1 -29 -3c-8.66699 14 -22.334 32 -41.001 54l-10.5 17c-3.66699 6 -7.5 9 -11.5 9c-4.66699 0 -8.83398 -3.16699 -12.501 -9.5l-10.5 -17.5c-20 -24 -33.667 -41.667 -41 -53c-14 2 -23.333 3 -28 3
c-13.333 0 -27.333 -1 -42 -3c24 31.333 56 77 96 137c17.333 -2 30 -3 38 -3c7.33301 0 19.666 1 36.999 3zM577.004 0c-20 2 -35.6689 3 -47.002 3c-9.33301 0 -23.666 -1 -42.999 -3c-10 30 -25.333 79 -46 147c-2.66699 9.33301 -5.16699 15 -7.5 17s-8.83301 3 -19.5 3
c-50.667 1.33301 -98 2 -142 2c-24.667 0 -54 -0.333008 -88 -1c-15.333 0 -24.666 -1 -27.999 -3s-6.66602 -8.33301 -9.99902 -19l-44 -146c-16.667 2 -30.334 3 -41.001 3c-12.667 0 -27.667 -1 -45 -3l226 694c13.333 -2 30.333 -3 51 -3c18 0 35.667 1 53 3
c12 -43.333 47 -150.333 105 -321zM416.002 241c0 1.33301 -1.5 4.33301 -4.5 9s-4.83301 8.33398 -5.5 11.001l-96 301l-13 52c-2 6.66699 -3.66699 10 -5 10c-2.66699 0 -4.66699 -3.33301 -6 -10c-3.33301 -19.333 -7.33301 -36.333 -12 -51l-93 -300
c-0.666992 -2.66699 -2.5 -6.83398 -5.5 -12.501s-4.5 -9.16699 -4.5 -10.5c0 -3.33301 3 -5 9 -5c12.667 0 32 0.333008 58 1s45.333 1 58 1c32 0 63.333 -0.333008 94 -1c1.33301 0 4 -0.333008 8 -1h9c6 0 9 2 9 6z" />
    <glyph glyph-name="Atilde" unicode="&#xc3;" horiz-adv-x="593" 
d="M451 842l-0.99707 -8.99902c-2.66699 -26.667 -11.667 -49.334 -27 -68.001c-17.333 -21.333 -39 -32 -65 -32c-18 0 -40.333 7.83301 -67 23.5s-45.334 23.5 -56.001 23.5c-23.333 0 -39 -17 -47 -51c-8.66699 2 -16.334 3 -23.001 3c-7.33301 0 -16 -1 -26 -3l1 9
c3.33301 28.667 14.166 53 32.499 73s38.5 30 60.5 30c18 0 40.333 -7.83301 67 -23.5s47 -23.5 61 -23.5c22.667 0 37.667 16 45 48c9.33301 -2.66699 17 -4 23 -4c6.66699 0 14 1.33301 22 4zM577.003 0.000976562c-20 2 -35.6689 3 -47.002 3
c-9.33301 0 -23.666 -1 -42.999 -3c-10 30 -25.333 79 -46 147c-2.66699 9.33301 -5.16699 15 -7.5 17s-8.83301 3 -19.5 3c-50.667 1.33301 -98 2 -142 2c-24.667 0 -54 -0.333008 -88 -1c-15.333 0 -24.666 -1 -27.999 -3s-6.66602 -8.33301 -9.99902 -19l-44 -146
c-16.667 2 -30.334 3 -41.001 3c-12.667 0 -27.667 -1 -45 -3l226 694c13.333 -2 30.333 -3 51 -3c18 0 35.667 1 53 3c12 -43.333 47 -150.333 105 -321zM416.001 241.001c0 1.33301 -1.5 4.33301 -4.5 9s-4.83301 8.33398 -5.5 11.001l-96 301l-13 52
c-2 6.66699 -3.66699 10 -5 10c-2.66699 0 -4.66699 -3.33301 -6 -10c-3.33301 -19.333 -7.33301 -36.333 -12 -51l-93 -300c-0.666992 -2.66699 -2.5 -6.83398 -5.5 -12.501s-4.5 -9.16699 -4.5 -10.5c0 -3.33301 3 -5 9 -5c12.667 0 32 0.333008 58 1s45.333 1 58 1
c32 0 63.333 -0.333008 94 -1c1.33301 0 4 -0.333008 8 -1h9c6 0 9 2 9 6z" />
    <glyph glyph-name="Adieresis" unicode="&#xc4;" horiz-adv-x="593" 
d="M431 748c-10.667 2 -24.668 3.00195 -42.001 3.00195s-32 -1 -44 -3c1.33301 10 2 24.333 2 43s-0.666992 34.667 -2 48c12 -2 27 -3 45 -3c16.667 0 30.334 1 41.001 3c-0.666992 -6.66699 -1 -16.334 -1 -29.001v-33c0 -14.667 0.333008 -24.334 1 -29.001z
M249.999 749.002c-10.667 1.33301 -25.667 2 -45 2s-33.666 -0.666992 -42.999 -2c0.666992 8 1 22.667 1 44c0 22 -0.333008 37.667 -1 47c8 -0.666992 23 -1 45 -1c21.333 0 35.666 0.333008 42.999 1c-1.33301 -10.667 -2 -24.667 -2 -42c0 -18.667 0.666992 -35 2 -49z
M576.999 0.00195312c-20 2 -35.6689 3 -47.002 3c-9.33301 0 -23.666 -1 -42.999 -3c-10 30 -25.333 79 -46 147c-2.66699 9.33301 -5.16699 15 -7.5 17s-8.83301 3 -19.5 3c-50.667 1.33301 -98 2 -142 2c-24.667 0 -54 -0.333008 -88 -1c-15.333 0 -24.666 -1 -27.999 -3
s-6.66602 -8.33301 -9.99902 -19l-44 -146c-16.667 2 -30.334 3 -41.001 3c-12.667 0 -27.667 -1 -45 -3l226 694c13.333 -2 30.333 -3 51 -3c18 0 35.667 1 53 3c12 -43.333 47 -150.333 105 -321zM415.997 241.002c0 1.33301 -1.5 4.33301 -4.5 9
s-4.83301 8.33398 -5.5 11.001l-96 301l-13 52c-2 6.66699 -3.66699 10 -5 10c-2.66699 0 -4.66699 -3.33301 -6 -10c-3.33301 -19.333 -7.33301 -36.333 -12 -51l-93 -300c-0.666992 -2.66699 -2.5 -6.83398 -5.5 -12.501s-4.5 -9.16699 -4.5 -10.5c0 -3.33301 3 -5 9 -5
c12.667 0 32 0.333008 58 1s45.333 1 58 1c32 0 63.333 -0.333008 94 -1c1.33301 0 4 -0.333008 8 -1h9c6 0 9 2 9 6z" />
    <glyph glyph-name="Aring" unicode="&#xc5;" horiz-adv-x="593" 
d="M386 812c0 -29.333 -9.16797 -52.166 -27.501 -68.499s-40.166 -24.5 -65.499 -24.5c-24.667 0 -46 8 -64 24s-27 38.333 -27 67c0 29.333 9.66699 52.666 29 69.999c17.333 15.333 38.333 23 63 23s46.167 -8 64.5 -24s27.5 -38.333 27.5 -67zM576.999 0
c-20 2 -35.6689 3 -47.002 3c-9.33301 0 -23.666 -1 -42.999 -3c-10 30 -25.333 79 -46 147c-2.66699 9.33301 -5.16699 15 -7.5 17s-8.83301 3 -19.5 3c-50.667 1.33301 -98 2 -142 2c-24.667 0 -54 -0.333008 -88 -1c-15.333 0 -24.666 -1 -27.999 -3
s-6.66602 -8.33301 -9.99902 -19l-44 -146c-16.667 2 -30.334 3 -41.001 3c-12.667 0 -27.667 -1 -45 -3l226 694c13.333 -2 30.333 -3 51 -3c18 0 35.667 1 53 3c12 -43.333 47 -150.333 105 -321zM343.997 811c0 16 -5 28.667 -15 38s-21.667 14 -35 14
c-14 0 -26 -4.5 -36 -13.5s-15 -21.833 -15 -38.5c0 -34 16.667 -51 50 -51c14 0 26 4.5 36 13.5s15 21.5 15 37.5zM415.997 241c0 1.33301 -1.5 4.33301 -4.5 9s-4.83301 8.33398 -5.5 11.001l-96 301l-13 52c-2 6.66699 -3.66699 10 -5 10
c-2.66699 0 -4.66699 -3.33301 -6 -10c-3.33301 -19.333 -7.33301 -36.333 -12 -51l-93 -300c-0.666992 -2.66699 -2.5 -6.83398 -5.5 -12.501s-4.5 -9.16699 -4.5 -10.5c0 -3.33301 3 -5 9 -5c12.667 0 32 0.333008 58 1s45.333 1 58 1c32 0 63.333 -0.333008 94 -1
c1.33301 0 4 -0.333008 8 -1h9c6 0 9 2 9 6z" />
    <glyph glyph-name="AE" unicode="&#xc6;" horiz-adv-x="877" 
d="M803 0c-59.333 3.33301 -120.999 4.99902 -184.999 4.99902c-78.667 0 -144 -1.66699 -196 -5v33l2 113c-2.66699 15.333 -4.66699 24.333 -6 27c-2.66699 5.33301 -9.33398 8 -20.001 8c-28 0.666992 -49.333 1 -64 1c-40.667 0 -80 -0.666992 -118 -2
c-19.333 -0.666992 -34 -11 -44 -31c-29.333 -60 -52.333 -109.667 -69 -149c-17.333 3.33301 -31.333 5 -42 5c-18.667 0 -34 -1.66699 -46 -5c138 264 254.333 495.333 349 694c32.667 -4 77.334 -6 134.001 -6c14.667 0 37 0.333008 67 1h69c60.667 0 114 1.33301 160 4
c-1.33301 -16 -2 -29.333 -2 -40c0 -11.333 0.666992 -24 2 -38c-69.333 2 -155 3 -257 3c-16.667 0 -26.667 -1.16699 -30 -3.5s-5 -9.5 -5 -21.5c-1.33301 -79.333 -2 -141.333 -2 -186c0 -10 1.5 -16.167 4.5 -18.5s10.5 -3.5 22.5 -3.5
c53.333 0 138.666 1.33301 255.999 4c-2 -14 -3 -27.667 -3 -41s1 -25.666 3 -36.999c-68 2 -140.667 3 -218 3h-37c-11.333 0 -18.833 -1.33301 -22.5 -4s-5.5 -9 -5.5 -19c0 -83.333 0.333008 -147.333 1 -192c0 -16 10 -24 30 -24c124 0 214.667 1.33301 272 4
c-1.33301 -10 -2 -24.667 -2 -44c0 -16 0.666992 -27.667 2 -35zM427.001 623.999c0 14 -2.66699 21 -8 21c-6.66699 0 -13.334 -8 -20.001 -24l-18 -43l-158 -321c-2.66699 -5.33301 -4 -9 -4 -11c0 -4 3.66699 -6 11 -6c6.66699 0 16.334 0.333008 29.001 1h29
c43.333 0 76.666 0.333008 99.999 1c18 0.666992 28.333 2.33398 31 5.00098c0.666992 0.666992 2.33398 10.667 5.00098 30v290c0 10 0.5 21.667 1.5 35s1.5 20.666 1.5 21.999z" />
    <glyph glyph-name="Ccedilla" unicode="&#xc7;" horiz-adv-x="586" 
d="M540 219c0 -17.333 -2.33301 -37.002 -7 -59.002c-20 -95.333 -79.667 -150 -179 -164c-25.333 -3.33301 -38 -13.666 -38 -30.999c0 -4 1.33301 -6 4 -6c1.33301 0 3.16602 0.333008 5.49902 1s3.83301 1 4.5 1c23.333 0 42 -5.83301 56 -17.5s21 -26.834 21 -45.501
c0 -24 -11 -43.5 -33 -58.5s-50 -22.5 -84 -22.5c-24 0 -48 5 -72 15c5.33301 10.667 8.66602 23 9.99902 37c21.333 -6 40 -9 56 -9c38 0 57 11.333 57 34c0 20 -13 30 -39 30c-10 0 -18.667 -1 -26 -3c-18 4 -25.333 6 -22 6c6 14.667 14 30.334 24 47.001
c4 6.66699 6 11 6 13c0 4 -7.66699 7.33301 -23 10c-134.667 22.667 -202 133.334 -202 332.001c0 246.667 86.333 370 259 370c146.667 0 220.334 -77.667 221.001 -233c-8 1.33301 -19.333 2 -34 2c-16.667 0 -31.667 -1 -45 -3l-1 20c-2 41.333 -13.667 74.333 -35 99
c-24.667 29.333 -60.667 44 -108 44c-60.667 0 -105 -21.333 -133 -64c-30 -46.667 -45 -122.667 -45 -228c0 -185.333 58 -278 174 -278c96.667 0 146 60.333 148 181c12 -4 25.667 -6 41 -6c12.667 0 25.334 1.33301 38.001 4c0.666992 -8.66699 1 -14.667 1 -18z" />
    <glyph glyph-name="Egrave" unicode="&#xc8;" horiz-adv-x="539" 
d="M338 728c-5.33301 0.666992 -15 1 -29 1h-1c-12.667 0 -22 -0.333008 -28 -1l-118 143c16.667 1.33301 33.667 2 51 2c18 0 33.667 -0.666992 47 -2zM466 0c-47.333 2.66699 -107.668 3.99805 -181.001 3.99805c-75.333 0 -142.333 -1.33301 -201 -4
c2 101.333 3 210 3 326c0 112 -1 234.333 -3 367c56.667 -2.66699 121.667 -4 195 -4c72.667 0 132 1.33301 178 4c-1.33301 -16 -2 -28.667 -2 -38c0 -12.667 0.666992 -26 2 -40c-69.333 2 -155.333 3 -258 3c-16.667 0 -26.667 -1.16699 -30 -3.5s-5 -9.5 -5 -21.5
c-0.666992 -39.333 -1 -93.666 -1 -162.999v-22c0 -10 1.5 -16.167 4.5 -18.5s10.5 -3.5 22.5 -3.5h18c40.667 0 119.667 1.33301 237 4c-2 -14 -3 -27.667 -3 -41s1 -25.666 3 -36.999c-68 2 -143 3 -225 3h-30c-11.333 0 -18.666 -1.33301 -21.999 -4s-5 -9 -5 -19v-193
c0 -11.333 1.5 -18.166 4.5 -20.499s11.5 -3.5 25.5 -3.5c124.667 0 215.667 1.33301 273 4c-2 -14.667 -3 -29.334 -3 -44.001c0 -12 1 -23.667 3 -35z" />
    <glyph glyph-name="Eacute" unicode="&#xc9;" horiz-adv-x="539" 
d="M396 859c-29.333 -32 -67.3311 -77.667 -113.998 -137c-14 2 -23.667 3 -29 3c-12.667 0 -26.334 -1 -41.001 -3l82 137c9.33301 2.66699 26 4 50 4c25.333 0 42.666 -1.33301 51.999 -4zM466.002 0c-47.333 2.66699 -107.668 3.99805 -181.001 3.99805
c-75.333 0 -142.333 -1.33301 -201 -4c2 101.333 3 210 3 326c0 112 -1 234.333 -3 367c56.667 -2.66699 121.667 -4 195 -4c72.667 0 132 1.33301 178 4c-1.33301 -16 -2 -28.667 -2 -38c0 -12.667 0.666992 -26 2 -40c-69.333 2 -155.333 3 -258 3
c-16.667 0 -26.667 -1.16699 -30 -3.5s-5 -9.5 -5 -21.5c-0.666992 -39.333 -1 -93.666 -1 -162.999v-22c0 -10 1.5 -16.167 4.5 -18.5s10.5 -3.5 22.5 -3.5h18c40.667 0 119.667 1.33301 237 4c-2 -14 -3 -27.667 -3 -41s1 -25.666 3 -36.999c-68 2 -146.333 3 -235 3h-20
c-11.333 0 -18.666 -1.33301 -21.999 -4s-5 -9 -5 -19v-193c0 -11.333 1.5 -18.166 4.5 -20.499s11.5 -3.5 25.5 -3.5c124.667 0 215.667 1.33301 273 4c-2 -14.667 -3 -29.334 -3 -44.001c0 -12 1 -23.667 3 -35z" />
    <glyph glyph-name="Ecircumflex" unicode="&#xca;" horiz-adv-x="539" 
d="M411 726c-14.667 2 -28.6641 3.00098 -41.9971 3.00098c-5.33301 0 -15 -1 -29 -3c-8.66699 14 -22.334 32 -41.001 54l-10.5 17c-3.66699 6 -7.5 9 -11.5 9c-4.66699 0 -8.83398 -3.16699 -12.501 -9.5l-10.5 -17.5c-20 -24 -33.667 -41.667 -41 -53
c-14 2 -23.333 3 -28 3c-13.333 0 -27.333 -1 -42 -3c24 31.333 56.333 77 97 137c17.333 -2 29.666 -3 36.999 -3s19.666 1 36.999 3c9.33301 -16 28 -43 56 -81c26.667 -34.667 40.334 -53.334 41.001 -56.001zM466.003 0.000976562
c-47.333 2.66699 -107.668 3.99805 -181.001 3.99805c-75.333 0 -142.333 -1.33301 -201 -4c2 101.333 3 210 3 326c0 112 -1 234.333 -3 367c56.667 -2.66699 121.667 -4 195 -4c72.667 0 132 1.33301 178 4c-1.33301 -16 -2 -28.667 -2 -38c0 -12.667 0.666992 -26 2 -40
c-69.333 2 -155.333 3 -258 3c-16.667 0 -26.667 -1.16699 -30 -3.5s-5 -9.5 -5 -21.5c-0.666992 -39.333 -1 -93.666 -1 -162.999v-22c0 -10 1.5 -16.167 4.5 -18.5s10.5 -3.5 22.5 -3.5h18c40.667 0 119.667 1.33301 237 4c-2 -14 -3 -27.667 -3 -41s1 -25.666 3 -36.999
c-68 2 -143 3 -225 3h-30c-11.333 0 -18.666 -1.33301 -21.999 -4s-5 -9 -5 -19v-193c0 -11.333 1.5 -18.166 4.5 -20.499s11.5 -3.5 25.5 -3.5c124.667 0 215.667 1.33301 273 4c-2 -14.667 -3 -29.334 -3 -44.001c0 -12 1 -23.667 3 -35z" />
    <glyph glyph-name="Edieresis" unicode="&#xcb;" horiz-adv-x="539" 
d="M402 748c-10.667 2 -24.668 3 -42.001 3s-32 -1 -44 -3c1.33301 10 2 24.333 2 43s-0.666992 34.667 -2 48c12 -2 27 -3 45 -3c16.667 0 30.334 1 41.001 3c-1.33301 -13.333 -2 -29 -2 -47c0 -19.333 0.666992 -34 2 -44zM220.999 749c-10.667 1.33301 -25.667 2 -45 2
s-33.666 -0.666992 -42.999 -2c0.666992 8 1 22.667 1 44c0 22 -0.333008 37.667 -1 47c8 -0.666992 23 -1 45 -1c21.333 0 35.666 0.333008 42.999 1c-1.33301 -10.667 -2 -24.667 -2 -42c0 -18.667 0.666992 -35 2 -49zM465.999 0
c-47.333 2.66699 -107.668 3.99805 -181.001 3.99805c-75.333 0 -142.333 -1.33301 -201 -4c2 101.333 3 210 3 326c0 112 -1 234.333 -3 367c56.667 -2.66699 121.667 -4 195 -4c72.667 0 132 1.33301 178 4c-1.33301 -16 -2 -28.667 -2 -38c0 -12.667 0.666992 -26 2 -40
c-69.333 2 -155.333 3 -258 3c-16.667 0 -26.667 -1.16699 -30 -3.5s-5 -9.5 -5 -21.5c-0.666992 -39.333 -1 -93.666 -1 -162.999v-22c0 -10 1.5 -16.167 4.5 -18.5s10.5 -3.5 22.5 -3.5h18c40.667 0 119.667 1.33301 237 4c-2 -14 -3 -27.667 -3 -41s1 -25.666 3 -36.999
c-68 2 -143 3 -225 3h-30c-11.333 0 -18.666 -1.33301 -21.999 -4s-5 -9 -5 -19v-193c0 -11.333 1.5 -18.166 4.5 -20.499s11.5 -3.5 25.5 -3.5c124.667 0 215.667 1.33301 273 4c-2 -14.667 -3 -29.334 -3 -44.001c0 -12 1 -23.667 3 -35z" />
    <glyph glyph-name="Igrave" unicode="&#xcc;" 
d="M185 738c-5.33301 0.666992 -15 1 -29 1h-1c-12.667 0 -22 -0.333008 -28 -1l-118 143c16.667 1.33301 33.667 2 51 2c18 0 33.667 -0.666992 47 -2zM165 0c-14 3.33301 -26.999 4.99805 -38.999 4.99805c-12.667 0 -27.334 -1.66699 -44.001 -5
c2 92.667 3 203.334 3 332.001c0 106.667 -1 227.334 -3 362.001c11.333 -2.66699 24 -4 38 -4s29 1.33301 45 4l-2 -362c0 -134 0.666992 -244.667 2 -332z" />
    <glyph glyph-name="Iacute" unicode="&#xcd;" 
d="M234 869c-29.333 -32 -67.3311 -77.667 -113.998 -137c-14 2 -23.667 3 -29 3c-12.667 0 -26.334 -1 -41.001 -3l82 137c9.33301 2.66699 26 4 50 4c25.333 0 42.666 -1.33301 51.999 -4zM165.002 0c-14 3.33301 -26.999 4.99805 -38.999 4.99805
c-12.667 0 -27.334 -1.66699 -44.001 -5c2 92.667 3 203.334 3 332.001c0 106.667 -1 227.334 -3 362.001c11.333 -2.66699 24 -4 38 -4s29 1.33301 45 4l-2 -362c0 -134 0.666992 -244.667 2 -332z" />
    <glyph glyph-name="Icircumflex" unicode="&#xce;" 
d="M258 726c-14.667 2 -28.6641 3.00098 -41.9971 3.00098c-5.33301 0 -15 -1 -29 -3c-8.66699 14 -22.334 32 -41.001 54l-10.5 17c-3.66699 6 -7.5 9 -11.5 9c-4.66699 0 -8.83398 -3.16699 -12.501 -9.5l-10.5 -17.5c-20 -24 -33.667 -41.667 -41 -53
c-14 2 -23.333 3 -28 3c-13.333 0 -27.333 -1 -42 -3c24 31.333 56.333 77 97 137c17.333 -2 29.666 -3 36.999 -3s19.666 1 36.999 3c9.33301 -16 28 -43 56 -81c26.667 -34.667 40.334 -53.334 41.001 -56.001zM165.003 0.000976562
c-14 3.33301 -26.999 4.99805 -38.999 4.99805c-12.667 0 -27.334 -1.66699 -44.001 -5c2 92.667 3 203.334 3 332.001c0 106.667 -1 227.334 -3 362.001c11.333 -2.66699 24 -4 38 -4s29 1.33301 45 4l-2 -362c0 -134 0.666992 -244.667 2 -332z" />
    <glyph glyph-name="Idieresis" unicode="&#xcf;" 
d="M258 748c-10.667 2 -24.668 3.00195 -42.001 3.00195s-32 -1 -44 -3c1.33301 10 2 24.333 2 43s-0.666992 34.667 -2 48c12 -2 27 -3 45 -3c16.667 0 30.334 1 41.001 3c-0.666992 -6.66699 -1 -16.334 -1 -29.001v-33c0 -14.667 0.333008 -24.334 1 -29.001z
M76.999 749.002c-10.667 1.33301 -25.667 2 -45 2s-33.666 -0.666992 -42.999 -2c0.666992 8 1 22.667 1 44c0 22 -0.333008 37.667 -1 47c8 -0.666992 23 -1 45 -1c21.333 0 35.666 0.333008 42.999 1c-1.33301 -10.667 -2 -24.667 -2 -42c0 -18.667 0.666992 -35 2 -49z
M164.999 0.00195312c-14 3.33301 -26.999 4.99805 -38.999 4.99805c-12.667 0 -27.334 -1.66699 -44.001 -5c2 92.667 3 203.334 3 332.001c0 106.667 -1 227.334 -3 362.001c11.333 -2.66699 24 -4 38 -4s29 1.33301 45 4l-2 -362c0 -134 0.666992 -244.667 2 -332z" />
    <glyph glyph-name="Eth" unicode="&#xd0;" horiz-adv-x="628" 
d="M570 341c0 -109.333 -23.167 -193.501 -69.5 -252.501s-114.166 -88.5 -203.499 -88.5c-18 0 -43.333 0.5 -76 1.5s-58 1.5 -76 1.5c-24.667 0 -45 -1 -61 -3c2 97.333 3 195 3 293c0 10.667 -4.66699 16 -14 16c-21.333 0 -39.333 -0.666992 -54 -2
c2.66699 10 4 21.333 4 34s-1.33301 23.667 -4 33c23.333 -2 41.666 -3 54.999 -3c8.66699 0 13 4 13 12c0 76.667 -1 180.334 -3 311.001c30.667 -2 55 -3 73 -3c15.333 0 36.5 0.5 63.5 1.5s48.167 1.5 63.5 1.5c190.667 0 286 -117.667 286 -353zM489 341.999
c0 85.333 -14 150.668 -42 196.001c-36.667 58.667 -99 88 -187 88c-4.66699 0 -28.667 -0.333008 -72 -1c-10.667 0 -17.5 -1.66699 -20.5 -5s-4.5 -11 -4.5 -23c-2 -88 -3 -158.667 -3 -212c0 -10 5 -15 15 -15c56.667 0 97 1.33301 121 4c-2.66699 -10 -4 -20.333 -4 -31
c0 -11.333 1.33301 -23.333 4 -36c-30 2 -71.333 3 -124 3c-8 0 -12 -4 -12 -12c0 -44.667 0.666992 -101 2 -169c0.666992 -27.333 3.5 -43.833 8.5 -49.5s19.833 -9.16699 44.5 -10.5c12.667 -0.666992 26 -1 40 -1c88 0 150 23 186 69c32 41.333 48 109.666 48 204.999z
" />
    <glyph glyph-name="Ntilde" unicode="&#xd1;" horiz-adv-x="663" 
d="M478 842l-0.99707 -8.99902c-2.66699 -26.667 -11.667 -49.334 -27 -68.001c-17.333 -21.333 -39 -32 -65 -32c-18 0 -40.333 7.83301 -67 23.5s-45.334 23.5 -56.001 23.5c-23.333 0 -39 -17 -47 -51c-8.66699 2 -16.334 3 -23.001 3c-7.33301 0 -16 -1 -26 -3l1 9
c3.33301 28.667 14.166 53 32.499 73s38.5 30 60.5 30c18 0 40.333 -7.83301 67 -23.5s47 -23.5 61 -23.5c22.667 0 37.667 16 45 48c9.33301 -2.66699 17 -4 23 -4c6.66699 0 14 1.33301 22 4zM579.003 694.001c-1.33301 -76 -2 -184.335 -2 -325.002v-369
c-20 2.66699 -39.333 4 -58 4c-22 0 -40 -1.33301 -54 -4l-257 532c-6 8.66699 -14.333 23 -25 43c-10 26.667 -17 40 -21 40c-4.66699 0 -7 -5.66699 -7 -17c0 -9.33301 1 -23.666 3 -42.999s3 -33.666 3 -42.999v-185c0 -138 0.666992 -247 2 -327
c-12 3.33301 -24.333 5 -37 5c-13.333 0 -27.666 -1.66699 -42.999 -5c2 102 3 211 3 327c0 124 -1 246.333 -3 367c20 -2.66699 43.667 -4 71 -4c22.667 0 41.667 1.33301 57 4l244 -496c12 -24 21.667 -46.667 29 -68c9.33301 -26 15.666 -39 18.999 -39
c2.66699 0 4 4.66699 4 14c0 10.667 -0.833008 27 -2.5 49s-2.5 38.333 -2.5 49v166c0 120 -0.666992 228.333 -2 325c16 -3.33301 30.333 -5 43 -5s24.667 1.66699 36 5z" />
    <glyph glyph-name="Ograve" unicode="&#xd2;" horiz-adv-x="645" 
d="M356 728c-5.33301 0.666992 -15 1 -29 1h-1c-12.667 0 -22 -0.333008 -28 -1l-118 143c16.667 1.33301 33.667 2 51 2c18 0 33.667 -0.666992 47 -2zM586 337c0 -233.333 -86.999 -350 -260.999 -350c-84.667 0 -149.667 29.333 -195 88c-48 62 -72 152.333 -72 271
c0 114 22.667 201.667 68 263s111.666 92 198.999 92c174 0 261 -121.333 261 -364zM508.001 340c0 99.333 -18.333 174.667 -55 226c-32.667 45.333 -76 68 -130 68c-124 0 -186 -97 -186 -291c0 -96 16.667 -169 50 -219c32 -47.333 77 -71 135 -71
c124 0 186 95.667 186 287z" />
    <glyph glyph-name="Oacute" unicode="&#xd3;" horiz-adv-x="645" 
d="M468 859c-29.333 -32 -67.3311 -77.667 -113.998 -137c-14 2 -23.667 3 -29 3c-12.667 0 -26.334 -1 -41.001 -3l82 137c9.33301 2.66699 26 4 50 4c25.333 0 42.666 -1.33301 51.999 -4zM586.002 337c0 -233.333 -86.999 -350 -260.999 -350
c-84.667 0 -149.667 29.333 -195 88c-48 62 -72 152.333 -72 271c0 114 22.667 201.667 68 263s111.666 92 198.999 92c174 0 261 -121.333 261 -364zM508.003 340c0 99.333 -18.333 174.667 -55 226c-32.667 45.333 -76 68 -130 68c-124 0 -186 -97 -186 -291
c0 -96 16.667 -169 50 -219c32 -47.333 77 -71 135 -71c124 0 186 95.667 186 287z" />
    <glyph glyph-name="Ocircumflex" unicode="&#xd4;" horiz-adv-x="645" 
d="M447 726c-14.667 2 -28.6641 3.00098 -41.9971 3.00098c-5.33301 0 -15 -1 -29 -3c-8.66699 14 -22.334 32 -41.001 54l-10.5 17c-3.66699 6 -7.5 9 -11.5 9c-4.66699 0 -8.83398 -3.16699 -12.501 -9.5l-10.5 -17.5c-20 -24 -33.667 -41.667 -41 -53
c-14 2 -23.333 3 -28 3c-13.333 0 -27.333 -1 -42 -3c24 31.333 56.333 77 97 137c17.333 -2 29.666 -3 36.999 -3s19.666 1 36.999 3c9.33301 -16 28 -43 56 -81c26.667 -34.667 40.334 -53.334 41.001 -56.001zM586.003 337.001c0 -233.333 -86.999 -350 -260.999 -350
c-84.667 0 -149.667 29.333 -195 88c-48 62 -72 152.333 -72 271c0 114 22.667 201.667 68 263s111.666 92 198.999 92c174 0 261 -121.333 261 -364zM508.004 340.001c0 99.333 -18.333 174.667 -55 226c-32.667 45.333 -76 68 -130 68c-124 0 -186 -97 -186 -291
c0 -96 16.667 -169 50 -219c32 -47.333 77 -71 135 -71c124 0 186 95.667 186 287z" />
    <glyph glyph-name="Otilde" unicode="&#xd5;" horiz-adv-x="645" 
d="M478 842l-0.99707 -8.99902c-2.66699 -26.667 -11.667 -49.334 -27 -68.001c-17.333 -21.333 -39 -32 -65 -32c-18 0 -40.333 7.83301 -67 23.5s-45.334 23.5 -56.001 23.5c-23.333 0 -39 -17 -47 -51c-8.66699 2 -16.334 3 -23.001 3c-7.33301 0 -16 -1 -26 -3l1 9
c3.33301 28.667 14.166 53 32.499 73s38.5 30 60.5 30c18 0 40.333 -7.83301 67 -23.5s47 -23.5 61 -23.5c22.667 0 37.667 16 45 48c9.33301 -2.66699 17 -4 23 -4c6.66699 0 14 1.33301 22 4zM586.003 337.001c0 -233.333 -86.999 -350 -260.999 -350
c-84.667 0 -149.667 29.333 -195 88c-48 62 -72 152.333 -72 271c0 114 22.667 201.667 68 263s111.666 92 198.999 92c174 0 261 -121.333 261 -364zM508.004 340.001c0 99.333 -18.333 174.667 -55 226c-32.667 45.333 -76 68 -130 68c-124 0 -186 -97 -186 -291
c0 -96 16.667 -169 50 -219c32 -47.333 77 -71 135 -71c124 0 186 95.667 186 287z" />
    <glyph glyph-name="Odieresis" unicode="&#xd6;" horiz-adv-x="645" 
d="M456 748c-10.667 2 -24.668 3 -42.001 3s-32 -1 -44 -3c1.33301 10 2 24.333 2 43s-0.666992 34.667 -2 48c12 -2 27 -3 45 -3c16.667 0 30.334 1 41.001 3c-1.33301 -13.333 -2 -29 -2 -47c0 -19.333 0.666992 -34 2 -44zM274.999 749c-10.667 1.33301 -25.667 2 -45 2
s-33.666 -0.666992 -42.999 -2c0.666992 8 1 22.667 1 44c0 22 -0.333008 37.667 -1 47c8 -0.666992 23 -1 45 -1c21.333 0 35.666 0.333008 42.999 1c-1.33301 -10.667 -2 -24.667 -2 -42c0 -18.667 0.666992 -35 2 -49zM585.999 337
c0 -233.333 -86.999 -350 -260.999 -350c-84.667 0 -149.667 29.333 -195 88c-48 62 -72 152.333 -72 271c0 114 22.667 201.667 68 263s111.666 92 198.999 92c174 0 261 -121.333 261 -364zM508 340c0 99.333 -18.333 174.667 -55 226c-32.667 45.333 -76 68 -130 68
c-124 0 -186 -97 -186 -291c0 -96 16.667 -169 50 -219c32 -47.333 77 -71 135 -71c124 0 186 95.667 186 287z" />
    <glyph glyph-name="multiply" unicode="&#xd7;" horiz-adv-x="570" 
d="M479 412l-128.997 -134c-14 -14.667 -21 -23.667 -21 -27c0 -1.33301 6 -8.33301 18 -21l130 -134c-20.667 -14 -36.334 -31 -47.001 -51l-126 141c-10 11.333 -16 17 -18 17c-3.33301 0 -11 -6.66699 -23 -20l-128 -140c-10.667 18 -25.334 33.667 -44.001 47l132 137
c12.667 13.333 19 21.333 19 24c0 4 -2.16699 7.66699 -6.5 11l-12.5 10l-130 133c18.667 15.333 34.334 32.333 47.001 51l125 -138c12 -13.333 19 -20 21 -20c3.33301 0 10.666 6.33301 21.999 19l128 141c9.33301 -16 23.666 -31.333 42.999 -46z" />
    <glyph glyph-name="Oslash" unicode="&#xd8;" horiz-adv-x="645" 
d="M586 337c0 -233.333 -86.998 -349.998 -260.998 -349.998c-57.333 0 -106 14.333 -146 43c-7.33301 5.33301 -12 8 -14 8c-2.66699 0 -6.33398 -4 -11.001 -12l-28 -48c-16 18.667 -30 29.667 -42 33l35 52c5.33301 8 8 13.667 8 17c0 1.33301 -3 6.66602 -9 15.999
c-40 63.333 -60 146.666 -60 249.999c0 114 22.667 201.667 68 263s111.666 92 198.999 92c56.667 0 104.667 -14.333 144 -43c8 -6 12.667 -9 14 -9c2 0 5 3 9 9c11.333 18 20.333 34.667 27 50c16 -16 30.333 -25.667 43 -29l-33 -54c-4.66699 -7.33301 -7 -13.333 -7 -18
c0 -3.33301 2 -8.33301 6 -15c38.667 -62.667 58 -147.667 58 -255zM439.002 576.002c0 3.33301 -4.33398 8.99902 -13.001 16.999c-29.333 27.333 -63.666 41 -102.999 41c-124 0 -186 -97 -186 -291c0 -63.333 8.66699 -118.666 26 -165.999c6 -16.667 9.33301 -25 10 -25
c2.66699 0 5 2.16699 7 6.5s3.66699 8.5 5 12.5l245 386c6 10 9 16.333 9 19zM508.001 340.001c0 63.333 -9.33398 119.333 -28.001 168c-1.33301 4.66699 -2.66602 9.66699 -3.99902 15s-3.33301 8 -6 8c-2 0 -4 -2.66699 -6 -8c-3.33301 -8 -5.33301 -12.333 -6 -13
l-243 -382c-6 -10 -9 -16.667 -9 -20c0 -4 3.66699 -9.33301 11 -16c28.667 -26 63.667 -39 105 -39c124 0 186 95.667 186 287z" />
    <glyph glyph-name="Ugrave" unicode="&#xd9;" horiz-adv-x="614" 
d="M347 728c-5.33301 0.666992 -15 1 -29 1h-1c-12.667 0 -22 -0.333008 -28 -1l-118 143c16.667 1.33301 33.667 2 51 2c18 0 33.667 -0.666992 47 -2zM531 238c0 -88 -17.5 -151.833 -52.5 -191.5s-92.167 -59.5 -171.5 -59.5c-72.667 0 -127.667 21 -165 63
s-56 102 -56 180v8c0 27.333 0.333008 66.833 1 118.5s1 91.834 1 120.501c0 80 -0.666992 152.333 -2 217c17.333 -3.33301 31.333 -5 42 -5c12 0 24 1.66699 36 5c-0.666992 -38.667 -1 -109.334 -1 -212.001c0 -105.333 0.333008 -187 1 -245
c1.33301 -119.333 49.666 -179 144.999 -179c52 0 89 15 111 45c20.667 28 31.334 73.667 32.001 137l2 263c0 67.333 -0.666992 131 -2 191c16 -3.33301 30.667 -5 44 -5c12 0 23.667 1.66699 35 5c-0.666992 -42 -1 -102.333 -1 -181c0 -30 0.333008 -74.333 1 -133v-138
v-4z" />
    <glyph glyph-name="Uacute" unicode="&#xda;" horiz-adv-x="614" 
d="M414 859c-29.333 -32 -67.3311 -77.667 -113.998 -137c-14 2 -23.667 3 -29 3c-12.667 0 -26.334 -1 -41.001 -3l82 137c9.33301 2.66699 26 4 50 4c25.333 0 42.666 -1.33301 51.999 -4zM531.002 238c0 -88 -17.5 -151.833 -52.5 -191.5s-92.167 -59.5 -171.5 -59.5
c-72.667 0 -127.667 21 -165 63s-56 102 -56 180v8c0 27.333 0.333008 66.833 1 118.5s1 91.834 1 120.501c0 80 -0.666992 152.333 -2 217c17.333 -3.33301 31.333 -5 42 -5c12 0 24 1.66699 36 5c-0.666992 -38.667 -1 -109.334 -1 -212.001
c0 -105.333 0.333008 -187 1 -245c1.33301 -119.333 49.666 -179 144.999 -179c52 0 89 15 111 45c20.667 28 31.334 73.667 32.001 137l2 263c0 67.333 -0.666992 131 -2 191c16 -3.33301 30.667 -5 44 -5c12 0 23.667 1.66699 35 5c-0.666992 -42 -1 -102.333 -1 -181
c0 -30 0.333008 -74.333 1 -133v-138v-4z" />
    <glyph glyph-name="Ucircumflex" unicode="&#xdb;" horiz-adv-x="614" 
d="M437 726c-14.667 2 -28.665 3.00195 -41.998 3.00195c-5.33301 0 -15 -1 -29 -3c-8.66699 14 -22.334 32 -41.001 54l-10.5 17c-3.66699 6 -7.5 9 -11.5 9c-4.66699 0 -8.83398 -3.16699 -12.501 -9.5l-10.5 -17.5c-17.333 -20.667 -30.666 -38.334 -39.999 -53.001
c-14 2 -23.667 3 -29 3c-13.333 0 -27.333 -1 -42 -3c24 31.333 56.333 77 97 137c17.333 -2 29.666 -3 36.999 -3s19.666 1 36.999 3c9.33301 -16 28 -43 56 -81c26.667 -34.667 40.334 -53.334 41.001 -56.001zM531.002 238.002c0 -88 -17.5 -151.833 -52.5 -191.5
s-92.167 -59.5 -171.5 -59.5c-72.667 0 -127.667 21 -165 63s-56 102 -56 180v8c0 27.333 0.333008 66.833 1 118.5s1 91.834 1 120.501c0 80 -0.666992 152.333 -2 217c17.333 -3.33301 31.333 -5 42 -5c12 0 24 1.66699 36 5c-0.666992 -38.667 -1 -109.334 -1 -212.001
c0 -105.333 0.333008 -187 1 -245c1.33301 -119.333 49.666 -179 144.999 -179c52 0 89 15 111 45c20.667 28 31.334 73.667 32.001 137l2 263c0 67.333 -0.666992 131 -2 191c16 -3.33301 30.667 -5 44 -5c12 0 23.667 1.66699 35 5c-0.666992 -42 -1 -102.333 -1 -181
c0 -30 0.333008 -74.333 1 -133v-138v-4z" />
    <glyph glyph-name="Udieresis" unicode="&#xdc;" horiz-adv-x="614" 
d="M438 748c-10.667 2 -24.668 3 -42.001 3s-32 -1 -44 -3c1.33301 10 2 24.333 2 43s-0.666992 34.667 -2 48c12 -2 27 -3 45 -3c16.667 0 30.334 1 41.001 3c-1.33301 -13.333 -2 -29 -2 -47c0 -19.333 0.666992 -34 2 -44zM256.999 749c-10.667 1.33301 -25.667 2 -45 2
s-33.666 -0.666992 -42.999 -2c0.666992 8 1 22.667 1 44c0 22 -0.333008 37.667 -1 47c8 -0.666992 23 -1 45 -1c21.333 0 35.666 0.333008 42.999 1c-1.33301 -10.667 -2 -24.667 -2 -42c0 -18.667 0.666992 -35 2 -49zM530.999 238c0 -88 -17.5 -151.833 -52.5 -191.5
s-92.167 -59.5 -171.5 -59.5c-72.667 0 -127.667 21 -165 63s-56 102 -56 180v8c0 27.333 0.333008 66.833 1 118.5s1 91.834 1 120.501c0 80 -0.666992 152.333 -2 217c17.333 -3.33301 31.333 -5 42 -5c12 0 24 1.66699 36 5c-0.666992 -38.667 -1 -109.334 -1 -212.001
c0 -105.333 0.333008 -187 1 -245c1.33301 -119.333 49.666 -179 144.999 -179c52 0 89 15 111 45c20.667 28 31.334 73.667 32.001 137l2 263c0 67.333 -0.666992 131 -2 191c16 -3.33301 30.667 -5 44 -5c12 0 23.667 1.66699 35 5c-0.666992 -42 -1 -102.333 -1 -181
c0 -30 0.333008 -74.333 1 -133v-138v-4z" />
    <glyph glyph-name="Yacute" unicode="&#xdd;" horiz-adv-x="556" 
d="M428 859c-29.333 -32 -67.332 -77.667 -113.999 -137c-14 2 -23.667 3 -29 3c-12.667 0 -26.334 -1 -41.001 -3l82 137c13.333 0.666992 30.333 1 51 1c21.333 0 38.333 -0.333008 51 -1zM541.001 694l-201.998 -364.001c-10.667 -20.667 -17.334 -36.667 -20.001 -48
s-4 -29.666 -4 -54.999c0 -66 0.333008 -141.667 1 -227c-14 2.66699 -26.667 4 -38 4s-24.333 -1.33301 -39 -4l2 224c0 40 -8 75.333 -24 106l-202 364c18 -2.66699 33.667 -4 47 -4s27.666 1.33301 42.999 4l149 -275c6 -11.333 11.667 -27.666 17 -48.999
c2.66699 -11.333 5.66699 -17 9 -17c2.66699 0 5.66699 6.16699 9 18.5s10.333 28.166 21 47.499l146 275c14 -2.66699 27.333 -4 40 -4c14 0 29 1.33301 45 4z" />
    <glyph glyph-name="Thorn" unicode="&#xde;" horiz-adv-x="553" 
d="M508 352c0 -70.667 -22.3359 -124.999 -67.0029 -162.999c-42 -35.333 -99.333 -53 -172 -53c-10 0 -25.333 0.333008 -46 1h-45c-7.33301 0 -11.833 -0.833008 -13.5 -2.5s-2.5 -6.16699 -2.5 -13.5v-22c0 -2.66699 0.666992 -35.667 2 -99
c-11.333 2.66699 -24.666 4 -39.999 4c-10.667 0 -24 -1.33301 -40 -4c2 102 3 216 3 342c0 103.333 -1 220.666 -3 351.999c10.667 -2 23.334 -3 38.001 -3c15.333 0 29.333 1 42 3c-0.666992 -20 -1 -59 -1 -117c0 -6 5.66699 -9 17 -9s28 0.333008 50 1s38.667 1 50 1
c72.667 0 128.834 -18.5 168.501 -55.5s59.5 -91.167 59.5 -162.5zM425.997 351.001c0 40 -10.666 73.3359 -31.999 100.003c-26 32.667 -63.333 49 -112 49c-18 0 -50 -1 -96 -3c-10 -0.666992 -16.333 -1.83398 -19 -3.50098s-4 -6.5 -4 -14.5
c-0.666992 -19.333 -1 -47.333 -1 -84v-162c0 -10.667 1 -17.334 3 -20.001s7 -4.33398 15 -5.00098c16 -0.666992 37 -1 63 -1c67.333 0 115.666 12.667 144.999 38c25.333 22.667 38 58 38 106z" />
    <glyph glyph-name="germandbls" unicode="&#xdf;" horiz-adv-x="555" 
d="M517 186c0 -60 -17.833 -107.835 -53.5 -143.502s-83.5 -53.5 -143.5 -53.5c-53.333 0 -96.666 8.66699 -129.999 26c12 20.667 18 43 18 67v2c33.333 -20 69.666 -30 108.999 -30c82 0 123 45.667 123 137c0 67.333 -22.333 114.666 -67 141.999
c-34 20.667 -84 31 -150 31l-23 -1c3.33301 13.333 5 26 5 38c0 12.667 -1.66699 24.334 -5 35.001c7.33301 -0.666992 17.333 -1 30 -1c47.333 0 82 7.33301 104 22c30 20 45 50 45 90c0 68.667 -34 103 -102 103c-49.333 0 -83.333 -17 -102 -51
c-13.333 -25.333 -20 -66 -20 -122v-477c-16 4 -29 6 -39 6c-11.333 0 -23 -2 -35 -6l1 180l-1 300c0 156.667 65.333 235 196 235c59.333 0 104.666 -16 135.999 -48c28.667 -29.333 43 -68.666 43 -117.999c0 -61.333 -31.667 -104.666 -95 -129.999
c-5.33301 -2 -15.666 -4 -30.999 -6c-10.667 -1.33301 -16 -4 -16 -8c0 -3.33301 5.16699 -5.83301 15.5 -7.5s20.5 -3.16699 30.5 -4.5c104.667 -21.333 157 -90.333 157 -207z" />
    <glyph glyph-name="agrave" unicode="&#xe0;" horiz-adv-x="503" 
d="M320 578c-5.33301 0.666992 -15 1 -29 1h-1c-12.667 0 -22 -0.333008 -28 -1l-118 143c16.667 1.33301 33.667 2 51 2c18 0 33.667 -0.666992 47 -2zM437 0l-13 0.00195312c-28.667 0 -50 -1.33301 -64 -4c-2 23.333 -3 45.666 -3 66.999c0 9.33301 -1.33301 14 -4 14
c-2 0 -5.33301 -5.33301 -10 -16c-22 -49.333 -65.667 -74 -131 -74c-50.667 0 -89.5 12.667 -116.5 38s-40.5 60.666 -40.5 105.999c0 70.667 30 118.334 90 143.001c26 10.667 82.333 20 169 28c24.667 2 37 13 37 33v11c0 37.333 -7.83301 63.5 -23.5 78.5
s-41.5 22.5 -77.5 22.5c-38 0 -64.667 -5.66699 -80 -17s-23 -29.666 -23 -54.999c0 -3.33301 0.333008 -7.5 1 -12.5s1 -7.83301 1 -8.5c-11.333 2 -24 3 -38 3c-11.333 0 -23.333 -1 -36 -3c0 1.33301 -0.333008 4.66602 -1 9.99902s-1 8.66602 -1 9.99902
c0 47.333 17.667 83.333 53 108c32 22 74 33 126 33c81.333 0 134 -26.667 158 -80c10 -22.667 15 -54.667 15 -96v-100c-0.666992 -44.667 -1 -74 -1 -88c0 -44 4.33301 -94.333 13 -151zM353 248.002v2.00098c0 2.66699 -1 4 -3 4c0.666992 0 -3 -1 -11 -3
c-15.333 -3.33301 -36.333 -6.33301 -63 -9c-15.333 -1.33301 -37 -4 -65 -8c-56 -12.667 -84 -47.334 -84 -104.001c0 -24 8.5 -42.833 25.5 -56.5s37.833 -20.5 62.5 -20.5c70 0 113 30 129 90c4.66699 18 7 36.333 7 55c0 6 0.333008 14.333 1 25s1 19 1 25z" />
    <glyph glyph-name="aacute" unicode="&#xe1;" horiz-adv-x="503" 
d="M369 709c-29.333 -32 -67.3311 -77.667 -113.998 -137c-14 2 -23.667 3 -29 3c-12.667 0 -26.334 -1 -41.001 -3l82 137c9.33301 2.66699 26 4 50 4c25.333 0 42.666 -1.33301 51.999 -4zM437.002 0l-13 0.00195312c-28.667 0 -50 -1.33301 -64 -4
c-2 23.333 -3 45.666 -3 66.999c0 9.33301 -1.33301 14 -4 14c-2 0 -5.33301 -5.33301 -10 -16c-22 -49.333 -65.667 -74 -131 -74c-50.667 0 -89.5 12.667 -116.5 38s-40.5 60.666 -40.5 105.999c0 70.667 30 118.334 90 143.001c26 10.667 82.333 20 169 28
c24.667 2 37 13 37 33v11c0 37.333 -7.83301 63.5 -23.5 78.5s-41.5 22.5 -77.5 22.5c-38 0 -64.667 -5.66699 -80 -17s-23 -29.666 -23 -54.999c0 -3.33301 0.333008 -7.5 1 -12.5s1 -7.83301 1 -8.5c-11.333 2 -24 3 -38 3c-11.333 0 -23.333 -1 -36 -3
c0 1.33301 -0.333008 4.66602 -1 9.99902s-1 8.66602 -1 9.99902c0 47.333 17.667 83.333 53 108c32 22 74 33 126 33c81.333 0 134 -26.667 158 -80c10 -22.667 15 -54.667 15 -96v-100c-0.666992 -44.667 -1 -74 -1 -88c0 -44 4.33301 -94.333 13 -151zM353.002 248.002
v2.00098c0 2.66699 -1 4 -3 4c0.666992 0 -3 -1 -11 -3c-15.333 -3.33301 -36.333 -6.33301 -63 -9c-15.333 -1.33301 -37 -4 -65 -8c-56 -12.667 -84 -47.334 -84 -104.001c0 -24 8.5 -42.833 25.5 -56.5s37.833 -20.5 62.5 -20.5c70 0 113 30 129 90
c4.66699 18 7 36.333 7 55c0 6 0.333008 14.333 1 25s1 19 1 25z" />
    <glyph glyph-name="acircumflex" unicode="&#xe2;" horiz-adv-x="503" 
d="M375 576c-14.667 2 -28.6641 3.00098 -41.9971 3.00098c-5.33301 0 -15 -1 -29 -3c-8.66699 14 -22.334 32 -41.001 54l-10.5 17c-3.66699 6 -7.5 9 -11.5 9c-4.66699 0 -8.83398 -3.16699 -12.501 -9.5l-10.5 -17.5c-20 -24 -33.667 -41.667 -41 -53
c-14 2 -23.333 3 -28 3c-13.333 0 -27.333 -1 -42 -3c24 31.333 56.333 77 97 137c17.333 -2 29.666 -3 36.999 -3s19.666 1 36.999 3c9.33301 -16 28 -43 56 -81c26.667 -34.667 40.334 -53.334 41.001 -56.001zM437.003 0.000976562l-13 0.00195312
c-28.667 0 -50 -1.33301 -64 -4c-2 23.333 -3 45.666 -3 66.999c0 9.33301 -1.33301 14 -4 14c-2 0 -5.33301 -5.33301 -10 -16c-22 -49.333 -65.667 -74 -131 -74c-50.667 0 -89.5 12.667 -116.5 38s-40.5 60.666 -40.5 105.999c0 70.667 30 118.334 90 143.001
c26 10.667 82.333 20 169 28c24.667 2 37 13 37 33v11c0 37.333 -7.83301 63.5 -23.5 78.5s-41.5 22.5 -77.5 22.5c-38 0 -64.667 -5.66699 -80 -17s-23 -29.666 -23 -54.999c0 -3.33301 0.333008 -7.5 1 -12.5s1 -7.83301 1 -8.5c-11.333 2 -24 3 -38 3
c-11.333 0 -23.333 -1 -36 -3c0 1.33301 -0.333008 4.66602 -1 9.99902s-1 8.66602 -1 9.99902c0 47.333 17.667 83.333 53 108c32 22 74 33 126 33c81.333 0 134 -26.667 158 -80c10 -22.667 15 -54.667 15 -96v-100c-0.666992 -44.667 -1 -74 -1 -88
c0 -44 4.33301 -94.333 13 -151zM353.003 248.003v2.00098c0 2.66699 -1 4 -3 4c0.666992 0 -3 -1 -11 -3c-15.333 -3.33301 -36.333 -6.33301 -63 -9c-15.333 -1.33301 -37 -4 -65 -8c-56 -12.667 -84 -47.334 -84 -104.001c0 -24 8.5 -42.833 25.5 -56.5
s37.833 -20.5 62.5 -20.5c70 0 113 30 129 90c4.66699 18 7 36.333 7 55c0 6 0.333008 14.333 1 25s1 19 1 25z" />
    <glyph glyph-name="atilde" unicode="&#xe3;" horiz-adv-x="503" 
d="M397 692l-0.99707 -8.99902c-2.66699 -26.667 -11.667 -49.334 -27 -68.001c-17.333 -21.333 -39 -32 -65 -32c-18 0 -40.333 7.83301 -67 23.5s-45.334 23.5 -56.001 23.5c-23.333 0 -39 -17 -47 -51c-8.66699 2 -16.334 3 -23.001 3c-7.33301 0 -16 -1 -26 -3l1 9
c3.33301 28.667 14.166 53 32.499 73s38.5 30 60.5 30c18 0 40.333 -7.83301 67 -23.5s47 -23.5 61 -23.5c22.667 0 37.667 16 45 48c9.33301 -2.66699 17 -4 23 -4c6.66699 0 14 1.33301 22 4zM437.003 0.000976562l-13 0.00195312c-28.667 0 -50 -1.33301 -64 -4
c-2 23.333 -3 45.666 -3 66.999c0 9.33301 -1.33301 14 -4 14c-2 0 -5.33301 -5.33301 -10 -16c-22 -49.333 -65.667 -74 -131 -74c-50.667 0 -89.5 12.667 -116.5 38s-40.5 60.666 -40.5 105.999c0 70.667 30 118.334 90 143.001c26 10.667 82.333 20 169 28
c24.667 2 37 13 37 33v11c0 37.333 -7.83301 63.5 -23.5 78.5s-41.5 22.5 -77.5 22.5c-38 0 -64.667 -5.66699 -80 -17s-23 -29.666 -23 -54.999c0 -3.33301 0.333008 -7.5 1 -12.5s1 -7.83301 1 -8.5c-11.333 2 -24 3 -38 3c-11.333 0 -23.333 -1 -36 -3
c0 1.33301 -0.333008 4.66602 -1 9.99902s-1 8.66602 -1 9.99902c0 47.333 17.667 83.333 53 108c32 22 74 33 126 33c81.333 0 134 -26.667 158 -80c10 -22.667 15 -54.667 15 -96v-100c-0.666992 -44.667 -1 -74 -1 -88c0 -44 4.33301 -94.333 13 -151zM353.003 248.003
v2.00098c0 2.66699 -1 4 -3 4c0.666992 0 -3 -1 -11 -3c-15.333 -3.33301 -36.333 -6.33301 -63 -9c-15.333 -1.33301 -37 -4 -65 -8c-56 -12.667 -84 -47.334 -84 -104.001c0 -24 8.5 -42.833 25.5 -56.5s37.833 -20.5 62.5 -20.5c70 0 113 30 129 90
c4.66699 18 7 36.333 7 55c0 6 0.333008 14.333 1 25s1 19 1 25z" />
    <glyph glyph-name="adieresis" unicode="&#xe4;" horiz-adv-x="503" 
d="M384 598c-10.667 2 -24.668 3.00195 -42.001 3.00195s-32 -1 -44 -3c1.33301 10 2 24.333 2 43s-0.666992 34.667 -2 48c12 -2 27 -3 45 -3c16.667 0 30.334 1 41.001 3c-0.666992 -6.66699 -1 -16.334 -1 -29.001v-33c0 -14.667 0.333008 -24.334 1 -29.001z
M202.999 599.002c-10.667 1.33301 -25.667 2 -45 2s-33.666 -0.666992 -42.999 -2c0.666992 8 1 22.667 1 44c0 22 -0.333008 37.667 -1 47c8 -0.666992 23 -1 45 -1c21.333 0 35.666 0.333008 42.999 1c-1.33301 -10.667 -2 -24.667 -2 -42c0 -18.667 0.666992 -35 2 -49z
M436.999 0.00195312l-13 0.00195312c-28.667 0 -50 -1.33301 -64 -4c-2 23.333 -3 45.666 -3 66.999c0 9.33301 -1.33301 14 -4 14c-2 0 -5.33301 -5.33301 -10 -16c-22 -49.333 -65.667 -74 -131 -74c-50.667 0 -89.5 12.667 -116.5 38s-40.5 60.666 -40.5 105.999
c0 70.667 30 118.334 90 143.001c26 10.667 82.333 20 169 28c24.667 2 37 13 37 33v11c0 37.333 -7.83301 63.5 -23.5 78.5s-41.5 22.5 -77.5 22.5c-38 0 -64.667 -5.66699 -80 -17s-23 -29.666 -23 -54.999c0 -3.33301 0.333008 -7.5 1 -12.5s1 -7.83301 1 -8.5
c-11.333 2 -24 3 -38 3c-11.333 0 -23.333 -1 -36 -3c0 1.33301 -0.333008 4.66602 -1 9.99902s-1 8.66602 -1 9.99902c0 47.333 17.667 83.333 53 108c32 22 74 33 126 33c81.333 0 134 -26.667 158 -80c10 -22.667 15 -54.667 15 -96v-100
c-0.666992 -44.667 -1 -74 -1 -88c0 -44 4.33301 -94.333 13 -151zM352.999 248.004v2.00098c0 2.66699 -1 4 -3 4c0.666992 0 -3 -1 -11 -3c-15.333 -3.33301 -36.333 -6.33301 -63 -9c-15.333 -1.33301 -37 -4 -65 -8c-56 -12.667 -84 -47.334 -84 -104.001
c0 -24 8.5 -42.833 25.5 -56.5s37.833 -20.5 62.5 -20.5c70 0 113 30 129 90c4.66699 18 7 36.333 7 55c0 6 0.333008 14.333 1 25s1 19 1 25z" />
    <glyph glyph-name="aring" unicode="&#xe5;" horiz-adv-x="503" 
d="M348 652c0 -32 -9.83203 -56.833 -29.499 -74.5s-42.834 -26.5 -69.501 -26.5s-49 8.33301 -67 25c-20 18 -30 43 -30 75c0 31.333 10.333 56.333 31 75c18 16.667 40.333 25 67 25s49 -8.33301 67 -25c20.667 -18 31 -42.667 31 -74zM437.001 0l-13 0.00195312
c-28.667 0 -50 -1.33301 -64 -4c-2 23.333 -3 45.666 -3 66.999c0 9.33301 -1.33301 14 -4 14c-2 0 -5.33301 -5.33301 -10 -16c-22 -49.333 -65.667 -74 -131 -74c-50.667 0 -89.5 12.667 -116.5 38s-40.5 60.666 -40.5 105.999c0 70.667 30 118.334 90 143.001
c26 10.667 82.333 20 169 28c24.667 2 37 13 37 33v11c0 37.333 -7.83301 63.5 -23.5 78.5s-41.5 22.5 -77.5 22.5c-38 0 -64.667 -5.66699 -80 -17s-23 -29.666 -23 -54.999c0 -3.33301 0.333008 -7.5 1 -12.5s1 -7.83301 1 -8.5c-11.333 2 -24 3 -38 3
c-11.333 0 -23.333 -1 -36 -3c0 1.33301 -0.333008 4.66602 -1 9.99902s-1 8.66602 -1 9.99902c0 47.333 17.667 83.333 53 108c32 22 74 33 126 33c81.333 0 134 -26.667 158 -80c10 -22.667 15 -54.667 15 -96v-100c-0.666992 -44.667 -1 -74 -1 -88
c0 -44 4.33301 -94.333 13 -151zM306.001 651.002c0 19.333 -5.49902 34.3311 -16.499 44.998s-24.167 16 -39.5 16s-28.5 -5.33301 -39.5 -16s-16.5 -25.667 -16.5 -45s5.33301 -34.166 16 -44.499s23.667 -15.5 39 -15.5s28.666 5.33301 39.999 16s17 25.334 17 44.001z
M353.002 248v2.00098c0 2.66699 -1 4 -3 4c0.666992 0 -3 -1 -11 -3c-15.333 -3.33301 -36.333 -6.33301 -63 -9c-15.333 -1.33301 -37 -4 -65 -8c-56 -12.667 -84 -47.334 -84 -104.001c0 -24 8.5 -42.833 25.5 -56.5s37.833 -20.5 62.5 -20.5c70 0 113 30 129 90
c4.66699 18 7 36.333 7 55c0 6 0.333008 14.333 1 25s1 19 1 25z" />
    <glyph glyph-name="ae" unicode="&#xe6;" horiz-adv-x="787" 
d="M740 143c-16.667 -104.667 -79.3262 -157 -187.993 -157c-60.667 0 -107.667 16.667 -141 50c-4.66699 4 -10.334 11.667 -17.001 23c-4.66699 8.66699 -8.33398 13 -11.001 13c-1.33301 0 -5.83301 -6 -13.5 -18s-12.5 -19 -14.5 -21
c-30.667 -30.667 -75.334 -46 -134.001 -46c-110.667 0 -166 48 -166 144c0 68.667 28.667 115.667 86 141c32 14.667 89.667 24.334 173 29.001c16.667 1.33301 27 3.5 31 6.5s6 10.5 6 22.5v16c0 37.333 -7.83301 63.5 -23.5 78.5s-41.5 22.5 -77.5 22.5
c-38 0 -64.667 -5.66699 -80 -17s-23 -29.666 -23 -54.999c0 -3.33301 0.333008 -7.5 1 -12.5s1 -7.83301 1 -8.5c-11.333 2 -24 3 -38 3c-11.333 0 -23.333 -1 -36 -3c0 1.33301 -0.333008 4.66602 -1 9.99902s-1 8.66602 -1 9.99902c0 47.333 17.667 83.333 53 108
c32 22 74 33 126 33c71.333 0 117.666 -19.333 138.999 -58c8 -14.667 12.667 -22 14 -22c3.33301 0 8.33301 4.66699 15 14c10 13.333 17.333 22.333 22 27c27.333 26.667 65 40 113 40c57.333 0 102.166 -21 134.499 -63s48.5 -104.333 48.5 -187
c0 -4 -0.333008 -13.667 -1 -29c-38.667 2.66699 -135.334 4 -290.001 4c-9.33301 0 -15.333 -1.66699 -18 -5s-4 -9 -4 -17c0 -48 9.66699 -86.667 29 -116c22.667 -34 57 -51 103 -51c62.667 0 100 31 112 93c20 -2.66699 36.333 -4 49 -4
c7.33301 0 14.666 0.666992 21.999 2zM657.008 327c0 5.33301 -0.333008 10.333 -1 15c-10 72 -45.667 108 -107 108c-31.333 0 -58 -12 -80 -36s-36.333 -55.667 -43 -95c-0.666992 -4 -1 -7.66699 -1 -11c0 -8.66699 7.33301 -13 22 -13c32.667 -0.666992 54.667 -1 66 -1
c39.333 0 79 1.33301 119 4c16.667 1.33301 25 11 25 29zM353.008 234c0 8 -4.66699 12.001 -14 12.001h-9c-5.33301 0 -23.333 -1.33301 -54 -4c-15.333 -1.33301 -37 -4 -65 -8c-56 -12.667 -84 -47.334 -84 -104.001c0 -51.333 32.333 -77 97 -77
c40.667 0 72.167 12.667 94.5 38s33.5 61 33.5 107c0 6 0.333008 12 1 18v18z" />
    <glyph glyph-name="ccedilla" unicode="&#xe7;" horiz-adv-x="465" 
d="M426 334c-16.667 2.66699 -30.3281 4 -40.9951 4c-12.667 0 -25.334 -1.66699 -38.001 -5l-2 16c-8 66 -39.667 99 -95 99c-76.667 0 -115 -69.333 -115 -208c0 -126 37.333 -189 112 -189c31.333 0 55.833 11.5 73.5 34.5s26.834 54.167 27.501 93.5
c13.333 -6.66699 28.666 -10 45.999 -10c11.333 0 21.666 1.66699 30.999 5c-11.333 -110 -58.333 -171.667 -141 -185c-20.667 -3.33301 -31 -12.333 -31 -27c0 -2 1.33301 -3 4 -3c1.33301 0 3.16602 0.333008 5.49902 1s3.83301 1 4.5 1c20.667 0 38.667 -6 54 -18
s23 -27 23 -45c0 -24 -11 -43.5 -33 -58.5s-50 -22.5 -84 -22.5c-24 0 -48 5 -72 15c5.33301 10.667 8.66602 23 9.99902 37c21.333 -6 40 -9 56 -9c38 0 57 12 57 36c0 16 -10.333 24 -31 24c-7.33301 0 -14.333 -1 -21 -3c-6.66699 2.66699 -18.334 6 -35.001 10
c4 9.33301 10 21.333 18 36c6 12 9 18.667 9 20c0 3.33301 -4 5.66602 -12 6.99902c-100.667 18.667 -151 102.334 -151 251.001c0 88 17.5 155.667 52.5 203s85.5 71 151.5 71c98.667 0 153.667 -54 165 -162z" />
    <glyph glyph-name="egrave" unicode="&#xe8;" horiz-adv-x="493" 
d="M329 578c-5.33301 0.666992 -15 1 -29 1h-1c-12.667 0 -22 -0.333008 -28 -1l-118 143c16.667 1.33301 33.667 2 51 2c18 0 33.667 -0.666992 47 -2zM446 143c-16.667 -104.667 -79.332 -157 -187.999 -157c-136 0 -204 83.333 -204 250c0 86.667 18.5 155 55.5 205
s87.5 75 151.5 75c57.333 0 102 -21 134 -63s48 -104.333 48 -187c0 -4 -0.333008 -13.667 -1 -29c-39.333 2.66699 -93 4 -161 4h-132c-8 0 -13 -1.16699 -15 -3.5s-3 -6.83301 -3 -13.5v-7c0 -52 11.5 -92.5 34.5 -121.5s55.167 -43.5 96.5 -43.5c63.333 0 101 31 113 93
c20 -2.66699 36.333 -4 49 -4c7.33301 0 14.666 0.666992 21.999 2zM362.002 327c0 5.33301 -0.332031 10.333 -0.999023 15c-10 72 -45.667 108 -107 108c-31.333 0 -57.833 -12 -79.5 -36s-35.834 -55.667 -42.501 -95c-0.666992 -4 -1 -7.66699 -1 -11
c0 -8.66699 7.33301 -13 22 -13c32.667 -0.666992 54.334 -1 65.001 -1c40 0 80 1.33301 120 4c11.333 0.666992 18.166 2.5 20.499 5.5s3.5 10.833 3.5 23.5z" />
    <glyph glyph-name="eacute" unicode="&#xe9;" horiz-adv-x="493" 
d="M369 709c-29.333 -32 -67.3311 -77.667 -113.998 -137c-14 2 -23.667 3 -29 3c-12.667 0 -26.334 -1 -41.001 -3l82 137c9.33301 2.66699 26 4 50 4c25.333 0 42.666 -1.33301 51.999 -4zM446.002 143c-16.667 -104.667 -79.332 -157 -187.999 -157
c-136 0 -204 83.333 -204 250c0 86.667 18.5 155 55.5 205s87.5 75 151.5 75c57.333 0 102 -21 134 -63s48 -104.333 48 -187c0 -4 -0.333008 -13.667 -1 -29c-39.333 2.66699 -93 4 -161 4h-132c-8 0 -13 -1.16699 -15 -3.5s-3 -6.83301 -3 -13.5v-7
c0 -52 11.5 -92.5 34.5 -121.5s55.167 -43.5 96.5 -43.5c63.333 0 101 31 113 93c20 -2.66699 36.333 -4 49 -4c7.33301 0 14.666 0.666992 21.999 2zM362.004 327c0 5.33301 -0.332031 10.333 -0.999023 15c-10 72 -45.667 108 -107 108c-31.333 0 -57.833 -12 -79.5 -36
s-35.834 -55.667 -42.501 -95c-0.666992 -4 -1 -7.66699 -1 -11c0 -8.66699 7.33301 -13 22 -13c32.667 -0.666992 54.334 -1 65.001 -1c40 0 80 1.33301 120 4c11.333 0.666992 18.166 2.5 20.499 5.5s3.5 10.833 3.5 23.5z" />
    <glyph glyph-name="ecircumflex" unicode="&#xea;" horiz-adv-x="493" 
d="M384 576c-14.667 2 -28.6641 3.00098 -41.9971 3.00098c-5.33301 0 -15 -1 -29 -3c-8.66699 14 -22.334 32 -41.001 54l-10.5 17c-3.66699 6 -7.5 9 -11.5 9c-4.66699 0 -8.83398 -3.16699 -12.501 -9.5l-10.5 -17.5c-20 -24 -33.667 -41.667 -41 -53
c-14 2 -23.333 3 -28 3c-13.333 0 -27.333 -1 -42 -3c24 31.333 56.333 77 97 137c17.333 -2 29.666 -3 36.999 -3s19.666 1 36.999 3c9.33301 -16 28 -43 56 -81c26.667 -34.667 40.334 -53.334 41.001 -56.001zM446.003 143.001
c-16.667 -104.667 -79.332 -157 -187.999 -157c-136 0 -204 83.333 -204 250c0 86.667 18.5 155 55.5 205s87.5 75 151.5 75c57.333 0 102 -21 134 -63s48 -104.333 48 -187c0 -4 -0.333008 -13.667 -1 -29c-39.333 2.66699 -93 4 -161 4h-132c-8 0 -13 -1.16699 -15 -3.5
s-3 -6.83301 -3 -13.5v-7c0 -52 11.5 -92.5 34.5 -121.5s55.167 -43.5 96.5 -43.5c63.333 0 101 31 113 93c20 -2.66699 36.333 -4 49 -4c7.33301 0 14.666 0.666992 21.999 2zM362.005 327.001c0 5.33301 -0.332031 10.333 -0.999023 15c-10 72 -45.667 108 -107 108
c-31.333 0 -57.833 -12 -79.5 -36s-35.834 -55.667 -42.501 -95c-0.666992 -4 -1 -7.66699 -1 -11c0 -8.66699 7.33301 -13 22 -13c32.667 -0.666992 54.334 -1 65.001 -1c40 0 80 1.33301 120 4c11.333 0.666992 18.166 2.5 20.499 5.5s3.5 10.833 3.5 23.5z" />
    <glyph glyph-name="edieresis" unicode="&#xeb;" horiz-adv-x="493" 
d="M393 598c-10.667 2 -24.668 3 -42.001 3s-32 -1 -44 -3c1.33301 10 2 24.333 2 43s-0.666992 34.667 -2 48c12 -2 27 -3 45 -3c16.667 0 30.334 1 41.001 3c-1.33301 -13.333 -2 -29 -2 -47c0 -19.333 0.666992 -34 2 -44zM211.999 599c-10.667 1.33301 -25.667 2 -45 2
s-33.666 -0.666992 -42.999 -2c0.666992 8 1 22.667 1 44c0 22 -0.333008 37.667 -1 47c8 -0.666992 23 -1 45 -1c21.333 0 35.666 0.333008 42.999 1c-1.33301 -10.667 -2 -24.667 -2 -42c0 -18.667 0.666992 -35 2 -49zM445.999 143
c-16.667 -104.667 -79.332 -157 -187.999 -157c-136 0 -204 83.333 -204 250c0 86.667 18.5 155 55.5 205s87.5 75 151.5 75c57.333 0 102 -21 134 -63s48 -104.333 48 -187c0 -4 -0.333008 -13.667 -1 -29c-39.333 2.66699 -93 4 -161 4h-132c-8 0 -13 -1.16699 -15 -3.5
s-3 -6.83301 -3 -13.5v-7c0 -52 11.5 -92.5 34.5 -121.5s55.167 -43.5 96.5 -43.5c63.333 0 101 31 113 93c20 -2.66699 36.333 -4 49 -4c7.33301 0 14.666 0.666992 21.999 2zM362.001 327c0 5.33301 -0.332031 10.333 -0.999023 15c-10 72 -45.667 108 -107 108
c-31.333 0 -57.833 -12 -79.5 -36s-35.834 -55.667 -42.501 -95c-0.666992 -4 -1 -7.66699 -1 -11c0 -8.66699 7.33301 -13 22 -13c32.667 -0.666992 54.334 -1 65.001 -1c40 0 80 1.33301 120 4c11.333 0.666992 18.166 2.5 20.499 5.5s3.5 10.833 3.5 23.5z" />
    <glyph glyph-name="igrave" unicode="&#xec;" 
d="M176 578c-5.33301 0.666992 -15 1 -29 1h-1c-12.667 0 -22 -0.333008 -28 -1l-118 143c16.667 1.33301 33.667 2 51 2c18 0 33.667 -0.666992 47 -2zM163 0c-16 3.33301 -29.333 5.00098 -40 5.00098c-14.667 0 -27.667 -1.66699 -39 -5c2 70 3 149.667 3 239
c0 87.333 -1 174.333 -3 261c12 -3.33301 25.333 -5 40 -5c10 0 23 1.66699 39 5c-1.33301 -56.667 -2 -142.334 -2 -257.001c0 -113.333 0.666992 -194.333 2 -243z" />
    <glyph glyph-name="iacute" unicode="&#xed;" 
d="M243 709c-29.333 -32 -67.3311 -77.667 -113.998 -137c-14 2 -23.667 3 -29 3c-12.667 0 -26.334 -1 -41.001 -3l82 137c9.33301 2.66699 26 4 50 4c25.333 0 42.666 -1.33301 51.999 -4zM163.002 0c-16 3.33301 -29.333 5.00098 -40 5.00098
c-14.667 0 -27.667 -1.66699 -39 -5c2 70 3 149.667 3 239c0 87.333 -1 174.333 -3 261c12 -3.33301 25.333 -5 40 -5c10 0 23 1.66699 39 5c-1.33301 -56.667 -2 -142.334 -2 -257.001c0 -113.333 0.666992 -194.333 2 -243z" />
    <glyph glyph-name="icircumflex" unicode="&#xee;" 
d="M258 576c-14.667 2 -28.6641 3.00098 -41.9971 3.00098c-5.33301 0 -15 -1 -29 -3c-8.66699 14 -22.334 32 -41.001 54l-10.5 17c-3.66699 6 -7.5 9 -11.5 9c-4.66699 0 -8.83398 -3.16699 -12.501 -9.5l-10.5 -17.5c-20 -24 -33.667 -41.667 -41 -53
c-14 2 -23.333 3 -28 3c-13.333 0 -27.333 -1 -42 -3c24 31.333 56.333 77 97 137c17.333 -2 29.666 -3 36.999 -3s19.666 1 36.999 3c9.33301 -16 28 -43 56 -81c26.667 -34.667 40.334 -53.334 41.001 -56.001zM163.003 0.000976562
c-16 3.33301 -29.333 5.00098 -40 5.00098c-14.667 0 -27.667 -1.66699 -39 -5c2 70 3 149.667 3 239c0 87.333 -1 174.333 -3 261c12 -3.33301 25.333 -5 40 -5c10 0 23 1.66699 39 5c-1.33301 -56.667 -2 -142.334 -2 -257.001c0 -113.333 0.666992 -194.333 2 -243z" />
    <glyph glyph-name="idieresis" unicode="&#xef;" 
d="M258 598c-10.667 2 -24.668 3 -42.001 3s-32 -1 -44 -3c1.33301 10 2 24.333 2 43s-0.666992 34.667 -2 48c12 -2 27 -3 45 -3c16.667 0 30.334 1 41.001 3c-1.33301 -13.333 -2 -29 -2 -47c0 -19.333 0.666992 -34 2 -44zM76.999 599c-10.667 1.33301 -25.667 2 -45 2
s-33.666 -0.666992 -42.999 -2c0.666992 8 1 22.667 1 44c0 22 -0.333008 37.667 -1 47c8 -0.666992 23 -1 45 -1c21.333 0 35.666 0.333008 42.999 1c-1.33301 -10.667 -2 -24.667 -2 -42c0 -18.667 0.666992 -35 2 -49zM162.999 0
c-16 3.33301 -29.333 5.00098 -40 5.00098c-14.667 0 -27.667 -1.66699 -39 -5c2 70 3 149.667 3 239c0 87.333 -1 174.333 -3 261c12 -3.33301 25.333 -5 40 -5c10 0 23 1.66699 39 5c-1.33301 -56.667 -2 -142.334 -2 -257.001c0 -113.333 0.666992 -194.333 2 -243z" />
    <glyph glyph-name="eth" unicode="&#xf0;" horiz-adv-x="546" 
d="M465 257c0 -80 -15.9961 -143.664 -47.9961 -190.997c-36 -54 -89 -81 -159 -81c-62.667 0 -112 20.333 -148 61c-37.333 43.333 -56 106.333 -56 189c0 83.333 19 146 57 188c35.333 38.667 84.333 58 147 58c14 0 29.333 -3.33301 46 -10s29 -15 37 -25
c6 -8 11.667 -12 17 -12c4 0 6 2 6 6l-8 18c-28 64 -56 107.667 -84 131c-6.66699 5.33301 -9.66699 8 -9 8c-3.33301 0 -6.33301 -2.33301 -9 -7l-68 -55c-7.33301 18 -18.333 37.667 -33 59l46 31c6 1.33301 9 3.33301 9 6c0 0.666992 -4.66699 2.33398 -14 5.00098
c-14.667 4.66699 -30 7 -46 7c-22.667 0 -51.334 -7.66699 -86.001 -23c1.33301 7.33301 2.66602 31.666 3.99902 72.999c25.333 10.667 52.666 16 81.999 16c35.333 0 71.666 -8.66699 108.999 -26c7.33301 -3.33301 11.333 -5 12 -5c2.66699 0 6.66699 2 12 6l57 45
c8 -20.667 19.333 -41.334 34 -62.001l-39 -22c-1.33301 -0.666992 -3.5 -1.33398 -6.5 -2.00098s-4.5 -2 -4.5 -4l9 -8c39.333 -35.333 71.5 -88.333 96.5 -159s37.5 -142.334 37.5 -215.001zM384.004 235.003c0 71.333 -8.66797 119 -26.001 143s-50.666 36 -99.999 36
c-84 0 -126 -59.667 -126 -179c0 -122 42 -183 126 -183s126 61 126 183z" />
    <glyph glyph-name="ntilde" unicode="&#xf1;" horiz-adv-x="531" 
d="M424 692l-0.99707 -8.99902c-2.66699 -26.667 -11.667 -49.334 -27 -68.001c-17.333 -21.333 -39 -32 -65 -32c-18 0 -40.333 7.83301 -67 23.5s-45.334 23.5 -56.001 23.5c-23.333 0 -39 -17 -47 -51c-8.66699 2 -16.334 3 -23.001 3c-7.33301 0 -16 -1 -26 -3l1 9
c3.33301 28.667 14.166 53 32.499 73s38.5 30 60.5 30c18 0 40.333 -7.83301 67 -23.5s47 -23.5 61 -23.5c22.667 0 37.667 16 45 48c9.33301 -2.66699 17 -4 23 -4c6.66699 0 14 1.33301 22 4zM453.003 0.000976562c-10.667 2.66699 -23.0029 4 -37.0029 4
s-27.667 -1.33301 -41 -4c1.33301 46 2 103.333 2 172c0 44.667 -0.333008 96.334 -1 155.001c-0.666992 38 -5.66699 66 -15 84c-13.333 26 -37.666 39 -72.999 39c-32 0 -59 -10.667 -81 -32c-34 -32.667 -51 -80.667 -51 -144v-37c0.666992 -20 1 -35 1 -45l1 -192
c-18 2.66699 -32 4 -42 4c-10.667 0 -22.667 -1.33301 -36 -4c0.666992 42 1 95.667 1 161v104c0 64.667 -1 115.667 -3 153s-4.33301 64.666 -7 81.999c12.667 -2.66699 25.334 -4 38.001 -4s26 1.33301 40 4c1.33301 -8 2 -17.333 2 -28
c0 -7.33301 -0.5 -18.166 -1.5 -32.499s-1.5 -25.5 -1.5 -33.5c0 -5.33301 0.666992 -8 2 -8c2 0 4.66699 4 8 12l7.5 17c2.33301 5.33301 6.5 12.666 12.5 21.999c30.667 42 73 63 127 63c48.667 0 85.334 -14.833 110.001 -44.5s37 -70.167 37 -121.5v-123
c0 -108 0.333008 -182.333 1 -223z" />
    <glyph glyph-name="ograve" unicode="&#xf2;" horiz-adv-x="512" 
d="M320 578c-5.33301 0.666992 -15 1 -29 1h-1c-12.667 0 -22 -0.333008 -28 -1l-118 143c16.667 1.33301 33.667 2 51 2c18 0 33.667 -0.666992 47 -2zM462 250c0 -86 -17.833 -151.667 -53.5 -197s-85.834 -68 -150.501 -68s-114.834 22.667 -150.501 68
s-53.5 111 -53.5 197s17.833 151.667 53.5 197s85.834 68 150.501 68s114.834 -22.667 150.501 -68s53.5 -111 53.5 -197zM384 250c0 132 -42 198 -126 198s-126 -66 -126 -198s42 -198 126 -198s126 66 126 198z" />
    <glyph glyph-name="oacute" unicode="&#xf3;" horiz-adv-x="512" 
d="M369 709c-29.333 -32 -67.3311 -77.667 -113.998 -137c-14 2 -23.667 3 -29 3c-12.667 0 -26.334 -1 -41.001 -3l82 137c9.33301 2.66699 26 4 50 4c25.333 0 42.666 -1.33301 51.999 -4zM462.002 250c0 -86 -17.833 -151.667 -53.5 -197s-85.834 -68 -150.501 -68
s-114.834 22.667 -150.501 68s-53.5 111 -53.5 197s17.833 151.667 53.5 197s85.834 68 150.501 68s114.834 -22.667 150.501 -68s53.5 -111 53.5 -197zM384.002 250c0 132 -42 198 -126 198s-126 -66 -126 -198s42 -198 126 -198s126 66 126 198z" />
    <glyph glyph-name="ocircumflex" unicode="&#xf4;" horiz-adv-x="512" 
d="M384 576c-14.667 2 -28.6641 3.00098 -41.9971 3.00098c-5.33301 0 -15 -1 -29 -3c-8.66699 14 -22.334 32 -41.001 54l-10.5 17c-3.66699 6 -7.5 9 -11.5 9c-4.66699 0 -8.83398 -3.16699 -12.501 -9.5l-10.5 -17.5c-20 -24 -33.667 -41.667 -41 -53
c-14 2 -23.333 3 -28 3c-13.333 0 -27.333 -1 -42 -3c24 31.333 56.333 77 97 137c17.333 -2 29.666 -3 36.999 -3s19.666 1 36.999 3c9.33301 -16 28 -43 56 -81c26.667 -34.667 40.334 -53.334 41.001 -56.001zM462.003 250.001c0 -86 -17.833 -151.667 -53.5 -197
s-85.834 -68 -150.501 -68s-114.834 22.667 -150.501 68s-53.5 111 -53.5 197s17.833 151.667 53.5 197s85.834 68 150.501 68s114.834 -22.667 150.501 -68s53.5 -111 53.5 -197zM384.003 250.001c0 132 -42 198 -126 198s-126 -66 -126 -198s42 -198 126 -198
s126 66 126 198z" />
    <glyph glyph-name="otilde" unicode="&#xf5;" horiz-adv-x="512" 
d="M406 692l-0.99707 -8.99902c-2.66699 -26.667 -11.667 -49.334 -27 -68.001c-17.333 -21.333 -39 -32 -65 -32c-18 0 -40.333 7.83301 -67 23.5s-45.334 23.5 -56.001 23.5c-23.333 0 -39 -17 -47 -51c-8.66699 2 -16.334 3 -23.001 3c-7.33301 0 -16 -1 -26 -3l1 9
c3.33301 28.667 14.166 53 32.499 73s38.5 30 60.5 30c18 0 40.333 -7.83301 67 -23.5s47 -23.5 61 -23.5c22.667 0 37.667 16 45 48c9.33301 -2.66699 17 -4 23 -4c6.66699 0 14 1.33301 22 4zM462.003 250.001c0 -86 -17.833 -151.667 -53.5 -197
s-85.834 -68 -150.501 -68s-114.834 22.667 -150.501 68s-53.5 111 -53.5 197s17.833 151.667 53.5 197s85.834 68 150.501 68s114.834 -22.667 150.501 -68s53.5 -111 53.5 -197zM384.003 250.001c0 132 -42 198 -126 198s-126 -66 -126 -198s42 -198 126 -198
s126 66 126 198z" />
    <glyph glyph-name="odieresis" unicode="&#xf6;" horiz-adv-x="512" 
d="M393 598c-10.667 2 -24.668 3 -42.001 3s-32 -1 -44 -3c1.33301 10 2 24.333 2 43s-0.666992 34.667 -2 48c12 -2 27 -3 45 -3c16.667 0 30.334 1 41.001 3c-1.33301 -13.333 -2 -29 -2 -47c0 -19.333 0.666992 -34 2 -44zM211.999 599c-10.667 1.33301 -25.667 2 -45 2
s-33.666 -0.666992 -42.999 -2c0.666992 8 1 22.667 1 44c0 22 -0.333008 37.667 -1 47c8 -0.666992 23 -1 45 -1c21.333 0 35.666 0.333008 42.999 1c-1.33301 -10.667 -2 -24.667 -2 -42c0 -18.667 0.666992 -35 2 -49zM461.999 250c0 -86 -17.833 -151.667 -53.5 -197
s-85.834 -68 -150.501 -68s-114.834 22.667 -150.501 68s-53.5 111 -53.5 197s17.833 151.667 53.5 197s85.834 68 150.501 68s114.834 -22.667 150.501 -68s53.5 -111 53.5 -197zM383.999 250c0 132 -42 198 -126 198s-126 -66 -126 -198s42 -198 126 -198s126 66 126 198z
" />
    <glyph glyph-name="divide" unicode="&#xf7;" horiz-adv-x="570" 
d="M342 479c0 -16 -5.5 -29.667 -16.5 -41s-24.5 -17 -40.5 -17s-29.667 5.66699 -41 17s-17 25 -17 41s5.66699 29.833 17 41.5s25 17.5 41 17.5s29.5 -5.83301 40.5 -17.5s16.5 -25.5 16.5 -41.5zM526 240c-58.667 2.66699 -119 4.00195 -181 4.00195
c-2.66699 0 -103 -1.33301 -301 -4c2 18.667 3 32.667 3 42c0 11.333 -1 22.666 -3 33.999c79.333 -2 167 -3 263 -3c90.667 0 163.667 1 219 3c-2.66699 -12.667 -4 -24.334 -4 -35.001c0 -9.33301 1.33301 -23 4 -41zM342 74.002c0 -16 -5.5 -29.667 -16.5 -41
s-24.5 -17 -40.5 -17s-29.667 5.66699 -41 17s-17 25 -17 41s5.66699 29.667 17 41s25 17 41 17s29.5 -5.66699 40.5 -17s16.5 -25 16.5 -41z" />
    <glyph glyph-name="oslash" unicode="&#xf8;" horiz-adv-x="512" 
d="M460 250c0 -86 -17.833 -151.667 -53.5 -197s-85.834 -68 -150.501 -68c-39.333 0 -73.333 8.33301 -102 25c-9.33301 5.33301 -15 8 -17 8c-2.66699 0 -6.33398 -4 -11.001 -12l-20 -33l-42 30l27 38c6 8.66699 9 14 9 16c0 0.666992 -3 6 -9 16c-26 44 -39 103 -39 177
c0 86 17.833 151.667 53.5 197s85.834 68 150.501 68c40.667 0 75.667 -9 105 -27c7.33301 -4.66699 12.333 -7 15 -7s6.33398 4 11.001 12l18 32l46 -27c-6.66699 -8 -16.667 -21.667 -30 -41c-4 -6 -6 -11 -6 -15s2 -9.33301 6 -16c26 -44 39 -102.667 39 -176zM333 416
c0 4.66699 -3.66797 9.33301 -11.001 14c-18 12 -40 18 -66 18c-84 0 -126 -66 -126 -198c0 -36.667 3.33301 -69 10 -97c4 -16.667 6.33301 -25 7 -25c2.66699 0 7.33398 7 14.001 21l165 252c4.66699 7.33301 7 12.333 7 15zM381.999 249.999
c0 35.333 -3 66.334 -9 93.001c-0.666992 6 -1.5 12.5 -2.5 19.5s-2.83301 10.5 -5.5 10.5s-5 -2.66699 -7 -8c-3.33301 -8.66699 -5.33301 -13.334 -6 -14.001l-165 -251c-5.33301 -8 -8 -13.667 -8 -17c0 -9.33301 11 -17 33 -23c17.333 -5.33301 32 -8 44 -8
c84 0 126 66 126 198z" />
    <glyph glyph-name="ugrave" unicode="&#xf9;" horiz-adv-x="533" 
d="M329 578c-5.33301 0.666992 -15 1 -29 1h-1c-12.667 0 -22 -0.333008 -28 -1l-118 143c16.667 1.33301 33.667 2 51 2c18 0 33.667 -0.666992 47 -2zM461 2c-12.667 2.66699 -25.333 4.00098 -38 4.00098s-26 -1.33301 -40 -4c-2 12 -3 26 -3 42
c0 6 0.666992 14.667 2 26s2 20 2 26c0 5.33301 -1 8 -3 8c-3.33301 -8 -8 -17.5 -14 -28.5s-16.333 -26.167 -31 -45.5c-28 -26.667 -64.333 -40 -109 -40c-48.667 0 -85.667 15.667 -111 47c-24.667 29.333 -37 70.333 -37 123v119
c0 107.333 -0.333008 181.666 -1 222.999c12.667 -2.66699 26 -4 40 -4s27 1.33301 39 4c-1.33301 -46 -2 -120.333 -2 -223v-104c0 -45.333 7.33301 -77.166 22 -95.499s37 -27.5 67 -27.5c44 0 78 19.333 102 58c20 32 30 71.333 30 118c0 23.333 -0.333008 68.333 -1 135
c-0.666992 76.667 -1 123 -1 139c14.667 -2.66699 28 -4 40 -4s24.667 1.33301 38 4c-0.666992 -42 -1 -97 -1 -165c0 -68.667 0.333008 -125.334 1 -170.001c1.33301 -80 4.33301 -135 9 -165z" />
    <glyph glyph-name="uacute" unicode="&#xfa;" horiz-adv-x="533" 
d="M378 709c-29.333 -32 -67.3311 -77.667 -113.998 -137c-14 2 -23.667 3 -29 3c-12.667 0 -26.334 -1 -41.001 -3l82 137c9.33301 2.66699 26 4 50 4c25.333 0 42.666 -1.33301 51.999 -4zM461.002 2c-12.667 2.66699 -25.333 4.00098 -38 4.00098s-26 -1.33301 -40 -4
c-2 12 -3 26 -3 42c0 6 0.666992 14.667 2 26s2 20 2 26c0 5.33301 -1 8 -3 8c-3.33301 -8 -8 -17.5 -14 -28.5s-16.333 -26.167 -31 -45.5c-28 -26.667 -64.333 -40 -109 -40c-48.667 0 -85.667 15.667 -111 47c-24.667 29.333 -37 70.333 -37 123v119
c0 107.333 -0.333008 181.666 -1 222.999c12.667 -2.66699 26 -4 40 -4s27 1.33301 39 4c-1.33301 -46 -2 -120.333 -2 -223v-104c0 -45.333 7.33301 -77.166 22 -95.499s37 -27.5 67 -27.5c44 0 78 19.333 102 58c20 32 30 71.333 30 118c0 23.333 -0.333008 68.333 -1 135
c-0.666992 76.667 -1 123 -1 139c14.667 -2.66699 28 -4 40 -4s24.667 1.33301 38 4c-0.666992 -42 -1 -97 -1 -165c0 -68.667 0.333008 -125.334 1 -170.001c1.33301 -80 4.33301 -135 9 -165z" />
    <glyph glyph-name="ucircumflex" unicode="&#xfb;" horiz-adv-x="533" 
d="M402 576c-14.667 2 -28.6641 3.00098 -41.9971 3.00098c-5.33301 0 -15 -1 -29 -3c-8.66699 14 -22.334 32 -41.001 54l-10.5 17c-3.66699 6 -7.5 9 -11.5 9c-4.66699 0 -8.83398 -3.16699 -12.501 -9.5l-10.5 -17.5c-20 -24 -33.667 -41.667 -41 -53
c-14 2 -23.333 3 -28 3c-13.333 0 -27.333 -1 -42 -3c24 31.333 56.333 77 97 137c17.333 -2 29.666 -3 36.999 -3s19.666 1 36.999 3c9.33301 -16 28 -43 56 -81c26.667 -34.667 40.334 -53.334 41.001 -56.001zM461.003 2.00098
c-12.667 2.66699 -25.333 4.00098 -38 4.00098s-26 -1.33301 -40 -4c-2 12 -3 26 -3 42c0 6 0.666992 14.667 2 26s2 20 2 26c0 5.33301 -1 8 -3 8c-3.33301 -8 -8 -17.5 -14 -28.5s-16.333 -26.167 -31 -45.5c-28 -26.667 -64.333 -40 -109 -40
c-48.667 0 -85.667 15.667 -111 47c-24.667 29.333 -37 70.333 -37 123v119c0 107.333 -0.333008 181.666 -1 222.999c12.667 -2.66699 26 -4 40 -4s27 1.33301 39 4c-1.33301 -46 -2 -120.333 -2 -223v-104c0 -45.333 7.33301 -77.166 22 -95.499s37 -27.5 67 -27.5
c44 0 78 19.333 102 58c20 32 30 71.333 30 118c0 23.333 -0.333008 68.333 -1 135c-0.666992 76.667 -1 123 -1 139c14.667 -2.66699 28 -4 40 -4s24.667 1.33301 38 4c-0.666992 -42 -1 -97 -1 -165c0 -68.667 0.333008 -125.334 1 -170.001
c1.33301 -80 4.33301 -135 9 -165z" />
    <glyph glyph-name="udieresis" unicode="&#xfc;" horiz-adv-x="533" 
d="M394 598c-10.667 2 -24.668 3.00195 -42.001 3.00195s-32 -1 -44 -3c1.33301 10 2 24.333 2 43s-0.666992 34.667 -2 48c12 -2 27 -3 45 -3c16.667 0 30.334 1 41.001 3c-0.666992 -6.66699 -1 -16.334 -1 -29.001v-33c0 -14.667 0.333008 -24.334 1 -29.001z
M212.999 599.002c-10.667 1.33301 -25.667 2 -45 2s-33.666 -0.666992 -42.999 -2c0.666992 8 1 22.667 1 44c0 22 -0.333008 37.667 -1 47c8 -0.666992 23 -1 45 -1c21.333 0 35.666 0.333008 42.999 1c-1.33301 -10.667 -2 -24.667 -2 -42c0 -18.667 0.666992 -35 2 -49z
M460.999 2.00195c-12.667 2.66699 -25.333 4.00098 -38 4.00098s-26 -1.33301 -40 -4c-2 12 -3 26 -3 42c0 6 0.666992 14.667 2 26s2 20 2 26c0 5.33301 -1 8 -3 8c-3.33301 -8 -8 -17.5 -14 -28.5s-16.333 -26.167 -31 -45.5c-28 -26.667 -64.333 -40 -109 -40
c-48.667 0 -85.667 15.667 -111 47c-24.667 29.333 -37 70.333 -37 123v119c0 107.333 -0.333008 181.666 -1 222.999c12.667 -2.66699 26 -4 40 -4s27 1.33301 39 4c-1.33301 -46 -2 -120.333 -2 -223v-104c0 -45.333 7.33301 -77.166 22 -95.499s37 -27.5 67 -27.5
c44 0 78 19.333 102 58c20 32 30 71.333 30 118c0 23.333 -0.333008 68.333 -1 135c-0.666992 76.667 -1 123 -1 139c14.667 -2.66699 28 -4 40 -4s24.667 1.33301 38 4c-0.666992 -42 -1 -97 -1 -165c0 -68.667 0.333008 -125.334 1 -170.001
c1.33301 -80 4.33301 -135 9 -165z" />
    <glyph glyph-name="yacute" unicode="&#xfd;" horiz-adv-x="452" 
d="M342 709c-29.333 -32 -67.332 -77.667 -113.999 -137c-14 2 -23.667 3 -29 3c-12.667 0 -26.334 -1 -41.001 -3l82 137c12.667 0.666992 32.667 1 60 1c21.333 0 35.333 -0.333008 42 -1zM437.001 500l-161.999 -500c-21.333 -66.667 -39 -111 -53 -133
c-27.333 -43.333 -64.333 -65 -111 -65c-22.667 0 -44.334 2.33301 -65.001 7c2.66699 12 4 24 4 36c0 8 -1.33301 20 -4 36c22 -6.66699 41.333 -10 58 -10c24.667 0 45.334 9.33301 62.001 28s25 41.667 25 69c0 20 -4.33301 43.333 -13 70l-24 66l-139 396
c20.667 -2 37 -3 49 -3c17.333 0 29.666 1 36.999 3l113 -363l13 -57c1.33301 -6 3.33301 -9 6 -9s4.66699 3 6 9c5.33301 28 9.33301 46.667 12 56c16 48.667 33.667 109.667 53 183c24 88.667 40.667 149 50 181c8 -2.66699 20.333 -4 37 -4c10.667 0 26 1.33301 46 4z
" />
    <glyph glyph-name="thorn" unicode="&#xfe;" horiz-adv-x="537" 
d="M483 258c0 -78 -13.998 -140.667 -41.998 -188c-33.333 -56.667 -83.333 -85 -150 -85c-58.667 0 -97.334 19 -116.001 57l-7 14c-6.66699 14 -11.334 21 -14.001 21c-2 0 -3 -2 -3 -6c0 -4.66699 0.833008 -15 2.5 -31s2.5 -29.667 2.5 -41l1 -188
c-19.333 2.66699 -34 4 -44 4c-11.333 0 -23.333 -1.33301 -36 -4l2 436c0 172.667 -0.666992 326.667 -2 462c14.667 -1.33301 28 -2 40 -2c11.333 0 24.333 0.666992 39 2c-1.33301 -50 -3.66602 -124.667 -6.99902 -224l-1 -33c0 -3.33301 -0.5 -7.83301 -1.5 -13.5
s-1.5 -9.16699 -1.5 -10.5c0 -7.33301 1.33301 -11 4 -11c3.33301 0 6.66602 3.66699 9.99902 11c28.667 58 75.667 87 141 87c122 0 183 -85.667 183 -257zM405.002 256c0 128.667 -41.335 193.001 -124.002 193.001c-28 0 -55.667 -13.667 -83 -41
c-23.333 -24 -36.666 -57.333 -39.999 -100c-1.33301 -18.667 -2 -46.334 -2 -83.001c0 -50 4.66699 -84.667 14 -104c22.667 -46 58.334 -69 107.001 -69c46.667 0 80 17.667 100 53c18.667 32.667 28 83 28 151z" />
    <glyph glyph-name="ydieresis" unicode="&#xff;" horiz-adv-x="452" 
d="M357 598c-10.667 2 -24.668 3.00195 -42.001 3.00195s-32 -1 -44 -3c1.33301 10 2 24.333 2 43s-0.666992 34.667 -2 48c12 -2 27 -3 45 -3c16.667 0 30.334 1 41.001 3c-0.666992 -6.66699 -1 -16.334 -1 -29.001v-33c0 -14.667 0.333008 -24.334 1 -29.001z
M175.999 599.002c-10.667 1.33301 -25.667 2 -45 2s-33.666 -0.666992 -42.999 -2c0.666992 8 1 22.667 1 44c0 22 -0.333008 37.667 -1 47c8 -0.666992 23 -1 45 -1c21.333 0 35.666 0.333008 42.999 1c-1.33301 -10.667 -2 -24.667 -2 -42c0 -18.667 0.666992 -35 2 -49z
M436.999 500.002l-161.999 -500c-21.333 -66.667 -39 -111 -53 -133c-27.333 -43.333 -64.333 -65 -111 -65c-22.667 0 -44.334 2.33301 -65.001 7c2.66699 12 4 24 4 36c0 8 -1.33301 20 -4 36c22 -6.66699 41.333 -10 58 -10c24.667 0 45.334 9.33301 62.001 28
s25 41.667 25 69c0 20 -4.33301 43.333 -13 70l-24 66l-139 396c20.667 -2 37 -3 49 -3c17.333 0 29.666 1 36.999 3l113 -363l13 -57c1.33301 -6 3.33301 -9 6 -9s4.66699 3 6 9c5.33301 28 9.33301 46.667 12 56c16 48.667 33.667 109.667 53 183
c24 88.667 40.667 149 50 181c8 -2.66699 20.333 -4 37 -4c10.667 0 26 1.33301 46 4z" />
    <glyph glyph-name="dotlessi" unicode="&#x131;" 
d="M163 0c-16 3.33301 -29.333 5.00098 -40 5.00098c-14.667 0 -27.667 -1.66699 -39 -5c2 70 3 149.667 3 239c0 87.333 -1 174.333 -3 261c12 -3.33301 25.333 -5 40 -5c10 0 23 1.66699 39 5c-1.33301 -56.667 -2 -142.334 -2 -257.001
c0 -113.333 0.666992 -194.333 2 -243z" />
    <glyph glyph-name="Lslash" unicode="&#x141;" horiz-adv-x="464" 
d="M433 0c-47.333 2.66699 -103.001 3.99902 -167.001 3.99902c-63.333 0 -124 -1.33301 -182 -4l2 254c0 2 0.333008 6.33301 1 13v12c0 2 -1 3 -3 3l-11 -8l-53 -38l3 78l50 34c8.66699 6 13 18 13 36c0 55.333 -0.666992 158.666 -2 309.999
c11.333 -2 23.666 -3 36.999 -3s27.333 1 42 3c-1.33301 -58 -2 -142.333 -2 -253c0 -2.66699 -0.333008 -7.66699 -1 -15s-1 -12.666 -1 -15.999c0 -2.66699 1 -4 3 -4c0.666992 0 4.33398 2.33301 11.001 7c22.667 15.333 74.334 52.333 155.001 111
c-1.33301 -15.333 -2 -28.666 -2 -39.999s0.666992 -23.333 2 -36l-158 -107c-6 -4 -9 -11.333 -9 -22c0 -13.333 0.666992 -85 2 -215c0 -13.333 1.16699 -21.5 3.5 -24.5s7.83301 -4.5 16.5 -4.5h31c92 0 165 1.33301 219 4c-2 -10 -3 -23.667 -3 -41
c0 -15.333 1 -28 3 -38z" />
    <glyph glyph-name="lslash" unicode="&#x142;" 
d="M230 524c-1.33301 -15.333 -1.99902 -32 -1.99902 -50c0 -13.333 0.333008 -23.333 1 -30l-57 -53c-6 -5.33301 -9 -25 -9 -59v-127c0 -96.667 0.333008 -165 1 -205c-16.667 2 -30.334 3 -41.001 3c-16 0 -29 -1 -39 -3c1.33301 84.667 2 173.334 2 266.001v39
c0 4 -1.33301 6 -4 6c-1.33301 0 -22 -19.667 -62 -59c2 27.333 3 49.666 3 66.999v15l53 49c6.66699 6 10 15 10 27c0 87.333 -0.666992 187 -2 299c12.667 -2.66699 26 -4 40 -4c12 0 25.333 1.33301 40 4l-2 -238c0 -3.33301 2 -5 6 -5c2 0 22.667 19.333 62 58z" />
    <glyph glyph-name="OE" unicode="&#x152;" horiz-adv-x="927" 
d="M853 0c-47.333 2.66699 -107.669 3.99707 -181.002 3.99707c-75.333 0 -142.333 -1.33301 -201 -4v5c0 5.33301 0.666992 12.333 2 21s2 15.334 2 20.001c0 6 -1.66699 9 -5 9c-2 0 -4.66699 -2.66699 -8 -8c-5.33301 -6.66699 -8.66602 -10.667 -9.99902 -12
c-36.667 -32 -79 -48 -127 -48c-84 0 -149 30.667 -195 92c-48 63.333 -72 154.666 -72 273.999c0 114.667 22.833 203.834 68.5 267.501s111.834 95.5 198.501 95.5c43.333 0 82.666 -14 117.999 -42c2.66699 -2 7.5 -7 14.5 -15s11.5 -12 13.5 -12
c2.66699 0 4 2.33301 4 7c0 2.66699 -0.5 7.33398 -1.5 14.001s-1.5 11 -1.5 13l-1 27c56.667 -2.66699 121.667 -4 195 -4c72.667 0 132 1.33301 178 4c-1.33301 -16 -2 -28.667 -2 -38c0 -10 0.666992 -22 2 -36c-69.333 2 -155.333 3 -258 3
c-16.667 0 -26.667 -1.16699 -30 -3.5s-5 -9.5 -5 -21.5c-0.666992 -39.333 -1 -97 -1 -173v-27c0 -9.33301 1.33301 -15.166 4 -17.499s9.66699 -3.5 21 -3.5h23c38.667 0 116.667 1.33301 234 4c-2 -14 -3 -27 -3 -39s1 -23.667 3 -35c-68 2 -142.333 3 -223 3h-32
c-11.333 0 -18.666 -1.33301 -21.999 -4s-5 -9 -5 -19v-206c0 -16 10 -24 30 -24c124.667 0 215.667 1.33301 273 4c-2 -14.667 -3 -28 -3 -40s1 -23.667 3 -35zM473.997 332.997c0 27.333 -0.333008 88 -1 182c0 25.333 -5.33301 45.333 -16 60
c-35.333 49.333 -80 74 -134 74c-124 0 -186 -99.667 -186 -299c0 -96.667 16.667 -171 50 -223c32.667 -49.333 77.667 -74 135 -74c54 0 98 20.667 132 62c12.667 15.333 19 37.333 19 66z" />
    <glyph glyph-name="oe" unicode="&#x153;" horiz-adv-x="822" 
d="M775 143c-8 -50 -24.998 -87 -50.998 -111c-33.333 -30.667 -79 -46 -137 -46c-65.333 0 -114 19.667 -146 59c-1.33301 2 -4.66602 8.33301 -9.99902 19c-4 8 -7.66699 12 -11 12s-7 -4.33301 -11 -13c-6.66699 -11.333 -10.667 -18 -12 -20
c-32.667 -38.667 -79 -58 -139 -58c-64.667 0 -114.834 22.667 -150.501 68s-53.5 111 -53.5 197s17.833 151.667 53.5 197s85.834 68 150.501 68c66 0 115.333 -22.667 148 -68c1.33301 -2 4.66602 -9 9.99902 -21c3.33301 -9.33301 6.66602 -14 9.99902 -14
c4 0 8.33301 4.66699 13 14c6.66699 13.333 10.334 20.333 11.001 21c34.667 46 81.334 69 140.001 69c57.333 0 102.166 -21 134.499 -63s48.5 -104.333 48.5 -187c0 -4 -0.333008 -13.667 -1 -29c-38.667 2.66699 -109.667 4 -213 4h-77c-10.667 0 -17 -1 -19 -3
s-3 -8.66699 -3 -20v-1c0 -52 11.667 -92.5 35 -121.5s55.666 -43.5 96.999 -43.5c62.667 0 100 31 112 93c20 -2.66699 36.333 -4 49 -4c7.33301 0 14.666 0.666992 21.999 2zM692.002 327c0 5.33301 -0.333008 10.333 -1 15c-10 72 -45.667 108 -107 108
c-31.333 0 -58 -12 -80 -36s-36.333 -55.667 -43 -95c-0.666992 -4 -1 -7.66699 -1 -11c0 -8.66699 7.33301 -13 22 -13c32.667 -0.666992 54.667 -1 66 -1c39.333 0 79 1.33301 119 4c16.667 1.33301 25 11 25 29zM384.002 250c0 132 -42 198 -126 198s-126 -66 -126 -198
s42 -198 126 -198s126 66 126 198z" />
    <glyph glyph-name="Scaron" unicode="&#x160;" horiz-adv-x="557" 
d="M415 863c-24 -31.333 -56.333 -77.002 -97 -137.002c-17.333 2 -29.666 3 -36.999 3s-19.666 -1 -36.999 -3c-9.33301 16 -28 43 -56 81c-26.667 34.667 -40.334 53.334 -41.001 56.001c14.667 -2 28.667 -3 42 -3c4.66699 0 14 1 28 3
c6.66699 -10.667 20.667 -28.667 42 -54c0.666992 -0.666992 3.66699 -6 9 -16c4 -6.66699 8 -10 12 -10c4.66699 0 9 3.16699 13 9.5l11 17.5c17.333 20.667 30.666 38.334 39.999 53.001c14 -2 23.667 -3 29 -3c13.333 0 27.333 1 42 3zM506 184.998
c0 -60.667 -20.502 -109.001 -61.502 -145.001s-96.167 -54 -165.5 -54c-67.333 0 -121.333 17 -162 51c-44 37.333 -66 90.333 -66 159c0 12 0.666992 23.667 2 35c9.33301 -2 22 -3 38 -3c16.667 0 31.334 1 44.001 3c-1.33301 -10.667 -2 -21 -2 -31
c0 -46.667 14 -82.167 42 -106.5s65.333 -36.5 112 -36.5c91.333 0 137 40.333 137 121c0 47.333 -26.667 83 -80 107c-14.667 6.66699 -44.667 17.667 -90 33c-40 13.333 -71 26.333 -93 39c-62 34.667 -93 88.334 -93 161.001c0 53.333 19.833 98.166 59.5 134.499
s90.834 54.5 153.501 54.5c58.667 0 108.334 -15.333 149.001 -46c44.667 -33.333 67 -79 67 -137c0 -19.333 -0.666992 -34.666 -2 -45.999c-10.667 2 -23.667 3 -39 3s-29.333 -1 -42 -3c0.666992 18 1 28.667 1 32c0 40 -13 70.667 -39 92s-59.333 32 -100 32
c-44.667 0 -78.334 -11.667 -101.001 -35c-18.667 -20 -28 -45.667 -28 -77c0 -42 22 -74.667 66 -98c18 -9.33301 45.667 -20.333 83 -33c42.667 -14 72.667 -25 90 -33c80 -35.333 120 -93 120 -173z" />
    <glyph glyph-name="scaron" unicode="&#x161;" horiz-adv-x="454" 
d="M357 713c-24 -31.333 -56.333 -77.002 -97 -137.002c-17.333 2 -29.666 3 -36.999 3s-19.666 -1 -36.999 -3c-9.33301 16 -28 43 -56 81c-26.667 34.667 -40.334 53.334 -41.001 56.001c14.667 -2 28.667 -3 42 -3c4.66699 0 14 1 28 3
c6.66699 -10.667 20.667 -28.667 42 -54c0.666992 -0.666992 3.66699 -6 9 -16c4 -6.66699 8 -10 12 -10c4.66699 0 9 3.16699 13 9.5l11 17.5c17.333 20.667 30.666 38.334 39.999 53.001c14 -2 23.667 -3 29 -3c13.333 0 27.333 1 42 3zM406 144.998
c0 -46.667 -16.833 -84.833 -50.5 -114.5s-78.5 -44.5 -134.5 -44.5c-118.667 0 -178 53.667 -178 161v9c8 -2 19.333 -3 34 -3c16 0 28.333 1 37 3v-7c0 -37.333 10.333 -63.666 31 -78.999c18 -12.667 45.333 -19 82 -19c32 0 57.833 7.33301 77.5 22s29.5 35 29.5 61
c0 35.333 -24.333 60.666 -73 75.999l-134 41c-47.333 23.333 -71 63 -71 119c0 41.333 16 75.833 48 103.5s72.667 41.5 122 41.5c58 0 101.667 -17.667 131 -53c20 -24 30 -58.333 30 -103c-8.66699 1.33301 -18.667 2 -30 2c-14.667 0 -27.667 -1 -39 -3
c0 60 -32 90 -96 90c-62 0 -93 -23.667 -93 -71c0 -36 24 -61.667 72 -77l133 -39c48 -23.333 72 -62 72 -116z" />
    <glyph glyph-name="Ydieresis" unicode="&#x178;" horiz-adv-x="556" 
d="M402 748c-10.667 2 -24.668 3.00195 -42.001 3.00195s-32 -1 -44 -3c1.33301 10 2 24.333 2 43s-0.666992 34.667 -2 48c12 -2 27 -3 45 -3c16.667 0 30.334 1 41.001 3c-0.666992 -6.66699 -1 -16.334 -1 -29.001v-33c0 -14.667 0.333008 -24.334 1 -29.001z
M220.999 749.002c-10.667 1.33301 -25.667 2 -45 2s-33.666 -0.666992 -42.999 -2c0.666992 8 1 22.667 1 44c0 22 -0.333008 37.667 -1 47c8 -0.666992 23 -1 45 -1c21.333 0 35.666 0.333008 42.999 1c-1.33301 -10.667 -2 -24.667 -2 -42c0 -18.667 0.666992 -35 2 -49z
M540.999 694.002l-201.998 -364.001c-10.667 -20.667 -17.334 -36.667 -20.001 -48s-4 -29.666 -4 -54.999c0 -66 0.333008 -141.667 1 -227c-11.333 3.33301 -23 5 -35 5c-10.667 0 -24.667 -1.66699 -42 -5l2 224c0 40 -8 75.333 -24 106l-202 364
c18 -2.66699 33.667 -4 47 -4s27.666 1.33301 42.999 4l149 -275c6 -11.333 11.667 -27.666 17 -48.999c2.66699 -11.333 5.66699 -17 9 -17c2.66699 0 5.66699 6.16699 9 18.5s10.333 28.166 21 47.499l146 275c14 -2.66699 27.333 -4 40 -4c14 0 29 1.33301 45 4z" />
    <glyph glyph-name="Zcaron" unicode="&#x17d;" horiz-adv-x="458" 
d="M357 863c-24 -31.333 -56.333 -77.002 -97 -137.002c-17.333 2 -29.666 3 -36.999 3s-19.666 -1 -36.999 -3c-9.33301 16 -28 43 -56 81c-26.667 34.667 -40.334 53.334 -41.001 56.001c14.667 -2 28.667 -3 42 -3c4.66699 0 14 1 28 3
c6.66699 -10.667 20.667 -28.667 42 -54c0.666992 -0.666992 4.33398 -6 11.001 -16c4 -6.66699 7.33301 -10 10 -10c3.33301 0 7.66602 3.33301 12.999 10c3.33301 6 7 11.667 11 17c17.333 20.667 30.666 38.334 39.999 53.001c14 -2 23.667 -3 29 -3
c13.333 0 27.333 1 42 3zM438 -0.00195312l-265 4c-83.333 0 -134.333 -1.33301 -153 -4c1.33301 11.333 2 23.333 2 36c0 12 -0.666992 22.333 -2 31l278 477c6 10.667 17.333 27.667 34 51c9.33301 10.667 14 18.667 14 24c0 4.66699 -6.33301 7 -19 7h-50
c-29.333 0 -73.333 -1 -132 -3c-64.667 -2.66699 -103.667 -4 -117 -4c1.33301 8.66699 2 20.334 2 35.001s-0.666992 28 -2 40l258 -4c40.667 0 89.667 1.33301 147 4c0.666992 -12.667 1 -22.667 1 -30c0 -6.66699 -0.333008 -16.667 -1 -30l-315 -543
c-2 -4 -5.16699 -8.33301 -9.5 -13s-6.5 -8 -6.5 -10c0 -1.33301 2 -2 6 -2c2.66699 0 8.5 0.666992 17.5 2s15.167 2 18.5 2l294 7c-2.66699 -14 -4 -27 -4 -39c0 -6.66699 1.33301 -19.334 4 -38.001z" />
    <glyph glyph-name="zcaron" unicode="&#x17e;" horiz-adv-x="410" 
d="M339 713c-24 -31.333 -56.333 -77.002 -97 -137.002c-17.333 2 -29.666 3 -36.999 3s-19.666 -1 -36.999 -3c-9.33301 16 -28 43 -56 81c-26.667 34.667 -40.334 53.334 -41.001 56.001c14.667 -2 28.667 -3 42 -3c4.66699 0 14 1 28 3
c6.66699 -10.667 20.667 -28.667 42 -54c0.666992 -0.666992 3.66699 -6 9 -16c4 -6.66699 8 -10 12 -10c4.66699 0 9 3.16699 13 9.5l11 17.5c17.333 20.667 30.666 38.334 39.999 53.001c14 -2 23.667 -3 29 -3c13.333 0 27.333 1 42 3zM375 -0.00195312
c-90 2 -165.998 3.00098 -227.998 3.00098c-58 0 -95.333 -1 -112 -3c1.33301 8.66699 2 19 2 31s-0.666992 22.667 -2 32l210 328c3.33301 4.66699 9.33301 12 18 22s13 15.667 13 17c0 2 -3.33301 3 -10 3h-12c-6 -0.666992 -10 -1 -12 -1h-48
c-12.667 0 -59.334 -1.33301 -140.001 -4c2 10.667 3 23.667 3 39c0 11.333 -1 22.333 -3 33c71.333 -2.66699 137.333 -4 198 -4c54.667 0 92.667 1.33301 114 4c0.666992 -12 1 -21.667 1 -29s-0.333008 -17 -1 -29l-213 -331c-6 -9.33301 -13 -18.333 -21 -27
c-5.33301 -6 -8 -10.333 -8 -13c0 -2 2 -3 6 -3h23c11.333 0.666992 19.666 1 24.999 1c79.333 0.666992 145 1.66699 197 3c-1.33301 -16 -2 -29.333 -2 -40c0 -8.66699 0.666992 -19.334 2 -32.001z" />
    <glyph glyph-name="florin" unicode="&#x192;" horiz-adv-x="531" 
d="M537 695c-8.66699 -22 -14 -47 -16 -75c-22 3.33301 -39.333 5 -52 5c-23.333 0 -40.666 -4.66699 -51.999 -14c-23.333 -19.333 -43 -66 -59 -140c-0.666992 -3.33301 -1 -6 -1 -8c0 -6.66699 4.66699 -10 14 -10c-11.333 0 25.334 1 110.001 3
c-6.66699 -22 -10 -45.333 -10 -70c-71.333 2.66699 -108.666 4 -111.999 4c-10 0 -16.333 -6.33301 -19 -19l-54 -293c-2.66699 -13.333 -7.66699 -36.333 -15 -69c-16 -68 -43.333 -114 -82 -138c-27.333 -16.667 -64.333 -25 -111 -25c-10.667 0 -26.667 1 -48 3
c8 22.667 12.333 47.334 13 74.001c9.33301 -0.666992 19.666 -1 30.999 -1c45.333 0 75.666 8.5 90.999 25.5s29.666 60.5 42.999 130.5l57 293c0.666992 3.33301 1 6 1 8c0 7.33301 -4.33301 11 -13 11c-2.66699 0 -30.334 -1.33301 -83.001 -4
c6.66699 20.667 10.334 44 11.001 70c64 -2 92 -3 84 -3c8 0 13.333 5.66699 16 17l5 18c14 65.333 31 112.666 51 141.999c30.667 46 83 69 157 69c10 0 24.333 -1.33301 43 -4z" />
    <glyph glyph-name="circumflex" unicode="&#x2c6;" 
d="M258 576c-14.667 2 -28.6641 3.00098 -41.9971 3.00098c-5.33301 0 -15 -1 -29 -3c-8.66699 14 -22.334 32 -41.001 54l-10.5 17c-3.66699 6 -7.5 9 -11.5 9c-4.66699 0 -8.83398 -3.16699 -12.501 -9.5l-10.5 -17.5c-20 -24 -33.667 -41.667 -41 -53
c-14 2 -23.333 3 -28 3c-13.333 0 -27.333 -1 -42 -3c24 31.333 56.333 77 97 137c17.333 -2 29.666 -3 36.999 -3s19.666 1 36.999 3c9.33301 -16 28 -43 56 -81c26.667 -34.667 40.334 -53.334 41.001 -56.001z" />
    <glyph glyph-name="caron" unicode="&#x2c7;" 
d="M258 713c-24 -31.333 -56.333 -77.002 -97 -137.002c-17.333 2 -29.666 3 -36.999 3s-19.666 -1 -36.999 -3c-9.33301 16 -28 43 -56 81c-26.667 34.667 -40.334 53.334 -41.001 56.001c14.667 -2 28.667 -3 42 -3c4.66699 0 14 1 28 3
c6.66699 -10.667 20.667 -28.667 42 -54c0.666992 -0.666992 3.66699 -6 9 -16c4 -6.66699 8 -10 12 -10c4.66699 0 9 3.16699 13 9.5l11 17.5c17.333 20.667 30.666 38.334 39.999 53.001c14 -2 23.667 -3 29 -3c13.333 0 27.333 1 42 3z" />
    <glyph glyph-name="breve" unicode="&#x2d8;" 
d="M266 690c-11.333 -88 -59.6689 -132 -145.002 -132c-81.333 0 -127.666 44 -138.999 132c8 -2 15.667 -3 23 -3s16 1 26 3c10 -49.333 40.667 -74 92 -74c52.667 0 84.334 24.667 95.001 74c10 -2 18.333 -3 25 -3c7.33301 0 15 1 23 3z" />
    <glyph glyph-name="dotaccent" unicode="&#x2d9;" 
d="M174 554c-9.33301 1.33301 -25.001 2 -47.001 2c-24.667 0 -42.667 -0.666992 -54 -2c2 16 3 32.667 3 50c0 16.667 -1 35.667 -3 57c16.667 -2 34.334 -3 53.001 -3c17.333 0 33.333 1 48 3c-2 -16 -3 -34.667 -3 -56c0 -20 1 -37 3 -51z" />
    <glyph glyph-name="ring" unicode="&#x2da;" 
d="M219 652c0 -28 -9.5 -51.666 -28.5 -70.999s-41.5 -29 -67.5 -29c-24.667 0 -46.5 9.16699 -65.5 27.5s-28.5 42.166 -28.5 71.499c0 28 9.33301 51.5 28 70.5s41 28.5 67 28.5s48.333 -9.33301 67 -28s28 -42 28 -70zM180 651.001c0 17.333 -5.5 32 -16.5 44
s-24.167 18 -39.5 18s-28.5 -6 -39.5 -18s-16.5 -26.667 -16.5 -44s5.33301 -31.833 16 -43.5s23.667 -17.5 39 -17.5c16 0 29.5 6 40.5 18s16.5 26.333 16.5 43z" />
    <glyph glyph-name="ogonek" unicode="&#x2db;" 
d="M213 -140c-20 -6 -41 -9 -63 -9c-34.667 0 -62.5 7.33301 -83.5 22s-31.5 34 -31.5 58c0 40 22.667 65.333 68 76c16.667 -0.666992 30.334 -1 41.001 -1c9.33301 0 14.666 0.333008 15.999 1v-6l-44 -23c-12 -8 -18 -21.667 -18 -41c0 -28.667 23 -43 69 -43
c12.667 0 25 1 37 3c1.33301 -14 4.33301 -26.333 9 -37z" />
    <glyph glyph-name="tilde" unicode="&#x2dc;" 
d="M280 692l-0.99707 -8.99902c-2.66699 -26.667 -11.667 -49.334 -27 -68.001c-17.333 -21.333 -39 -32 -65 -32c-18 0 -40.333 7.83301 -67 23.5s-45.334 23.5 -56.001 23.5c-23.333 0 -39 -17 -47 -51c-8.66699 2 -16.334 3 -23.001 3c-7.33301 0 -16 -1 -26 -3l1 9
c3.33301 28.667 14.166 53 32.499 73s38.5 30 60.5 30c18 0 40.333 -7.83301 67 -23.5s47 -23.5 61 -23.5c22.667 0 37.667 16 45 48c9.33301 -2.66699 17 -4 23 -4c6.66699 0 14 1.33301 22 4z" />
    <glyph glyph-name="hungarumlaut" unicode="&#x2dd;" 
d="M295 709c-29.333 -32 -67.332 -77.667 -113.999 -137c-14 2 -23.667 3 -29 3c-12.667 0 -26.334 -1 -41.001 -3l83 137c10 -3.33301 20.667 -5 32 -5c16.667 0 39.667 1.66699 69 5zM137.001 709c-29.333 -32 -67.333 -77.667 -114 -137c-14 2 -23.667 3 -29 3
c-13.333 0 -27.333 -1 -42 -3l83 137c10 -3.33301 21 -5 33 -5c16.667 0 39.667 1.66699 69 5z" />
    <glyph glyph-name="Delta" unicode="&#x394;" horiz-adv-x="903" 
 />
    <glyph glyph-name="Delta" unicode="&#x2206;" horiz-adv-x="903" 
 />
    <glyph glyph-name="Omega" unicode="&#x3a9;" horiz-adv-x="903" 
 />
    <glyph glyph-name="Omega" unicode="&#x2126;" horiz-adv-x="903" 
 />
    <glyph glyph-name="pi" unicode="&#x3c0;" horiz-adv-x="903" 
 />
    <glyph glyph-name="endash" unicode="&#x2013;" horiz-adv-x="578" 
d="M546 232c-56 1.33301 -137 2 -243 2c-108 0 -198.333 -0.666992 -271 -2c1.33301 12.667 2 23.667 2 33c0 8 -0.666992 20.333 -2 37c74 -1.33301 165.667 -2 275 -2c105.333 0 185 0.666992 239 2c-1.33301 -10.667 -2 -23 -2 -37c0 -13.333 0.666992 -24.333 2 -33z
" />
    <glyph glyph-name="emdash" unicode="&#x2014;" horiz-adv-x="930" 
d="M898 233c-139.333 2 -294.333 3.00098 -465 3.00098c-165.333 0 -299 -1 -401 -3c1.33301 8.66699 2 19.667 2 33s-0.666992 24.666 -2 33.999h866c-1.33301 -10 -2 -21.333 -2 -34s0.666992 -23.667 2 -33z" />
    <glyph glyph-name="quoteleft" unicode="&#x2018;" horiz-adv-x="223" 
d="M162 460c-18.667 1.33301 -30.999 2 -36.999 2c-6.66699 0 -13 -0.333008 -19 -1c-24 82 -40.333 164.667 -49 248c13.333 -1.33301 26.666 -2 39.999 -2c12.667 0 26.667 0.666992 42 2c0 -68.667 7.66699 -151.667 23 -249z" />
    <glyph glyph-name="quoteright" unicode="&#x2019;" horiz-adv-x="223" 
d="M166 709c-8.66699 -83.333 -24.999 -166 -48.999 -248c-6 0.666992 -12.333 1 -19 1c-6 0 -18.333 -0.666992 -37 -2c15.333 97.333 23 180.333 23 249c15.333 -1.33301 29.333 -2 42 -2c13.333 0 26.666 0.666992 39.999 2z" />
    <glyph glyph-name="quotesinglbase" unicode="&#x201a;" horiz-adv-x="241" 
d="M169 97c-8.66699 -83.333 -24.999 -166 -48.999 -248c-6 0.666992 -12.333 1 -19 1c-6 0 -18.333 -0.666992 -37 -2c15.333 78 23 161 23 249c15.333 -1.33301 29.666 -2 42.999 -2c12.667 0 25.667 0.666992 39 2z" />
    <glyph glyph-name="quotedblleft" unicode="&#x201c;" horiz-adv-x="394" 
d="M333 460c-18.667 1.33301 -30.999 2 -36.999 2c-6.66699 0 -13 -0.333008 -19 -1c-24 82 -40.333 164.667 -49 248c13.333 -1.33301 26.666 -2 39.999 -2c12.667 0 26.667 0.666992 42 2c0 -68.667 7.66699 -151.667 23 -249zM180.001 460
c-18.667 1.33301 -30.999 2 -36.999 2c-6.66699 0 -13 -0.333008 -19 -1c-36 86 -58.333 168.667 -67 248c13.333 -1.33301 26.666 -2 39.999 -2c12.667 0 26.667 0.666992 42 2c0 -66 13.667 -149 41 -249z" />
    <glyph glyph-name="quotedblright" unicode="&#x201d;" horiz-adv-x="394" 
d="M337 709c-8.66699 -79.333 -30.999 -162 -66.999 -248c-6 0.666992 -12.333 1 -19 1c-6 0 -18.333 -0.666992 -37 -2c27.333 100 41 183 41 249c15.333 -1.33301 29.333 -2 42 -2c13.333 0 26.666 0.666992 39.999 2zM166.001 709
c-8.66699 -83.333 -24.999 -166 -48.999 -248c-6 0.666992 -12.333 1 -19 1c-6 0 -18.333 -0.666992 -37 -2c15.333 97.333 23 180.333 23 249c15.333 -1.33301 29.333 -2 42 -2c13.333 0 26.666 0.666992 39.999 2z" />
    <glyph glyph-name="quotedblbase" unicode="&#x201e;" horiz-adv-x="394" 
d="M333 97c-8.66699 -79.333 -30.999 -162 -66.999 -248c-6 0.666992 -12.333 1 -19 1c-6 0 -18.333 -0.666992 -37 -2c27.333 100 41 183 41 249c15.333 -1.33301 29.333 -2 42 -2c13.333 0 26.666 0.666992 39.999 2zM162.001 97
c-8.66699 -83.333 -24.999 -166 -48.999 -248c-6 0.666992 -12.333 1 -19 1c-6 0 -18.333 -0.666992 -37 -2c15.333 97.333 23 180.333 23 249c15.333 -1.33301 29.333 -2 42 -2c13.333 0 26.666 0.666992 39.999 2z" />
    <glyph glyph-name="dagger" unicode="&#x2020;" horiz-adv-x="522" 
d="M485 405c-72.667 3.33301 -128.999 5.33203 -168.999 5.99902c-4.66699 0 -8.83398 0.5 -12.501 1.5l-5.5 1.5c-1.33301 -0.666992 -2 -1.66699 -2 -3c0 -0.666992 0.333008 -2.5 1 -5.5s1 -6.16699 1 -9.5c2.66699 -77.333 4 -110.666 4 -99.999
c0 -54 -1.33301 -135.333 -4 -244s-4 -190 -4 -244c-13.333 2 -25.333 3 -36 3c-8.66699 0 -19 -1.33301 -31 -4c0 54 -1.33301 135 -4 243s-4 189 -4 243c0 10.667 0.666992 27.334 2 50.001c2 27.333 3 44.666 3 51.999c0 4.66699 0.333008 8.5 1 11.5l1 4.5
c-0.666992 1.33301 -1.66699 2.33301 -3 3c-1.33301 -0.666992 -6.33301 -1.66699 -15 -3c-47.333 0 -104.333 -2 -171 -6c4.66699 21.333 7 35 7 41c0 7.33301 -2 22.333 -6 45c72.667 -4.66699 130 -7.33398 172 -8.00098c4.66699 0 9.66699 -1 15 -3l1 3v6
c-0.666992 2.66699 -1 6.33398 -1 11.001c-2 79.333 -4.66699 150 -8 212c21.333 -3.33301 36.333 -5 45 -5c12.667 0 27 1.66699 43 5c-4 -80.667 -6.66699 -150.667 -8 -210c0 -7.33301 -1 -13.666 -3 -18.999l3 -3c4 3.33301 10 5 18 5c28 0 84.333 1 169 3
c-4 -21.333 -6 -35.333 -6 -42c0 -4.66699 2.33301 -18.334 7 -41.001z" />
    <glyph glyph-name="daggerdbl" unicode="&#x2021;" horiz-adv-x="522" 
d="M485 33c-72.667 4.66699 -130.334 7.33691 -173.001 8.00391c-4.66699 0 -9.33398 1 -14.001 3l-2 -3c0 -1.33301 0.333008 -3.33301 1 -6s1 -6.33398 1 -11.001c2 -79.333 4.66699 -150 8 -212c-21.333 3.33301 -36.666 5 -45.999 5c-12.667 0 -27 -1.66699 -43 -5
c2.66699 48.667 5.66699 118.667 9 210c0 7.33301 0.666992 13.666 2 18.999l-2 3c-4 -3.33301 -10 -5 -18 -5c-28.667 0 -85.334 -1 -170.001 -3c4 21.333 6 35.333 6 42c0 4.66699 -2.33301 18.334 -7 41.001c72.667 -3.33301 129 -5.33301 169 -6
c4.66699 0 8.83398 -0.5 12.501 -1.5l5.5 -1.5c1.33301 0.666992 2 1.66699 2 3v5c-0.666992 3.33301 -1 6.66602 -1 9.99902c0 8 -1.33301 33 -4 75c-1.33301 31.333 -2 56.666 -2 75.999c0 14.667 0.666992 34 2 58c2 30.667 3 50 3 58c0 4.66699 0.333008 8.5 1 11.5
l1 4.5c-0.666992 1.33301 -1.66699 2.33301 -3 3c-1.33301 -0.666992 -6.33301 -1.66699 -15 -3c-47.333 0 -104.333 -2 -171 -6c4.66699 21.333 7 35 7 41c0 7.33301 -2 22.333 -6 45c72.667 -4.66699 130 -7.33398 172 -8.00098c4.66699 0 9.66699 -1 15 -3l1 3v6
c-0.666992 2.66699 -1 6.33398 -1 11.001c-2 79.333 -4.66699 150 -8 212c21.333 -3.33301 36.333 -5 45 -5c12.667 0 27 1.66699 43 5c-4 -80.667 -6.66699 -150.667 -8 -210c0 -7.33301 -1 -13.666 -3 -18.999l3 -3c4 3.33301 10 5 18 5c28 0 84.333 1 169 3
c-4 -21.333 -6 -35.333 -6 -42c0 -4.66699 2.33301 -18.334 7 -41.001c-72.667 3.33301 -129 5.33301 -169 6c-4.66699 0 -8.83398 0.5 -12.501 1.5l-5.5 1.5c-1.33301 -0.666992 -2 -1.66699 -2 -3c0 -0.666992 0.333008 -2.5 1 -5.5s1 -6.16699 1 -9.5
c0 -8.66699 1.33301 -32.334 4 -71.001c1.33301 -29.333 2 -53 2 -71c0 -16 -0.666992 -36.667 -2 -62l-4 -63c0 -4.66699 -0.333008 -8.66699 -1 -12v-4c0.666992 -1.33301 1.33398 -2.33301 2.00098 -3c1.33301 0.666992 6.33301 1.66699 15 3
c46.667 0 103.334 2 170.001 6c-4 -18 -6 -31.667 -6 -41c0 -3.33301 2.33301 -18.333 7 -45z" />
    <glyph glyph-name="bullet" unicode="&#x2022;" horiz-adv-x="509" 
d="M372 356c0 -32.667 -11.667 -60.5 -35 -83.5s-51 -34.5 -83 -34.5s-59.5 11.5 -82.5 34.5s-34.5 50.833 -34.5 83.5s11.5 60.834 34.5 84.501s50.5 35.5 82.5 35.5s59.667 -11.833 83 -35.5s35 -51.834 35 -84.501z" />
    <glyph glyph-name="ellipsis" unicode="&#x2026;" horiz-adv-x="950" 
d="M827 0c-14 3.33301 -28.001 5.00098 -42.001 5.00098c-12 0 -27.333 -1.66699 -46 -5c1.33301 13.333 2 29.666 2 48.999s-0.666992 35.333 -2 48c14 -1.33301 27.667 -2 41 -2c12.667 0 28.334 0.666992 47.001 2c-1.33301 -14 -2 -31.333 -2 -52
c0 -19.333 0.666992 -34.333 2 -45zM510.999 0.000976562c-14 3.33301 -28.001 5.00098 -42.001 5.00098c-11.333 0 -26.333 -1.66699 -45 -5c1.33301 13.333 2 29.666 2 48.999s-0.666992 35.333 -2 48c14 -1.33301 27.333 -2 40 -2s28.334 0.666992 47.001 2
c-1.33301 -14 -2 -31.333 -2 -52c0 -19.333 0.666992 -34.333 2 -45zM211.998 0.00195312c-14 3.33301 -27.668 5.00098 -41.001 5.00098c-12 0 -27.333 -1.66699 -46 -5c1.33301 13.333 2 29.666 2 48.999s-0.666992 35.333 -2 48c14 -1.33301 27.333 -2 40 -2
s28.334 0.666992 47.001 2c-1.33301 -14 -2 -31.333 -2 -52c0 -19.333 0.666992 -34.333 2 -45z" />
    <glyph glyph-name="perthousand" unicode="&#x2030;" horiz-adv-x="1101" 
d="M1060 175c0 -55.333 -13.001 -100 -39.001 -134s-61.333 -51 -106 -51c-44 0 -79 16.667 -105 50s-39 77.333 -39 132c0 57.333 12.833 103 38.5 137s60.834 51 105.501 51c45.333 0 80.833 -16.667 106.5 -50s38.5 -78.333 38.5 -135zM722.999 175
c0 -55.333 -13.001 -100 -39.001 -134s-61.333 -51 -106 -51c-44 0 -79 16.667 -105 50s-39 77.333 -39 132c0 57.333 12.833 103 38.5 137s60.834 51 105.501 51c45.333 0 80.833 -16.667 106.5 -50s38.5 -78.333 38.5 -135zM628.998 686l-412 -686.001
c-9.33301 3.33301 -20.666 5 -33.999 5c-12 0 -25.333 -1.66699 -40 -5c73.333 114.667 210.333 343.334 411 686.001c12 -2.66699 24.667 -4 38 -4s25.666 1.33301 36.999 4zM333.998 509.999c0 -55.333 -13.001 -99.832 -39.001 -133.499s-61.333 -50.5 -106 -50.5
c-44 0 -79 16.833 -105 50.5s-39 77.5 -39 131.5c0 57.333 12.833 103 38.5 137s60.834 51 105.501 51c45.333 0 80.833 -16.833 106.5 -50.5s38.5 -78.834 38.5 -135.501zM992.997 171v2.99902c0 38.667 -3.33301 67.334 -10 86.001c-12 32 -34.667 48 -68 48
c-52.667 0 -79 -44.333 -79 -133c0 -88 26.667 -132 80 -132c51.333 0 77 42.667 77 128zM656.997 170.999c0 39.333 -3.33301 68.333 -10 87c-11.333 33.333 -34.333 50 -69 50c-52.667 0 -79 -44.333 -79 -133c0 -88 26.667 -132 80 -132c52 0 78 42.667 78 128z
M267.997 505.999c0 48.667 -6.16699 83.833 -18.5 105.5s-32.5 32.5 -60.5 32.5c-52.667 0 -79 -44.333 -79 -133c0 -88 26.667 -132 80 -132c52 0 78 42.333 78 127z" />
    <glyph glyph-name="guilsinglleft" unicode="&#x2039;" horiz-adv-x="269" 
d="M221 100c-12 1.33301 -23.9971 1.99902 -35.9971 1.99902c-10.667 0 -25 -0.666992 -43 -2c-20 38 -51.667 93.333 -95 166c29.333 46 60.666 101.667 93.999 167c7.33301 -0.666992 20.666 -1 39.999 -1c18.667 0 32 0.333008 40 1
c-28.667 -48.667 -52.667 -93 -72 -133c-0.666992 -0.666992 -4.33398 -5.5 -11.001 -14.5s-10 -15.5 -10 -19.5s3 -10 9 -18c8 -10 12.333 -16 13 -18c16 -33.333 39.667 -76.666 71 -129.999z" />
    <glyph glyph-name="guilsinglright" unicode="&#x203a;" horiz-adv-x="269" 
d="M222 267c-29.333 -46 -60.667 -101.667 -94 -167c-7.33301 0.666992 -20.333 1 -39 1c-19.333 0 -33 -0.333008 -41 -1c28.667 48.667 52.667 93 72 133c0.666992 0.666992 4.66699 6 12 16c6 8 9 14 9 18s-3 10 -9 18c-8 10 -12.333 16 -13 18
c-22.667 46.667 -45.667 90 -69 130c12 -1.33301 24 -2 36 -2c10.667 0 25 0.666992 43 2z" />
    <glyph glyph-name="fraction" unicode="&#x2044;" horiz-adv-x="84" 
d="M255 667l-377.998 -675c-4.66699 2 -13.334 3 -26.001 3c-14 0 -23.333 -1 -28 -3l377 675c7.33301 -1.33301 16.666 -2 27.999 -2s20.333 0.666992 27 2z" />
    <glyph glyph-name="Euro" unicode="&#x20ac;" horiz-adv-x="565" 
d="M511 183c0 -54 -15.667 -97.9961 -47 -131.996c-37.333 -41.333 -92.666 -62 -165.999 -62c-127.333 0 -204 75.667 -230 227c-2 12 -4 18 -6 18c-5.33301 0 -13 -0.666992 -23 -2s-17 -2 -21 -2c2 9.33301 3 19.333 3 30c0 9.33301 -1 19.666 -3 30.999
c4 0 10.333 -0.5 19 -1.5s15.334 -1.5 20.001 -1.5c2 0 3 1.33301 3 4c0 4.66699 -0.333008 11.5 -1 20.5s-1 15.833 -1 20.5c0 5.33301 0.333008 13.666 1 24.999s1 19.666 1 24.999c0 2 -1 3 -3 3c-4.66699 0 -11 -0.333008 -19 -1c-10 -0.666992 -16.667 -1 -20 -1
c2 10 3 19.667 3 29c0 10 -1 20.333 -3 31c30.667 -2 45 -3 43 -3c3.33301 0 5.16602 2.5 5.49902 7.5s0.5 9.83301 0.5 14.5c25.333 158.667 105.333 238 240 238c97.333 0 163.666 -33.667 198.999 -101c-13.333 -13.333 -28 -35 -44 -65c-33.333 66 -88 99 -164 99
c-49.333 0 -87 -16.333 -113 -49c-20.667 -26.667 -35.334 -67.334 -44.001 -122.001c-2 -13.333 -3 -18.666 -3 -15.999c0 -4 6.33301 -6 19 -6h64c28 0 94 1 198 3c-9.33301 -12.667 -20.666 -32.667 -33.999 -60c-54.667 1.33301 -119.667 2 -195 2h-37
c-8.66699 0 -14 -1.33301 -16 -4s-3 -11.334 -3 -26.001v-47c0 -9.33301 1 -15 3 -17s7.33301 -3 16 -3h39c39.333 0 86 0.666992 140 2c-18 -26 -29.333 -46.333 -34 -61c-60.667 2 -96.667 3 -108 3h-30c-12.667 0 -19 -1.33301 -19 -4c0 1.33301 1 -3.33398 3 -14.001
c20.667 -109.333 72 -164 154 -164c51.333 0 88 13.333 110 40c18.667 23.333 28 59 28 107c11.333 -4 24.333 -6 39 -6c11.333 0 23 1.33301 35 4c0 -1.33301 0.333008 -3.66602 1 -6.99902v-6z" />
    <glyph glyph-name="trademark" unicode="&#x2122;" horiz-adv-x="576" 
d="M537 399c-10.667 2 -18.999 2.99902 -24.999 2.99902c-5.33301 0 -13 -1.33301 -23 -4c2 74.667 3 139.667 3 195v19c0 2 0.333008 7.16699 1 15.5s1 13.5 1 15.5s-1.66699 3.66699 -5 5c-0.666992 0 -2.66699 -6.33301 -6 -19l-66 -229c-10.667 1.33301 -18 2 -22 2
c-5.33301 0 -13 -0.666992 -23 -2c-19.333 75.333 -40.666 151.666 -63.999 228.999c-0.666992 3.33301 -1.16699 7 -1.5 11s-1.5 6 -3.5 6c-3.33301 -0.666992 -5 -1.66699 -5 -3s0.333008 -6.33301 1 -15s1 -14 1 -16v-21c0 -69.333 0.666992 -133.666 2 -192.999
c-10 2.66699 -17.333 4 -22 4c-5.33301 0 -13 -1 -23 -3c0 6.66699 0.333008 29 1 67c0.666992 28 1 51.333 1 70s-0.333008 44.667 -1 78c-0.666992 39.333 -1 66 -1 80c11.333 -1.33301 24.666 -2 39.999 -2c14.667 0 27 0.666992 37 2l54 -193
c0.666992 -1.33301 2 -9 4 -23c1.33301 -7.33301 3.33301 -11 6 -11c1.33301 0 2.66602 3.66699 3.99902 11c1.33301 10.667 2.66602 18.334 3.99902 23.001c20 66 38 130.333 54 193c22.667 -1.33301 35.667 -2 39 -2c6.66699 0 19.334 0.666992 38.001 2
c-0.666992 -32.667 -1 -79 -1 -139c0 -62 0.333008 -114 1 -156zM225.001 647.999c-22.667 2 -44.002 2.99707 -64.002 2.99707c-4.66699 0 -7 -2.66699 -7 -8v-101c0 -18.667 0.333008 -43.667 1 -75c0.666992 -34.667 1 -57 1 -67c-13.333 1.33301 -21.666 2 -24.999 2
s-11 -0.666992 -23 -2c0 16 0.333008 39.333 1 70v70v103c0 5.33301 -2 8 -6 8c-24.667 0 -45.667 -1 -63 -3c2 18.667 3 26.334 3 23.001c0 2.66699 -0.666992 10.334 -2 23.001c36 -0.666992 68.333 -1 97 -1c30.667 0 59.334 0.333008 86.001 1
c-0.666992 -6.66699 -1 -12.667 -1 -18c0 -7.33301 0.666992 -16.666 2 -27.999z" />
    <glyph glyph-name="partialdiff" unicode="&#x2202;" horiz-adv-x="567" 
 />
    <glyph glyph-name="product" unicode="&#x220f;" horiz-adv-x="903" 
 />
    <glyph glyph-name="summation" unicode="&#x2211;" horiz-adv-x="903" 
 />
    <glyph glyph-name="radical" unicode="&#x221a;" horiz-adv-x="903" 
 />
    <glyph glyph-name="infinity" unicode="&#x221e;" horiz-adv-x="608" 
 />
    <glyph glyph-name="integral" unicode="&#x222b;" horiz-adv-x="903" 
 />
    <glyph glyph-name="approxequal" unicode="&#x2248;" horiz-adv-x="903" 
 />
    <glyph glyph-name="approxequal" unicode="&#x22f2;" horiz-adv-x="903" 
 />
    <glyph glyph-name="notequal" unicode="&#x2260;" horiz-adv-x="578" 
 />
    <glyph glyph-name="lessequal" unicode="&#x2264;" horiz-adv-x="455" 
 />
    <glyph glyph-name="lozenge" unicode="&#x25ca;" horiz-adv-x="903" 
 />
    <glyph glyph-name="fi" unicode="&#xf001;" horiz-adv-x="516" 
d="M432 612c-10 2 -22.667 2.99902 -38 2.99902c-16 0 -30 -1 -42 -3c2 18 3 35.333 3 52s-1 31.667 -3 45c11.333 -1.33301 26 -2 44 -2c16 0 28 0.666992 36 2c-1.33301 -10.667 -2 -26.667 -2 -48s0.666992 -37.666 2 -48.999zM432 -0.000976562
c-16 3.33301 -29.667 5 -41 5c-14.667 0 -27.667 -1.66699 -39 -5c2 70 3 149.667 3 239c0 87.333 -1 174.333 -3 261c12 -3.33301 25.333 -5 40 -5c10.667 0 24 1.66699 40 5c-2 -85.333 -3 -171 -3 -257c0 -89.333 1 -170.333 3 -243zM283 662.999
c0 -13.333 -1 -24.667 -3 -34c-16.667 6.66699 -32.334 10 -47.001 10c-22 0 -37.333 -9.33301 -46 -28c-5.33301 -12 -8.33301 -32.333 -9 -61c0 -3.33301 -0.333008 -9 -1 -17s-1 -14 -1 -18c0 -7.33301 0.833008 -12 2.5 -14s6.16699 -3 13.5 -3
c42 0 71.667 0.666992 89 2c-2 -11.333 -3 -23 -3 -35s1 -22.667 3 -32c-34.667 1.33301 -65.667 2 -93 2c-8 0 -12 -4 -12 -12c0 -126.667 0.666992 -267.667 2 -423c-13.333 3.33301 -26.333 5 -39 5c-13.333 0 -25.666 -1.66699 -36.999 -5l2 424
c0 7.33301 -4.33301 11 -13 11c-12.667 0 -37 -0.666992 -73 -2c2.66699 12 4 23.333 4 34s-1.33301 21.667 -4 33c24 -1.33301 47.667 -2 71 -2c9.33301 0 14 5.66699 14 17c0 6 -0.333008 13.5 -1 22.5s-1 14.5 -1 16.5c0 53.333 11.167 92.833 33.5 118.5
s52.833 38.5 91.5 38.5c18 0 36 -3 54 -9c2 -14 3 -27 3 -39z" />
    <glyph glyph-name="fl" unicode="&#xf002;" horiz-adv-x="516" 
d="M433 0c-12 2.66699 -24.334 4 -37.001 4c-16 0 -30.667 -1.33301 -44 -4c1.33301 84.667 2 195.334 2 332.001c0 139.333 -0.666992 265 -2 377c12.667 -2.66699 27 -4 43 -4c12.667 0 25.334 1.33301 38.001 4c-1.33301 -114.667 -2 -240.334 -2 -377.001
c0 -141.333 0.666992 -252 2 -332zM282.999 663c0 -13.333 -1 -24.667 -3 -34c-16.667 6.66699 -32.334 10 -47.001 10c-22 0 -37.333 -9.33301 -46 -28c-5.33301 -12 -8.33301 -32.333 -9 -61c0 -3.33301 -0.333008 -9 -1 -17s-1 -14 -1 -18
c0 -7.33301 0.833008 -12 2.5 -14s6.16699 -3 13.5 -3c42 0 71.667 0.666992 89 2c-2 -11.333 -3 -23 -3 -35s1 -22.667 3 -32c-34.667 1.33301 -65.667 2 -93 2c-8 0 -12 -4 -12 -12c0 -126.667 0.666992 -267.667 2 -423c-13.333 3.33301 -26.333 5 -39 5
c-13.333 0 -25.666 -1.66699 -36.999 -5l2 424c0 7.33301 -4.33301 11 -13 11c-12.667 0 -37 -0.666992 -73 -2c2.66699 12 4 23.333 4 34s-1.33301 21.667 -4 33c24 -1.33301 47.667 -2 71 -2c9.33301 0 14 5.66699 14 17c0 6 -0.333008 13.5 -1 22.5s-1 14.5 -1 16.5
c0 53.333 11.167 92.833 33.5 118.5s52.833 38.5 91.5 38.5c18 0 36 -3 54 -9c2 -14 3 -27 3 -39z" />
    <glyph glyph-name="glyph1" horiz-adv-x="0" 
 />
    <glyph glyph-name="glyph2" horiz-adv-x="258" 
 />
    <glyph glyph-name=".null" horiz-adv-x="30" 
 />
    <glyph glyph-name="nonmarkingreturn" horiz-adv-x="30" 
 />
    <glyph glyph-name="RS" horiz-adv-x="1134" 
 />
    <glyph glyph-name="US" horiz-adv-x="1134" 
 />
    </font>
</defs>
</svg>
